<svg width="66" height="66" viewBox="0 0 66 66" fill="none" xmlns="http://www.w3.org/2000/svg">
<path d="M32.9998 65.9999C51.2256 65.9999 65.9996 51.2258 65.9996 32.9999C65.9996 14.7741 51.2256 0 32.9998 0C14.774 0 0 14.7741 0 32.9999C0 51.2258 14.774 65.9999 32.9998 65.9999Z" fill="#F7931A"/>
<path d="M47.5421 29.1842C48.1519 25.1102 45.0503 22.9196 40.8126 21.458L42.1876 15.9379L38.8316 15.1021L37.4915 20.4764C36.6098 20.2548 35.7048 20.0488 34.8017 19.8428L36.1515 14.4334L32.7955 13.5957L31.4204 19.1139C30.6902 18.9467 29.9716 18.7834 29.2763 18.6085L29.2802 18.591L24.6501 17.4345L23.7568 21.0226C23.7568 21.0226 26.2485 21.594 26.1961 21.629C27.5556 21.9692 27.8003 22.8691 27.7595 23.5844L26.1941 29.8723C26.2874 29.8956 26.4078 29.9306 26.5437 29.9831L26.1883 29.8956L23.9937 38.7045C23.8267 39.1165 23.4052 39.7366 22.4536 39.5014C22.4885 39.55 20.0143 38.893 20.0143 38.893L18.3479 42.7376L22.7177 43.8281C23.5295 44.0322 24.3258 44.246 25.1085 44.4462L23.7199 50.0285L27.0739 50.8643L28.4489 45.3442C29.3656 45.591 30.2551 45.8204 31.1252 46.0381L29.7541 51.5349L33.1101 52.3706L34.4987 46.8C40.2241 47.8846 44.5279 47.4472 46.3399 42.2653C47.8004 38.0941 46.268 35.6859 43.2558 34.1173C45.4504 33.612 47.1012 32.1678 47.5421 29.1842ZM39.8707 39.9484C38.8355 44.1216 31.8147 41.8649 29.5385 41.2993L31.3835 33.9035C33.6597 34.473 40.9563 35.5984 39.8707 39.9484ZM40.9097 29.124C39.9639 32.92 34.1219 30.9899 32.2283 30.5176L33.8986 23.8118C35.7922 24.2841 41.8963 25.1646 40.9097 29.124Z" fill="white"/>
</svg>
