<svg width="64" height="64" viewBox="0 0 64 64" fill="none" xmlns="http://www.w3.org/2000/svg">
<path d="M32.0002 64C49.6734 64 64.0003 49.6731 64.0003 32C64.0003 14.3269 49.6734 0 32.0002 0C14.327 0 0 14.3269 0 32C0 49.6731 14.327 64 32.0002 64Z" fill="#E6007A"/>
<path d="M32.0002 17.9688C36.7586 17.9688 40.6161 15.6203 40.6161 12.7233C40.6161 9.82628 36.7586 7.47778 32.0002 7.47778C27.2417 7.47778 23.3843 9.82628 23.3843 12.7233C23.3843 15.6203 27.2417 17.9688 32.0002 17.9688Z" fill="white"/>
<path d="M32.0002 57.4778C36.7586 57.4778 40.6161 55.1293 40.6161 52.2323C40.6161 49.3353 36.7586 46.9868 32.0002 46.9868C27.2417 46.9868 23.3843 49.3353 23.3843 52.2323C23.3843 55.1293 27.2417 57.4778 32.0002 57.4778Z" fill="white"/>
<path d="M19.9914 25.2234C22.3706 20.9116 22.3556 16.2419 19.9578 14.7934C17.5599 13.3449 13.6874 15.6661 11.3082 19.9779C8.92898 24.2897 8.94405 28.9594 11.3419 30.4079C13.7397 31.8564 17.6122 29.5352 19.9914 25.2234Z" fill="white"/>
<path d="M52.6919 44.9778C55.0711 40.666 55.056 35.9963 52.6582 34.5478C50.2604 33.0993 46.3878 35.4205 44.0086 39.7323C41.6294 44.0441 41.6445 48.7138 44.0423 50.1623C46.4401 51.6108 50.3126 49.2896 52.6919 44.9778Z" fill="white"/>
<path d="M19.9575 50.1631C22.3553 48.7146 22.3704 44.045 19.9912 39.7331C17.612 35.4213 13.7394 33.1001 11.3416 34.5486C8.94381 35.9971 8.92873 40.6668 11.3079 44.9786C13.6872 49.2905 17.5597 51.6116 19.9575 50.1631Z" fill="white"/>
<path d="M52.6584 30.408C55.0562 28.9595 55.0713 24.2898 52.6921 19.978C50.3129 15.6662 46.4403 13.345 44.0425 14.7935C41.6447 16.242 41.6297 20.9117 44.0089 25.2235C46.3881 29.5353 50.2606 31.8565 52.6584 30.408Z" fill="white"/>
</svg>
