<svg width="64" height="64" viewBox="0 0 64 64" fill="none" xmlns="http://www.w3.org/2000/svg">
<path d="M32 64C49.6731 64 64 49.6731 64 32C64 14.3269 49.6731 0 32 0C14.3269 0 0 14.3269 0 32C0 49.6731 14.3269 64 32 64Z" fill="#26A17B"/>
<path fill-rule="evenodd" clip-rule="evenodd" d="M35.8446 34.7669V34.7629C35.6246 34.7789 34.4906 34.8469 31.9606 34.8469C29.9406 34.8469 28.5186 34.7869 28.0186 34.7629V34.7689C20.2426 34.4269 14.4386 33.0729 14.4386 31.4529C14.4386 29.8349 20.2426 28.4809 28.0186 28.1329V33.4209C28.5266 33.4569 29.9826 33.5429 31.9946 33.5429C34.4086 33.5429 35.6186 33.4429 35.8446 33.4229V28.1369C43.6046 28.4829 49.3946 29.8369 49.3946 31.4529C49.3946 33.0729 43.6046 34.4229 35.8446 34.7669ZM35.8446 27.5869V22.8549H46.6726V15.6389H17.1906V22.8549H28.0186V27.5849C19.2186 27.9889 12.6006 29.7329 12.6006 31.8209C12.6006 33.9089 19.2186 35.6509 28.0186 36.0569V51.2209H35.8446V36.0529C44.6306 35.6489 51.2326 33.9069 51.2326 31.8209C51.2326 29.7349 44.6306 27.9929 35.8446 27.5869Z" fill="white"/>
</svg>
