<svg width="64" height="64" viewBox="0 0 64 64" fill="none" xmlns="http://www.w3.org/2000/svg">
<path d="M33.2226 34.3515H45.8621C46.1316 34.3515 46.2588 34.3515 46.2783 33.9982C46.3815 32.7124 46.3815 31.4191 46.2783 30.1318C46.2783 29.8819 46.154 29.7786 45.8831 29.7786H20.7283C20.4169 29.7786 20.3331 29.8819 20.3331 30.1737V33.874C20.3331 34.3515 20.3331 34.3515 20.8316 34.3515H33.2226ZM44.8667 25.4541C44.9026 25.3598 44.9026 25.2565 44.8667 25.1637C44.6557 24.7042 44.4057 24.2656 44.1153 23.854C43.6782 23.1505 43.1633 22.5023 42.5765 21.92C42.2996 21.5683 41.9793 21.2524 41.62 20.9845C39.8208 19.4532 37.6818 18.3695 35.3826 17.8246C34.2225 17.5642 33.037 17.4399 31.8485 17.4504H20.6849C20.3735 17.4504 20.3316 17.5746 20.3316 17.8456V25.2251C20.3316 25.5365 20.3316 25.6203 20.7268 25.6203H44.717C44.717 25.6203 44.9251 25.5784 44.967 25.4541H44.8652H44.8667ZM44.8667 38.6759C44.5135 38.637 44.1572 38.637 43.8039 38.6759H20.7492C20.4379 38.6759 20.3331 38.6759 20.3331 39.0921V46.3069C20.3331 46.6393 20.3331 46.7231 20.7492 46.7231H31.3934C31.9024 46.762 32.4113 46.7261 32.9098 46.6198C34.4545 46.509 35.9738 46.1737 37.4228 45.6214C37.9497 45.4388 38.4586 45.2008 38.9391 44.9149H39.0843C41.5796 43.6171 43.6064 41.5784 44.8847 39.0756C44.8847 39.0756 45.0299 38.7613 44.8667 38.6789V38.6759ZM16.1554 50.4637V50.3395V45.4956V43.8536V38.9678C16.1554 38.6969 16.1554 38.6565 15.8231 38.6565H11.3115C11.0615 38.6565 10.9583 38.6565 10.9583 38.3242V34.3739H15.7811C16.0506 34.3739 16.1554 34.3739 16.1554 34.0207V30.1124C16.1554 29.8624 16.1554 29.801 15.8231 29.801H11.3115C11.0615 29.801 10.9583 29.801 10.9583 29.4687V25.8104C10.9583 25.5814 10.9583 25.52 11.2906 25.52H15.7602C16.0715 25.52 16.1554 25.52 16.1554 25.1248V13.9193C16.1554 13.587 16.1554 13.5032 16.5715 13.5032H32.1628C33.2945 13.5481 34.4186 13.6723 35.5308 13.8774C37.8225 14.301 40.0244 15.1198 42.0376 16.2888C43.3728 17.0747 44.6018 18.0237 45.696 19.1164C46.5192 19.9711 47.2617 20.8962 47.9203 21.8811C48.5744 22.8795 49.1178 23.9468 49.5444 25.062C49.5968 25.3524 49.8752 25.5484 50.1656 25.499H53.8868C54.3643 25.499 54.3643 25.499 54.3853 25.9571V29.3669C54.3853 29.6992 54.261 29.7831 53.9272 29.7831H51.0577C50.7674 29.7831 50.6835 29.7831 50.7045 30.1573C50.8182 31.4236 50.8182 32.6945 50.7045 33.9608C50.7045 34.3141 50.7045 34.356 51.1011 34.356H54.3838C54.529 34.5431 54.3838 34.7302 54.3838 34.9188C54.4047 35.1598 54.4047 35.4038 54.3838 35.6448V38.161C54.3838 38.5143 54.2805 38.6191 53.9676 38.6191H50.0384C49.7645 38.5667 49.498 38.7418 49.4351 39.0142C48.4996 41.4466 47.0027 43.6276 45.0688 45.3759C44.3623 46.0121 43.6198 46.6108 42.8444 47.1632C42.0122 47.6422 41.2024 48.1406 40.3492 48.5358C38.779 49.2423 37.1324 49.7632 35.4425 50.094C33.8378 50.3814 32.2107 50.5116 30.5776 50.4892H16.1494V50.4682L16.1554 50.4637Z" fill="#F1F7F6"/>
<g clip-path="url(#clip0_1241_1620)">
<path d="M32.0039 64C49.677 64 64.0039 49.6731 64.0039 32C64.0039 14.3269 49.677 0 32.0039 0C14.3308 0 0.00390625 14.3269 0.00390625 32C0.00390625 49.6731 14.3308 64 32.0039 64Z" fill="#3E73C4"/>
<path d="M40.049 36.2485C40.049 32.0005 37.489 30.5445 32.369 29.9365C28.713 29.4505 27.983 28.4805 27.983 26.7805C27.983 25.0805 29.203 23.9885 31.639 23.9885C33.833 23.9885 35.053 24.7165 35.661 26.5385C35.7243 26.7147 35.8402 26.8672 35.9929 26.9756C36.1456 27.0839 36.3278 27.1429 36.515 27.1445H38.465C38.5776 27.1475 38.6897 27.1276 38.7944 27.086C38.8991 27.0444 38.9943 26.982 39.0741 26.9025C39.154 26.823 39.2169 26.7281 39.259 26.6236C39.301 26.5191 39.3215 26.4071 39.319 26.2945V26.1745C39.0807 24.8563 38.4137 23.6537 37.4217 22.7535C36.4296 21.8534 35.1681 21.306 33.833 21.1965V18.2845C33.833 17.7985 33.467 17.4345 32.859 17.3125H31.029C30.543 17.3125 30.177 17.6765 30.055 18.2845V21.0765C26.397 21.5605 24.083 23.9885 24.083 27.0245C24.083 31.0285 26.519 32.6065 31.639 33.2145C35.053 33.8205 36.149 34.5505 36.149 36.4925C36.149 38.4325 34.443 39.7685 32.127 39.7685C28.957 39.7685 27.861 38.4345 27.495 36.6125C27.375 36.1285 27.007 35.8845 26.641 35.8845H24.569C24.4565 35.8818 24.3447 35.9019 24.2402 35.9436C24.1357 35.9853 24.0408 36.0478 23.9612 36.1272C23.8815 36.2067 23.8188 36.3015 23.7769 36.4059C23.7349 36.5102 23.7145 36.622 23.717 36.7345V36.8545C24.203 39.8905 26.155 42.0745 30.177 42.6825V45.5965C30.177 46.0805 30.543 46.4465 31.151 46.5665H32.981C33.467 46.5665 33.833 46.2025 33.955 45.5965V42.6805C37.613 42.0745 40.049 39.5245 40.049 36.2465V36.2485Z" fill="#F1F7F6"/>
<path d="M25.7907 48.994C16.2827 45.594 11.4067 35.034 14.9427 25.688C16.7707 20.588 20.7927 16.706 25.7907 14.884C26.2787 14.642 26.5207 14.278 26.5207 13.67V11.97C26.5207 11.486 26.2787 11.122 25.7907 11C25.6687 11 25.4247 11 25.3027 11.12C22.5595 11.9766 20.0129 13.3675 17.8095 15.2123C15.6061 17.0572 13.7894 19.3198 12.464 21.8697C11.1386 24.4195 10.3306 27.2064 10.0867 30.0698C9.84277 32.9333 10.1677 35.8167 11.0427 38.554C13.2347 45.354 18.4767 50.574 25.3027 52.758C25.7907 53 26.2787 52.758 26.3987 52.272C26.5207 52.152 26.5207 52.028 26.5207 51.786V50.086C26.5207 49.722 26.1567 49.238 25.7907 48.994ZM38.7107 11.122C38.2227 10.878 37.7347 11.122 37.6147 11.606C37.4927 11.728 37.4927 11.85 37.4927 12.092V13.792C37.4927 14.278 37.8567 14.762 38.2227 15.006C47.7307 18.406 52.6067 28.966 49.0707 38.312C47.2427 43.412 43.2207 47.294 38.2227 49.116C37.7347 49.358 37.4927 49.722 37.4927 50.33V52.03C37.4927 52.514 37.7347 52.878 38.2227 53C38.3447 53 38.5887 53 38.7107 52.88C41.4538 52.0233 44.0004 50.6325 46.2038 48.7877C48.4072 46.9428 50.224 44.6802 51.5494 42.1303C52.8748 39.5805 53.6827 36.7936 53.9267 33.9301C54.1706 31.0667 53.8457 28.1833 52.9707 25.446C50.7787 18.526 45.4147 13.306 38.7107 11.122Z" fill="#F1F7F6"/>
</g>
<defs>
<clipPath id="clip0_1241_1620">
<rect width="64" height="64" fill="white"/>
</clipPath>
</defs>
</svg>
