<svg width="56" height="56" viewBox="0 0 56 56" fill="none" xmlns="http://www.w3.org/2000/svg">
<rect x="0.5" y="0.5" width="55" height="55" rx="27.5" stroke="#DFB1F3" stroke-opacity="0.35"/>
<path d="M24.0253 24.0001C24.0085 23.7801 24 23.5577 24 23.3334C24 18.5469 27.8801 14.6667 32.6667 14.6667C37.4532 14.6667 41.3333 18.5469 41.3333 23.3334C41.3333 28.1199 37.4532 32.0001 32.6667 32.0001C32.4424 32.0001 32.22 31.9915 32 31.9749" stroke="#DFB1F3" stroke-width="2" stroke-linecap="round" stroke-linejoin="round"/>
<path d="M23.3334 41.3333C18.5469 41.3333 14.6667 37.4532 14.6667 32.6667C14.6667 27.8801 18.5469 24 23.3334 24C28.1199 24 32.0001 27.8801 32.0001 32.6667C32.0001 37.4532 28.1199 41.3333 23.3334 41.3333Z" stroke="#DFB1F3" stroke-width="2" stroke-linecap="round" stroke-linejoin="round"/>
<path d="M41.3334 34.6667C41.3334 36.8759 39.5426 38.6667 37.3334 38.6667H34.6667M34.6667 38.6667L37.3334 36.0001M34.6667 38.6667L37.3334 41.3334" stroke="#DFB1F3" stroke-width="2" stroke-linecap="round" stroke-linejoin="round"/>
<path d="M14.6667 21.3334C14.6667 19.1243 16.4576 17.3334 18.6667 17.3334H21.3334M21.3334 17.3334L18.6667 20.0001M21.3334 17.3334L18.6667 14.6667" stroke="#DFB1F3" stroke-width="2" stroke-linecap="round" stroke-linejoin="round"/>
</svg>
