<svg width="56" height="56" viewBox="0 0 56 56" fill="none" xmlns="http://www.w3.org/2000/svg">
<rect x="0.5" y="0.5" width="55" height="55" rx="27.5" stroke="#8AAB63"/>
<path d="M26.6667 36.6673L29.3334 39.334C29.5961 39.5966 29.9079 39.805 30.251 39.9471C30.5942 40.0893 30.962 40.1624 31.3334 40.1624C31.7048 40.1624 32.0726 40.0893 32.4158 39.9471C32.759 39.805 33.0708 39.5966 33.3334 39.334C33.5961 39.0713 33.8044 38.7595 33.9465 38.4164C34.0887 38.0732 34.1618 37.7054 34.1618 37.334C34.1618 36.9626 34.0887 36.5948 33.9465 36.2516C33.8044 35.9084 33.5961 35.5966 33.3334 35.334" stroke="#240E32" stroke-width="2" stroke-linecap="round" stroke-linejoin="round"/>
<path d="M30.667 32.6673L34.0003 36.0007C34.5307 36.5311 35.2502 36.8291 36.0003 36.8291C36.7504 36.8291 37.4699 36.5311 38.0003 36.0007C38.5307 35.4702 38.8287 34.7508 38.8287 34.0007C38.8287 33.2505 38.5307 32.5311 38.0003 32.0007L32.827 26.8273C32.077 26.0783 31.0603 25.6575 30.0003 25.6575C28.9403 25.6575 27.9236 26.0783 27.1736 26.8273L26.0003 28.0007C25.4699 28.5311 24.7504 28.8291 24.0003 28.8291C23.2502 28.8291 22.5307 28.5311 22.0003 28.0007C21.4699 27.4702 21.1719 26.7508 21.1719 26.0007C21.1719 25.2505 21.4699 24.5311 22.0003 24.0007L25.747 20.254C26.9633 19.0409 28.5495 18.2681 30.2545 18.058C31.9595 17.8479 33.6859 18.2124 35.1603 19.094L35.787 19.4673C36.3547 19.81 37.0297 19.9288 37.6803 19.8007L40.0003 19.334" stroke="#240E32" stroke-width="2" stroke-linecap="round" stroke-linejoin="round"/>
<path d="M40.0001 18.0006L41.3334 32.6673H38.6667" stroke="#240E32" stroke-width="2" stroke-linecap="round" stroke-linejoin="round"/>
<path d="M16.0001 18.0006L14.6667 32.6673L23.3334 41.3339C23.8638 41.8644 24.5833 42.1624 25.3334 42.1624C26.0836 42.1624 26.803 41.8644 27.3334 41.3339C27.8638 40.8035 28.1618 40.0841 28.1618 39.3339C28.1618 38.5838 27.8638 37.8644 27.3334 37.3339" stroke="#240E32" stroke-width="2" stroke-linecap="round" stroke-linejoin="round"/>
<path d="M16 19.334H26.6667" stroke="#240E32" stroke-width="2" stroke-linecap="round" stroke-linejoin="round"/>
</svg>
