<svg id="aave-logo-for-web" xmlns="http://www.w3.org/2000/svg" width="1080" height="1079.999" viewBox="0 0 1080 1079.999">
  <path id="Path_148003" data-name="Path 148003" d="M1080,540C1080,241.385,838.488,0,540.284,0S0,241.385,0,540s241.512,540,540.284,540S1080,838.047,1080,540Z" fill="#9391f7"/>
  <path id="Path_148004" data-name="Path 148004" d="M158.648,238.91c46.464-7.366,77.629-51,70.262-97.461s-51-77.628-97.461-70.262-77.629,51-70.262,97.461c7.933,46.464,51.563,77.628,97.461,70.262Zm222.12,0c46.464-7.366,77.629-51,70.262-97.461s-51-77.628-97.461-70.262-77.629,51-70.262,97.461,51,77.628,97.461,70.262Z" transform="translate(280.773 327.154)" fill="#fff"/>
  <path id="Path_148005" data-name="Path 148005" d="M438.891,23.3C208.115,23.3,21,213.688,21,448.273H127.6c0-176.222,138.352-318.447,310.725-318.447,172.94,0,310.725,142.791,310.725,318.447h106.6C856.782,213.688,669.667,23.3,438.891,23.3Z" transform="translate(97.993 108.725)" fill="#fff"/>
</svg>
