<svg width="64" height="64" viewBox="0 0 64 64" fill="none" xmlns="http://www.w3.org/2000/svg">
<g clip-path="url(#clip0_1241_2145)">
<path d="M32 64C49.6731 64 64 49.6731 64 32C64 14.3269 49.6731 0 32 0C14.3269 0 0 14.3269 0 32C0 49.6731 14.3269 64 32 64Z" fill="#32323B"/>
<path fill-rule="evenodd" clip-rule="evenodd" d="M10.3826 42.77C8.91043 39.6708 8.13561 36.2616 8.13561 32.6199C8.13561 19.293 18.9056 8.52306 32.2325 8.52306C39.6707 8.52306 46.2567 11.8548 50.6731 17.1235L53.3075 14.8766C48.2712 8.83299 40.678 5.03638 32.2325 5.03638C16.9685 5.03638 4.64893 17.356 4.64893 32.5424C4.64893 36.7264 5.57871 40.678 7.20583 44.1647L10.3826 42.77Z" fill="white"/>
<path fill-rule="evenodd" clip-rule="evenodd" d="M32.2323 48.891C23.2444 48.891 15.8837 41.6078 15.8837 32.5424C15.8837 23.5545 23.1669 16.1937 32.2323 16.1937C37.2686 16.1937 41.7626 18.4407 44.7844 22.0049L47.4188 19.7579C43.7771 15.4189 38.3534 12.707 32.2323 12.707C21.3074 12.7845 12.397 21.6174 12.397 32.5424C12.397 43.4673 21.2299 52.3003 32.1548 52.3003V48.891H32.2323Z" fill="white"/>
<path fill-rule="evenodd" clip-rule="evenodd" d="M38.1211 37.5013C36.7264 39.2059 34.5569 40.2906 32.155 40.2906C27.8935 40.2906 24.4068 36.8039 24.4068 32.5424C24.4068 28.2809 27.8935 24.7943 32.155 24.7943C34.5569 24.7943 36.6489 25.879 38.1211 27.5836L41.0654 25.1042C38.8959 22.5473 35.7192 20.9202 32.155 20.9202C25.724 20.9202 20.5327 26.1114 20.5327 32.5424C20.5327 38.9734 25.724 44.1647 32.155 44.1647C35.4092 44.1647 38.3535 42.8475 40.523 40.6006L38.1211 37.5013Z" fill="white"/>
</g>
<defs>
<clipPath id="clip0_1241_2145">
<rect width="64" height="64" fill="white"/>
</clipPath>
</defs>
</svg>
