<svg width="64" height="64" viewBox="0 0 64 64" fill="none" xmlns="http://www.w3.org/2000/svg">
<rect width="64" height="64" rx="32" fill="#8C175B"/>
<path d="M22.8559 13.7146H29.7146V35.6586L27.9999 31.9999L29.7146 41.0853V50.2853H22.8533L22.8559 13.7146Z" fill="white"/>
<path d="M37.5547 13.7146H44.5707L35.5894 29.7146H28.5707L37.5547 13.7146ZM36.9494 50.2853H44.5707L34.7787 31.9999H27.4294L36.9494 50.2853ZM18.2054 29.7146H43.5094C44.104 29.7146 44.5707 30.2399 44.5707 30.8586C44.5707 31.4986 44.08 31.9999 43.5094 31.9999H18.2054C17.6107 31.9999 17.144 31.4746 17.144 30.8586C17.144 30.2399 17.6347 29.7146 18.2054 29.7146Z" fill="white"/>
</svg>
