<svg id="solana-logo-for-web" xmlns="http://www.w3.org/2000/svg" xmlns:xlink="http://www.w3.org/1999/xlink" width="1080" height="1080" viewBox="0 0 1080 1080">
  <defs>
    <linearGradient id="linear-gradient" x1="0.978" y1="0.362" x2="0.173" y2="0.811" gradientUnits="objectBoundingBox">
      <stop offset="0" stop-color="#14f195"/>
      <stop offset="1" stop-color="#9945ff"/>
    </linearGradient>
  </defs>
  <circle id="Ellipse_892" data-name="Ellipse 892" cx="540" cy="540" r="540" transform="translate(0 0)" fill="url(#linear-gradient)"/>
  <g id="Group_100493" data-name="Group 100493" transform="translate(231.682 264.726)">
    <path id="Path_148001" data-name="Path 148001" d="M612.87,434.2,511.248,543.008a23.944,23.944,0,0,1-17.281,7.646H12.239A11.852,11.852,0,0,1,3.6,530.773L105.22,421.811a23.941,23.941,0,0,1,17.281-7.646H604.229A11.851,11.851,0,0,1,612.87,434.2ZM511.248,214.745a23.7,23.7,0,0,0-17.281-7.646H12.239A11.776,11.776,0,0,0,3.6,226.9L105.22,336.018a23.716,23.716,0,0,0,17.281,7.646H604.229a11.777,11.777,0,0,0,8.641-19.8Zm-499.009-78.3H493.967a23.937,23.937,0,0,0,17.281-7.646L612.87,19.989A11.852,11.852,0,0,0,604.229.108H122.5A23.933,23.933,0,0,0,105.22,7.755L3.6,116.564a11.852,11.852,0,0,0,8.641,19.881Z" transform="translate(-0.437 -0.108)" fill="#fff"/>
  </g>
</svg>
