<svg width="261" height="260" viewBox="0 0 261 260" fill="none" xmlns="http://www.w3.org/2000/svg">
<g clip-path="url(#clip0_1241_1997)">
<path d="M7.53988 116.442C7.94109 116.723 8.22193 117.084 8.40248 117.546C8.58302 118.008 8.6432 118.531 8.60308 119.133C8.5429 119.736 8.40248 120.238 8.14169 120.64C7.88091 121.061 7.53988 121.363 7.09855 121.564C6.65722 121.764 6.1557 121.845 5.59401 121.785L0.919922 121.363L1.04028 120.037L5.71438 120.459C6.23595 120.499 6.63716 120.399 6.93806 120.158C7.23897 119.917 7.41952 119.535 7.45964 119.033C7.49976 118.531 7.39945 118.129 7.13867 117.828C6.89794 117.526 6.49673 117.366 5.97516 117.305L1.30107 116.883L1.42143 115.538L6.09552 115.959C6.65722 116 7.13867 116.18 7.53988 116.442Z" fill="#DFB1F3"/>
<path d="M2.56463 109.532C2.80535 109.15 3.12632 108.869 3.48741 108.708C3.86856 108.548 4.28983 108.487 4.75122 108.568C5.23267 108.628 5.61382 108.809 5.93479 109.07C6.25576 109.331 6.47642 109.693 6.59678 110.114C6.71715 110.556 6.73721 111.038 6.65697 111.601L6.4363 113.067L9.04416 113.449L8.86362 114.774L1.64185 113.73L2.04306 110.938C2.1233 110.375 2.28378 109.913 2.52451 109.532H2.56463ZM5.37309 110.416C5.21261 110.154 4.93176 109.974 4.55061 109.934C4.16947 109.873 3.86856 109.954 3.64789 110.175C3.42723 110.396 3.26674 110.717 3.20656 111.179L3.00596 112.585L5.33297 112.926L5.53358 111.52C5.59376 111.058 5.53358 110.697 5.39315 110.436L5.37309 110.416Z" fill="#DFB1F3"/>
<path d="M10.3688 102.963C10.7299 103.586 10.8302 104.309 10.6496 105.153C10.5092 105.836 10.2284 106.398 9.78703 106.84C9.36576 107.282 8.82413 107.583 8.22232 107.744C7.60044 107.905 6.93845 107.905 6.23633 107.764C5.53421 107.624 4.91234 107.342 4.41083 106.961C3.90932 106.579 3.52817 106.097 3.3075 105.514C3.08684 104.932 3.04671 104.309 3.18714 103.606C3.34762 102.803 3.70871 102.2 4.25034 101.758C4.79198 101.336 5.49409 101.116 6.31657 101.116L6.09591 102.502C5.61446 102.502 5.21325 102.622 4.89228 102.863C4.57131 103.084 4.39077 103.425 4.29046 103.847C4.19016 104.289 4.23028 104.691 4.41083 105.032C4.57131 105.374 4.8321 105.655 5.21325 105.896C5.57434 106.117 6.01567 106.278 6.49712 106.378C6.99863 106.479 7.46002 106.499 7.86123 106.438C8.2825 106.378 8.62353 106.218 8.92443 105.956C9.20528 105.695 9.40589 105.354 9.48613 104.912C9.56637 104.47 9.50619 104.068 9.30558 103.727C9.08492 103.385 8.74389 103.104 8.24238 102.903L8.60347 101.537C9.40589 101.859 9.98764 102.321 10.3487 102.943L10.3688 102.963Z" fill="#DFB1F3"/>
<path d="M11.4116 99.7296C10.9903 100.151 10.4487 100.433 9.82682 100.553C9.20494 100.674 8.50283 100.633 7.76059 100.433C6.99829 100.232 6.37642 99.9104 5.89496 99.5086C5.41351 99.0868 5.09254 98.5847 4.93206 98.0021C4.77158 97.4196 4.79164 96.7769 4.97218 96.0738C5.15273 95.3708 5.47369 94.8285 5.89496 94.4067C6.33629 93.9848 6.85787 93.7036 7.47974 93.6032C8.10162 93.4827 8.80373 93.5228 9.56603 93.7237C10.3283 93.9246 10.9301 94.246 11.4116 94.6477C11.893 95.0695 12.214 95.5717 12.3745 96.1542C12.535 96.7367 12.5149 97.3795 12.3344 98.0624C12.1538 98.7654 11.8329 99.3078 11.4116 99.7497V99.7296ZM11.211 96.576C11.0906 96.2144 10.87 95.9131 10.5289 95.652C10.1879 95.3909 9.74657 95.19 9.225 95.0494C8.68337 94.9088 8.20192 94.8686 7.78065 94.9088C7.35938 94.9691 6.99829 95.1097 6.71744 95.3708C6.4366 95.6118 6.23599 95.9533 6.11563 96.3751C5.99527 96.797 6.01533 97.1786 6.11563 97.5402C6.23599 97.9017 6.47672 98.203 6.81775 98.4641C7.15877 98.7253 7.6001 98.9261 8.14174 99.0667C8.66331 99.2073 9.14476 99.2475 9.56603 99.2073C9.9873 99.1471 10.3484 99.0065 10.6292 98.7453C10.9101 98.5043 11.1107 98.1628 11.2311 97.741C11.3514 97.3192 11.3514 96.9175 11.2311 96.576H11.211Z" fill="#DFB1F3"/>
<path d="M7.07789 89.5658L13.076 89.5055L8.38182 85.7694L8.96357 84.042L15.8644 86.4122L15.423 87.6777L10.6888 86.0506L14.8212 89.4252L14.4 90.6505L9.08394 90.7509L13.8182 92.3779L13.3769 93.6433L6.47607 91.2731L7.05783 89.5658H7.07789Z" fill="#DFB1F3"/>
<path d="M10.3683 80.6273L16.3464 81.0089L11.9531 76.9313L12.6753 75.2642L19.3755 78.1365L18.8539 79.3819L14.24 77.3933L18.1117 81.0692L17.6102 82.2543L12.2941 81.953L16.9081 83.9415L16.3865 85.1668L9.68628 82.2944L10.3884 80.6473L10.3683 80.6273Z" fill="#DFB1F3"/>
<path d="M14.1199 72.3315L20.6596 75.5454L20.0778 76.7506L13.5181 73.5367L14.0998 72.3315H14.1199Z" fill="#DFB1F3"/>
<path d="M15.7044 69.2382L21.9432 69.0976L17.1889 66.5065L17.8308 65.3214L24.2301 68.8164L23.4678 70.2425L17.3694 70.4032L22.0034 72.9341L21.3614 74.0992L14.9622 70.6041L15.7044 69.2382Z" fill="#DFB1F3"/>
<path d="M27.8214 63.0114L26.4372 62.2883L26.6177 62.228C26.8384 62.449 26.9989 62.7101 27.0992 63.0315C27.1794 63.3529 27.1995 63.6742 27.1393 64.0358C27.0791 64.3773 26.9387 64.7187 26.7581 65.02C26.3971 65.6026 25.9357 66.0043 25.394 66.2654C24.8524 66.5265 24.2506 66.6069 23.6087 66.5466C22.9667 66.4864 22.3448 66.2453 21.743 65.8637C21.1212 65.482 20.6397 65.02 20.2987 64.4576C19.9576 63.8952 19.7771 63.3328 19.7771 62.7101C19.7771 62.0874 19.9576 61.4848 20.3187 60.8822C20.74 60.1993 21.2816 59.7574 21.9436 59.5364C22.6056 59.3155 23.3077 59.3556 24.05 59.6168L23.3679 60.8421C22.9266 60.6814 22.5254 60.6613 22.1643 60.7818C21.8032 60.9023 21.5023 61.1434 21.2816 61.5049C21.0409 61.8866 20.9406 62.2883 20.9607 62.6699C21.0008 63.0516 21.1412 63.4131 21.402 63.7546C21.6628 64.0961 22.0038 64.3974 22.4451 64.6585C22.8664 64.9196 23.2877 65.1004 23.709 65.2008C24.1302 65.2812 24.5114 65.2611 24.8725 65.1205C25.2335 64.9799 25.5345 64.7187 25.7752 64.3371C25.9557 64.0559 26.056 63.7546 26.056 63.4734C26.056 63.1922 25.9958 62.911 25.8554 62.6498C25.715 62.3887 25.5144 62.1477 25.2536 61.9468L24.3108 63.4533L23.408 62.8909L25.053 60.2595L28.2426 62.2481L27.7812 62.9712L27.8214 63.0114Z" fill="#DFB1F3"/>
<path d="M38.7942 46.902C38.9547 47.364 38.9747 47.826 38.8544 48.308C38.734 48.7901 38.4732 49.2521 38.0921 49.694C37.6908 50.1359 37.2696 50.4573 36.8282 50.6381C36.3669 50.8189 35.9055 50.859 35.4441 50.7586C34.9827 50.6582 34.5213 50.4171 34.1 50.0556L30.5493 46.9823L31.432 45.978L34.9827 49.0713C35.3839 49.4128 35.765 49.5735 36.1462 49.5534C36.5273 49.5333 36.8884 49.3325 37.2295 48.9508C37.5705 48.5692 37.7109 48.1875 37.6908 47.7858C37.6708 47.4041 37.4501 47.0225 37.0489 46.681L33.4982 43.5877L34.3809 42.5633L37.9316 45.6365C38.3528 45.9981 38.6537 46.4199 38.8142 46.8819L38.7942 46.902Z" fill="#DFB1F3"/>
<path d="M38.7743 38.4054C39.1956 38.2447 39.6169 38.2045 40.0181 38.2849C40.4193 38.3652 40.8004 38.5862 41.1214 38.9075C41.4624 39.249 41.6831 39.6106 41.7834 40.0123C41.8837 40.414 41.8636 40.8359 41.7032 41.2577C41.5427 41.6795 41.2819 42.1013 40.8807 42.503L39.8576 43.5676L41.7433 45.3955L40.8205 46.3596L35.5847 41.2778L37.5506 39.249C37.9519 38.8473 38.3531 38.5661 38.7743 38.4054ZM40.5397 40.7957C40.5597 40.4743 40.4393 40.1931 40.1585 39.9119C39.8777 39.6507 39.5968 39.5302 39.2758 39.5704C38.9749 39.6106 38.654 39.7914 38.333 40.1127L37.35 41.1371L39.0351 42.7642L40.0181 41.7397C40.339 41.4184 40.5196 41.097 40.5397 40.7756V40.7957Z" fill="#DFB1F3"/>
<path d="M48.9648 37.6622C48.9046 38.3652 48.5436 39.0281 47.9217 39.5905C47.4001 40.0726 46.8384 40.3538 46.2366 40.4542C45.6348 40.5547 45.033 40.4944 44.4312 40.2735C43.8293 40.0525 43.2877 39.6508 42.8063 39.1285C42.3047 38.5862 41.9838 38.0238 41.8032 37.4011C41.6227 36.7784 41.6026 36.1758 41.7631 35.5732C41.9236 34.9706 42.2646 34.4484 42.7862 33.9663C43.388 33.424 44.03 33.1227 44.7321 33.1026C45.4342 33.0825 46.1162 33.3034 46.7782 33.7855L45.7953 34.7898C45.3941 34.5086 45.0129 34.368 44.6318 34.368C44.2506 34.368 43.8895 34.5287 43.5686 34.8099C43.2275 35.1112 43.0269 35.4728 42.9667 35.8343C42.9066 36.216 42.9667 36.5976 43.1072 36.9994C43.2677 37.4011 43.5284 37.7827 43.8695 38.1443C44.2105 38.5259 44.5716 38.8071 44.9527 38.9879C45.3339 39.1888 45.715 39.2491 46.0962 39.229C46.4773 39.2089 46.8384 39.008 47.1594 38.7067C47.5004 38.3853 47.681 38.0439 47.701 37.622C47.7211 37.2203 47.6007 36.7784 47.3199 36.3365L48.4031 35.4326C48.8645 36.1557 49.0651 36.8788 49.0049 37.602L48.9648 37.6622Z" fill="#DFB1F3"/>
<path d="M51.7331 35.6334C51.1313 35.7339 50.5496 35.6334 49.9678 35.3723C49.3861 35.1112 48.8444 34.6693 48.363 34.0667C47.8615 33.4641 47.5405 32.8414 47.4001 32.2187C47.2597 31.596 47.2797 31.0135 47.5004 30.431C47.721 29.8686 48.1022 29.3464 48.6639 28.9045C49.2256 28.4625 49.8073 28.1813 50.4091 28.101C51.011 28.0206 51.5927 28.101 52.1745 28.3621C52.7562 28.6232 53.2778 29.0651 53.7793 29.6878C54.2808 30.2904 54.5817 30.9131 54.7422 31.5358C54.8826 32.1585 54.8425 32.741 54.6419 33.3034C54.4212 33.8658 54.0401 34.3881 53.4784 34.83C52.9167 35.2719 52.335 35.5531 51.7532 35.6535L51.7331 35.6334ZM53.4182 32.9619C53.5386 32.6004 53.5185 32.2187 53.4182 31.7969C53.2979 31.3751 53.0571 30.9734 52.7161 30.5315C52.3751 30.1096 51.9939 29.7883 51.6328 29.5874C51.2517 29.3865 50.8705 29.2861 50.4894 29.3263C50.1082 29.3664 49.7472 29.507 49.4061 29.7883C49.0651 30.0695 48.8444 30.3708 48.7441 30.7323C48.6238 31.0939 48.6438 31.4956 48.7441 31.8973C48.8645 32.3192 49.1052 32.741 49.4462 33.1628C49.7873 33.5846 50.1484 33.906 50.5295 34.1069C50.9107 34.3077 51.2918 34.3881 51.6529 34.368C52.034 34.3278 52.3751 34.1872 52.7161 33.906C53.0571 33.6248 53.2778 33.3034 53.3982 32.9418L53.4182 32.9619Z" fill="#DFB1F3"/>
<path d="M54.161 24.847L59.0557 28.3019L57.4308 22.517L58.9153 21.4725L63.1079 27.4382L62.0046 28.2215L59.1159 24.1239L60.5001 29.2861L59.4569 30.0293L55.0837 26.9963L57.9724 31.0939L56.8892 31.8572L52.6965 25.8915L54.161 24.847Z" fill="#DFB1F3"/>
<path d="M62.0641 19.5241L66.6981 23.3405L65.5146 17.4552L67.0793 16.5111L70.8306 22.7781L69.6671 23.4811L67.0793 19.1826L68.0823 24.4252L66.979 25.0881L62.8465 21.7336L65.4343 26.0321L64.2909 26.7151L60.5396 20.4481L62.0842 19.5241H62.0641Z" fill="#DFB1F3"/>
<path d="M69.968 15.0046L73.3983 21.4524L72.2148 22.075L68.7844 15.6273L69.968 15.0046Z" fill="#DFB1F3"/>
<path d="M73.017 13.4378L78.1725 16.9731L75.8255 12.092L77.0291 11.5095L80.1786 18.0979L78.7342 18.8009L73.699 15.3661L75.9859 20.1266L74.7823 20.7092L71.6328 14.1208L73.037 13.4579L73.017 13.4378Z" fill="#DFB1F3"/>
<path d="M86.4978 15.4666L85.7957 14.0806L85.9762 14.1409C86.0364 14.4623 85.9963 14.7636 85.896 15.0649C85.7957 15.3662 85.5951 15.6474 85.3543 15.8884C85.0936 16.1295 84.7926 16.3303 84.4516 16.4709C83.8297 16.7321 83.2079 16.7923 82.6061 16.6919C82.0042 16.5915 81.4626 16.3102 81.0012 15.8683C80.5198 15.4465 80.1587 14.8841 79.8778 14.2213C79.597 13.5584 79.4967 12.8955 79.5368 12.2528C79.5769 11.61 79.7775 11.0275 80.1386 10.5253C80.4997 10.0232 81.0012 9.64152 81.6432 9.36031C82.3854 9.05901 83.0875 9.01884 83.7495 9.21971C84.4115 9.44066 84.9531 9.86247 85.4145 10.5253L84.1507 11.1078C83.8899 10.7262 83.569 10.4852 83.2079 10.3646C82.8468 10.2441 82.4656 10.2642 82.0644 10.4249C81.6432 10.6057 81.3222 10.8467 81.1416 11.1882C80.941 11.5096 80.8608 11.8912 80.8809 12.3331C80.8809 12.7549 81.0012 13.2169 81.1818 13.6789C81.3623 14.1409 81.603 14.5426 81.9039 14.8439C82.1848 15.1653 82.5258 15.3662 82.8869 15.4465C83.248 15.5269 83.6492 15.5068 84.0705 15.326C84.3914 15.2055 84.6322 15.0247 84.8127 14.7837C84.9933 14.5627 85.0936 14.3016 85.1337 14.0003C85.1738 13.699 85.1337 13.3977 85.0534 13.0763L83.4085 13.7392L83.0073 12.7549L85.8759 11.5899L87.3002 15.085L86.5178 15.4064L86.4978 15.4666Z" fill="#DFB1F3"/>
<path d="M104.813 8.85813C104.673 9.32012 104.412 9.72185 104.051 10.0231C103.69 10.3244 103.188 10.5655 102.626 10.7061C102.065 10.8467 101.523 10.8467 101.042 10.7262C100.56 10.6057 100.159 10.3646 99.838 10.0231C99.5171 9.66159 99.2964 9.21969 99.156 8.67735L98.0928 4.09762L99.3967 3.79632L100.46 8.37605C100.58 8.87821 100.801 9.23977 101.122 9.44064C101.443 9.6415 101.864 9.70176 102.366 9.58124C102.867 9.46072 103.208 9.23977 103.409 8.91839C103.609 8.57692 103.65 8.17519 103.529 7.65294L102.466 3.07321L103.77 2.77191L104.833 7.35164C104.953 7.89398 104.953 8.39614 104.833 8.87821L104.813 8.85813Z" fill="#DFB1F3"/>
<path d="M109.808 1.96844C110.249 2.08896 110.61 2.28982 110.871 2.61121C111.152 2.91251 111.332 3.31424 111.412 3.77623C111.493 4.2583 111.453 4.68012 111.312 5.06177C111.152 5.44341 110.891 5.76479 110.51 6.02592C110.129 6.28704 109.667 6.44774 109.125 6.54817L107.661 6.80929L108.102 9.40045L106.778 9.62141L105.535 2.43043L108.303 1.94835C108.865 1.84792 109.346 1.86801 109.787 1.96844H109.808ZM109.828 4.92116C110.028 4.68012 110.108 4.37882 110.028 3.99718C109.968 3.61554 109.787 3.35441 109.527 3.19372C109.266 3.03303 108.885 3.01294 108.443 3.09329L107.039 3.33432L107.44 5.64427L108.845 5.40324C109.286 5.32289 109.627 5.1622 109.828 4.92116Z" fill="#DFB1F3"/>
<path d="M118.454 7.35167C117.973 7.89401 117.331 8.21539 116.468 8.29574C115.766 8.37608 115.144 8.29574 114.602 8.01453C114.041 7.7534 113.599 7.33158 113.258 6.78925C112.917 6.24691 112.697 5.62423 112.616 4.90111C112.536 4.178 112.616 3.51514 112.817 2.91255C113.038 2.30995 113.379 1.80779 113.84 1.40606C114.322 1.02441 114.903 0.783376 115.605 0.70303C116.408 0.602598 117.11 0.76329 117.692 1.14493C118.273 1.52658 118.695 2.12917 118.956 2.91255L117.571 3.15359C117.411 2.6916 117.17 2.35013 116.869 2.12917C116.568 1.90822 116.187 1.80779 115.746 1.86805C115.284 1.92831 114.923 2.089 114.643 2.35013C114.362 2.61125 114.181 2.95272 114.081 3.37454C113.981 3.79635 113.96 4.25835 114.021 4.76051C114.081 5.26267 114.201 5.70458 114.402 6.08622C114.602 6.46786 114.863 6.74907 115.184 6.94994C115.525 7.1508 115.906 7.21106 116.348 7.17089C116.809 7.11063 117.17 6.92985 117.431 6.62856C117.692 6.30717 117.832 5.88535 117.872 5.3631L119.277 5.28276C119.216 6.14648 118.956 6.84951 118.494 7.37176L118.454 7.35167Z" fill="#DFB1F3"/>
<path d="M121.884 7.35161C121.343 7.0704 120.921 6.66867 120.62 6.10624C120.32 5.54382 120.139 4.88097 120.099 4.09759C120.059 3.31422 120.159 2.63127 120.4 2.02868C120.641 1.42608 121.022 0.98418 121.523 0.642709C122.025 0.301238 122.647 0.120459 123.369 0.0802864C124.091 0.0401133 124.713 0.160632 125.254 0.441844C125.796 0.723055 126.217 1.14487 126.518 1.68721C126.819 2.22954 127 2.91249 127.04 3.69586C127.08 4.47924 126.98 5.16218 126.739 5.74469C126.498 6.3272 126.117 6.78919 125.616 7.13066C125.114 7.47213 124.512 7.65291 123.79 7.69308C123.068 7.73325 122.446 7.61273 121.904 7.33152L121.884 7.35161ZM124.813 6.1665C125.114 5.94555 125.335 5.62417 125.475 5.22244C125.616 4.82071 125.676 4.33863 125.636 3.79629C125.616 3.23387 125.495 2.77188 125.315 2.39024C125.134 2.00859 124.873 1.70729 124.552 1.50643C124.231 1.30556 123.85 1.22522 123.409 1.2453C122.988 1.26539 122.606 1.38591 122.306 1.62695C122.005 1.86799 121.784 2.16928 121.644 2.57102C121.503 2.97275 121.443 3.45482 121.483 4.01725C121.503 4.55958 121.624 5.04166 121.804 5.4233C121.985 5.80495 122.245 6.10624 122.566 6.28702C122.887 6.4678 123.268 6.56823 123.71 6.52806C124.151 6.50797 124.512 6.38745 124.813 6.14642V6.1665Z" fill="#DFB1F3"/>
<path d="M130.149 0.0201535L132.075 5.70464L134.162 0.0804131H135.987L135.867 7.41199H134.523L134.603 2.37028L132.677 7.35174H131.393L129.648 2.28993L129.568 7.31156H128.224L128.344 -0.0200195H130.149V0.0201535Z" fill="#DFB1F3"/>
<path d="M139.659 0.361492L141.183 6.1665L143.651 0.702963L145.456 0.863655L144.834 8.13498L143.49 8.01446L143.912 3.01291L141.645 7.85377L140.361 7.75333L138.957 2.61118L138.535 7.61273L137.211 7.49221L137.833 0.220886L139.619 0.381578L139.659 0.361492Z" fill="#DFB1F3"/>
<path d="M148.706 1.32568L147.723 8.55683L146.399 8.37605L147.382 1.1449L148.706 1.32568Z" fill="#DFB1F3"/>
<path d="M152.096 1.84792L154.203 7.73327L155.166 2.39026L156.49 2.6313L155.206 9.82227L153.621 9.54106L151.535 3.8164L150.612 8.99873L149.308 8.75769L150.592 1.56671L152.116 1.84792H152.096Z" fill="#DFB1F3"/>
<path d="M161.865 11.389L162.106 9.84239L162.206 10.0031C162.066 10.2843 161.865 10.5253 161.585 10.7061C161.304 10.8869 161.003 11.0074 160.662 11.0476C160.321 11.0877 159.96 11.0677 159.599 10.9873C158.937 10.8266 158.395 10.5253 157.994 10.0834C157.593 9.64152 157.292 9.09918 157.171 8.4765C157.051 7.85382 157.051 7.19096 157.231 6.48794C157.392 5.78491 157.693 5.18231 158.094 4.68015C158.495 4.17799 158.997 3.83651 159.579 3.63565C160.16 3.43478 160.802 3.4147 161.484 3.57539C162.267 3.75617 162.848 4.13781 163.27 4.70024C163.671 5.26266 163.871 5.9456 163.851 6.72897L162.487 6.46785C162.487 6.00586 162.387 5.62422 162.166 5.30283C161.946 5.00153 161.625 4.78058 161.203 4.68015C160.762 4.57972 160.361 4.5998 160 4.74041C159.659 4.9011 159.358 5.14214 159.117 5.5037C158.876 5.86525 158.696 6.28707 158.576 6.76915C158.455 7.27131 158.415 7.71321 158.475 8.13503C158.515 8.55685 158.676 8.91841 158.917 9.2197C159.157 9.521 159.498 9.72187 159.94 9.8223C160.281 9.90264 160.582 9.90264 160.862 9.8223C161.143 9.74195 161.384 9.60135 161.585 9.3804C161.785 9.15944 161.946 8.89832 162.066 8.57693L160.341 8.15512L160.582 7.1307L163.591 7.87391L162.708 11.5297L161.885 11.3288L161.865 11.389Z" fill="#DFB1F3"/>
<path d="M180.541 16.7722C180.16 17.0735 179.719 17.2342 179.238 17.2744C178.736 17.3146 178.235 17.2141 177.673 16.9731C177.131 16.7521 176.69 16.4308 176.369 16.0692C176.048 15.6876 175.867 15.2657 175.807 14.7837C175.747 14.3016 175.827 13.7994 176.048 13.2772L177.853 8.93848L179.077 9.46073L177.272 13.7994C177.071 14.2815 177.051 14.7033 177.191 15.0649C177.332 15.4264 177.653 15.7076 178.114 15.9085C178.576 16.1094 178.997 16.1295 179.358 15.9688C179.719 15.8081 180 15.5068 180.2 15.0247L182.006 10.686L183.25 11.2083L181.444 15.5469C181.224 16.0692 180.923 16.4709 180.541 16.7722Z" fill="#DFB1F3"/>
<path d="M188.646 14.1208C188.927 14.4623 189.108 14.8439 189.148 15.2657C189.188 15.6876 189.108 16.0893 188.907 16.5111C188.687 16.9329 188.406 17.2744 188.065 17.4953C187.704 17.7163 187.302 17.8167 186.861 17.8167C186.42 17.8167 185.938 17.6761 185.437 17.4351L184.113 16.7923L182.949 19.1625L181.746 18.58L184.935 12.0117L187.463 13.237C187.964 13.478 188.366 13.7793 188.646 14.1409V14.1208ZM186.941 16.5513C187.242 16.4709 187.483 16.2701 187.663 15.9085C187.824 15.567 187.844 15.2456 187.724 14.9644C187.603 14.6832 187.322 14.4422 186.901 14.2413L185.637 13.6186L184.614 15.7277L185.898 16.3504C186.319 16.5513 186.66 16.6115 186.981 16.5513H186.941Z" fill="#DFB1F3"/>
<path d="M192.517 23.5816C191.815 23.7423 191.093 23.6017 190.351 23.1999C189.749 22.8585 189.288 22.4166 189.007 21.8742C188.706 21.3319 188.586 20.7293 188.626 20.1066C188.666 19.4638 188.866 18.8412 189.207 18.1984C189.568 17.5556 190.01 17.0735 190.531 16.6919C191.053 16.3303 191.635 16.1295 192.237 16.0893C192.858 16.0491 193.46 16.2098 194.082 16.5513C194.784 16.953 195.266 17.4753 195.506 18.1381C195.747 18.801 195.747 19.5241 195.506 20.3075L194.243 19.6848C194.383 19.2228 194.383 18.801 194.263 18.4394C194.142 18.0779 193.881 17.7766 193.5 17.5757C193.099 17.3547 192.718 17.2744 192.337 17.3146C191.956 17.3748 191.595 17.5355 191.274 17.8167C190.953 18.098 190.672 18.4595 190.411 18.9014C190.17 19.3433 190.01 19.7852 189.95 20.1869C189.889 20.6088 189.93 20.9904 190.09 21.352C190.251 21.7135 190.531 21.9947 190.913 22.2157C191.314 22.4366 191.715 22.4969 192.096 22.3965C192.497 22.296 192.858 22.0349 193.199 21.6332L194.383 22.3764C193.841 23.0392 193.22 23.4611 192.517 23.6217V23.5816Z" fill="#DFB1F3"/>
<path d="M195.306 25.5701C195.025 25.0278 194.925 24.4453 195.005 23.8025C195.085 23.1597 195.326 22.517 195.747 21.8742C196.168 21.2113 196.65 20.7092 197.191 20.3878C197.733 20.0664 198.315 19.9057 198.917 19.9258C199.518 19.9459 200.12 20.1668 200.742 20.5485C201.344 20.9301 201.785 21.4122 202.046 21.9546C202.307 22.4969 202.407 23.0794 202.347 23.7222C202.287 24.3649 202.026 25.0077 201.585 25.6706C201.163 26.3334 200.682 26.8155 200.14 27.157C199.599 27.4783 199.017 27.639 198.415 27.6189C197.813 27.5989 197.211 27.3779 196.61 26.9963C196.008 26.6146 195.566 26.1526 195.286 25.6103L195.306 25.5701ZM198.355 26.3334C198.736 26.3334 199.097 26.2129 199.458 25.9518C199.819 25.7107 200.14 25.3492 200.441 24.8872C200.742 24.4252 200.923 23.9833 201.003 23.5414C201.083 23.0995 201.043 22.7379 200.903 22.3764C200.762 22.0349 200.501 21.7336 200.12 21.4926C199.759 21.2515 199.378 21.1511 198.997 21.1511C198.616 21.1511 198.255 21.2917 197.893 21.5327C197.532 21.7738 197.211 22.1353 196.911 22.5973C196.61 23.0593 196.429 23.5012 196.349 23.923C196.269 24.3448 196.309 24.7265 196.469 25.088C196.63 25.4295 196.87 25.7308 197.231 25.9518C197.593 26.1928 197.974 26.3133 198.355 26.2932V26.3334Z" fill="#DFB1F3"/>
<path d="M206.259 24.4854L204.494 30.2302L209.469 26.8958L210.933 27.9805L206.58 33.8457L205.497 33.0423L208.486 29.025L204.032 31.9375L203.009 31.1742L204.534 26.0723L201.545 30.0896L200.481 29.2861L204.835 23.4208L206.279 24.5055L206.259 24.4854Z" fill="#DFB1F3"/>
<path d="M213.781 30.3507L211.615 35.9548L216.831 32.982L218.215 34.1671L213.44 39.6909L212.417 38.8071L215.687 35.0108L211.033 37.6019L210.07 36.7583L211.956 31.7768L208.686 35.5732L207.683 34.6894L212.457 29.1656L213.822 30.3507H213.781Z" fill="#DFB1F3"/>
<path d="M220.542 36.457L215.507 41.7398L214.544 40.8158L219.579 35.533L220.542 36.457Z" fill="#DFB1F3"/>
<path d="M222.989 38.8674L221.244 44.8733L225.135 41.1171L226.078 42.0812L220.822 47.143L219.699 45.978L221.364 40.1128L217.573 43.7685L216.65 42.8044L221.906 37.7426L222.989 38.8674Z" fill="#DFB1F3"/>
<path d="M225.256 52.3053L226.36 51.2005V51.4014C226.079 51.542 225.778 51.6223 225.437 51.6022C225.116 51.6022 224.795 51.5018 224.474 51.3411C224.153 51.1804 223.892 50.9595 223.651 50.6782C223.21 50.156 222.949 49.5936 222.869 48.991C222.789 48.3884 222.869 47.7858 223.13 47.2033C223.391 46.6208 223.792 46.0985 224.334 45.6164C224.895 45.1545 225.477 44.8331 226.099 44.6724C226.721 44.5117 227.323 44.5117 227.924 44.6925C228.506 44.8732 229.028 45.2348 229.489 45.7571C230.011 46.3596 230.271 47.0225 230.271 47.7054C230.271 48.4085 230.031 49.0713 229.549 49.694L228.586 48.6897C228.867 48.308 229.008 47.9465 229.008 47.5648C229.008 47.1832 228.867 46.8216 228.586 46.5003C228.285 46.1588 227.944 45.9378 227.583 45.8575C227.202 45.7771 226.821 45.8173 226.42 45.9579C226.019 46.0985 225.617 46.3396 225.236 46.681C224.855 47.0024 224.554 47.364 224.354 47.7255C224.153 48.0871 224.053 48.4687 224.073 48.8504C224.093 49.232 224.253 49.5936 224.554 49.9351C224.775 50.1962 225.016 50.377 225.296 50.4774C225.577 50.5778 225.858 50.5979 226.139 50.5376C226.42 50.4774 226.721 50.3569 226.982 50.1761L225.838 48.8303L226.641 48.1473L228.647 50.5176L225.778 52.9681L225.216 52.3253L225.256 52.3053Z" fill="#DFB1F3"/>
<path d="M237.313 67.6916C236.831 67.6916 236.37 67.5911 235.969 67.33C235.547 67.0689 235.186 66.6872 234.865 66.1851C234.544 65.6829 234.384 65.1807 234.344 64.6786C234.304 64.1764 234.404 63.7345 234.645 63.3127C234.885 62.8909 235.247 62.5293 235.728 62.2481L239.74 59.7975L240.442 60.9425L236.43 63.393C235.989 63.6742 235.708 63.9956 235.628 64.3773C235.527 64.7589 235.628 65.1606 235.888 65.6026C236.149 66.0445 236.47 66.3056 236.851 66.3859C237.233 66.4663 237.634 66.3859 238.095 66.1047L242.107 63.6542L242.809 64.7991L238.797 67.2496C238.316 67.5509 237.834 67.6915 237.353 67.7116L237.313 67.6916Z" fill="#DFB1F3"/>
<path d="M245.417 70.2426C245.437 70.6845 245.357 71.1063 245.157 71.4477C244.956 71.7892 244.635 72.0905 244.234 72.3316C243.813 72.5525 243.391 72.6529 242.97 72.6329C242.549 72.6128 242.168 72.4521 241.806 72.1909C241.445 71.9298 241.144 71.5281 240.864 71.0259L240.162 69.7203L237.855 70.9657L237.213 69.7806L243.632 66.3257L244.956 68.8164C245.217 69.3186 245.377 69.7806 245.397 70.2426H245.417ZM242.609 71.2067C242.89 71.3272 243.211 71.2871 243.552 71.1063C243.893 70.9255 244.093 70.6845 244.134 70.3631C244.174 70.0417 244.113 69.7002 243.893 69.2985L243.231 68.0531L241.165 69.1579L241.827 70.4032C242.047 70.805 242.288 71.0661 242.589 71.1866L242.609 71.2067Z" fill="#DFB1F3"/>
<path d="M243.03 80.1653C242.368 79.8841 241.866 79.3618 241.505 78.5785C241.204 77.9357 241.104 77.313 241.184 76.7104C241.264 76.0877 241.505 75.5454 241.906 75.0432C242.308 74.5411 242.829 74.1393 243.491 73.838C244.153 73.5368 244.795 73.3761 245.437 73.3962C246.079 73.3962 246.661 73.5769 247.182 73.8983C247.704 74.2197 248.105 74.7219 248.406 75.3445C248.747 76.0877 248.827 76.7908 248.627 77.4536C248.426 78.1165 248.005 78.699 247.343 79.2012L246.681 77.9558C247.062 77.6545 247.323 77.3331 247.423 76.9515C247.543 76.5899 247.503 76.1882 247.323 75.8065C247.122 75.3847 246.861 75.0834 246.52 74.9227C246.179 74.7419 245.798 74.6817 245.377 74.7018C244.956 74.7419 244.514 74.8625 244.053 75.0834C243.592 75.3044 243.21 75.5454 242.909 75.8467C242.609 76.148 242.428 76.4895 242.348 76.8711C242.268 77.2528 242.328 77.6344 242.508 78.0562C242.709 78.478 242.99 78.7592 243.371 78.8999C243.752 79.0405 244.193 79.0606 244.715 78.9199L245.236 80.2256C244.394 80.4465 243.652 80.4264 242.99 80.1452L243.03 80.1653Z" fill="#DFB1F3"/>
<path d="M244.113 83.3992C244.213 82.7966 244.474 82.2744 244.895 81.7923C245.317 81.3303 245.899 80.9486 246.621 80.6674C247.363 80.3862 248.045 80.2657 248.667 80.3059C249.309 80.346 249.85 80.567 250.332 80.9486C250.813 81.3303 251.174 81.8525 251.435 82.5154C251.696 83.1783 251.776 83.821 251.676 84.4236C251.576 85.0262 251.315 85.5485 250.894 86.0104C250.472 86.4724 249.87 86.8541 249.148 87.1353C248.426 87.4165 247.744 87.537 247.102 87.4969C246.46 87.4567 245.919 87.2357 245.437 86.8541C244.956 86.4724 244.595 85.9502 244.334 85.2873C244.073 84.6245 243.993 83.9817 244.073 83.3791L244.113 83.3992ZM246.159 85.8096C246.46 86.0305 246.841 86.1511 247.263 86.1511C247.684 86.1511 248.165 86.0707 248.667 85.8698C249.188 85.669 249.59 85.4079 249.911 85.1266C250.212 84.8253 250.412 84.4839 250.492 84.1223C250.573 83.7407 250.532 83.359 250.372 82.9573C250.212 82.5556 249.971 82.2543 249.67 82.0333C249.349 81.8124 248.988 81.7119 248.546 81.6918C248.105 81.6718 247.644 81.7722 247.122 81.9931C246.621 82.194 246.199 82.435 245.899 82.7363C245.598 83.0376 245.397 83.3791 245.317 83.7407C245.237 84.1022 245.277 84.504 245.437 84.9057C245.598 85.3074 245.838 85.6288 246.139 85.8498L246.159 85.8096Z" fill="#DFB1F3"/>
<path d="M253.641 88.9632L248.867 92.5788L254.865 92.7997L255.407 94.5272L248.446 96.7166L248.044 95.4311L252.819 93.9246L247.503 93.6835L247.122 92.4583L251.334 89.2043L246.56 90.7107L246.159 89.4453L253.12 87.2559L253.661 88.9632H253.641Z" fill="#DFB1F3"/>
<path d="M256.309 98.1427L251.274 101.397L257.232 102.06L257.653 103.827L250.552 105.494L250.251 104.189L255.126 103.044L249.83 102.401L249.529 101.156L253.982 98.2231L249.108 99.368L248.807 98.0624L255.908 96.3952L256.329 98.1427H256.309Z" fill="#DFB1F3"/>
<path d="M258.216 107.061L251.034 108.387L250.793 107.081L257.975 105.755L258.216 107.061Z" fill="#DFB1F3"/>
<path d="M258.777 110.436L253.842 114.272L259.198 113.529L259.379 114.875L252.157 115.879L251.937 114.272L256.731 110.516L251.515 111.239L251.335 109.913L258.556 108.909L258.777 110.456V110.436Z" fill="#DFB1F3"/>
<path d="M252.739 122.688L254.284 122.447L254.164 122.608C253.843 122.568 253.562 122.447 253.301 122.247C253.04 122.046 252.84 121.785 252.679 121.463C252.519 121.142 252.438 120.8 252.398 120.439C252.338 119.756 252.459 119.153 252.759 118.631C253.06 118.089 253.482 117.667 254.023 117.345C254.585 117.024 255.207 116.823 255.929 116.763C256.651 116.703 257.313 116.803 257.915 117.024C258.517 117.245 258.998 117.627 259.379 118.109C259.74 118.591 259.961 119.193 260.021 119.896C260.082 120.7 259.921 121.383 259.52 121.945C259.119 122.508 258.537 122.909 257.775 123.13L257.594 121.744C258.035 121.604 258.376 121.383 258.597 121.082C258.818 120.78 258.918 120.399 258.878 119.957C258.838 119.495 258.697 119.133 258.437 118.832C258.176 118.551 257.855 118.35 257.434 118.229C257.012 118.109 256.571 118.069 256.069 118.109C255.568 118.149 255.127 118.249 254.725 118.43C254.344 118.611 254.043 118.852 253.843 119.193C253.642 119.515 253.562 119.917 253.582 120.358C253.602 120.7 253.702 120.981 253.863 121.222C254.023 121.463 254.244 121.644 254.505 121.764C254.765 121.885 255.066 121.965 255.407 121.965L255.267 120.198L256.33 120.117L256.571 123.211L252.82 123.512L252.759 122.668L252.739 122.688Z" fill="#DFB1F3"/>
<path d="M253.501 142.172C253.1 141.891 252.799 141.53 252.619 141.088C252.438 140.626 252.358 140.103 252.398 139.521C252.438 138.938 252.599 138.416 252.839 137.994C253.1 137.573 253.441 137.251 253.883 137.05C254.324 136.849 254.825 136.769 255.387 136.809L260.061 137.171L259.961 138.497L255.287 138.135C254.765 138.095 254.364 138.195 254.063 138.456C253.762 138.697 253.602 139.079 253.562 139.601C253.521 140.103 253.622 140.505 253.883 140.806C254.143 141.108 254.524 141.268 255.046 141.309L259.72 141.67L259.62 143.016L254.946 142.654C254.384 142.614 253.903 142.454 253.501 142.192V142.172Z" fill="#DFB1F3"/>
<path d="M258.577 148.982C258.336 149.363 258.035 149.645 257.654 149.805C257.273 149.966 256.851 150.026 256.39 149.966C255.909 149.906 255.507 149.745 255.186 149.464C254.865 149.203 254.645 148.841 254.504 148.419C254.364 147.997 254.344 147.495 254.424 146.933L254.625 145.467L252.017 145.125L252.197 143.799L259.419 144.764L259.038 147.556C258.958 148.118 258.797 148.58 258.557 148.962L258.577 148.982ZM255.748 148.118C255.909 148.379 256.189 148.54 256.571 148.6C256.952 148.66 257.253 148.56 257.473 148.359C257.694 148.138 257.834 147.817 257.895 147.355L258.075 145.949L255.748 145.627L255.568 147.033C255.507 147.495 255.568 147.857 255.728 148.118H255.748Z" fill="#DFB1F3"/>
<path d="M250.834 155.65C250.473 155.048 250.352 154.305 250.513 153.461C250.653 152.778 250.914 152.216 251.355 151.754C251.797 151.292 252.298 150.99 252.92 150.83C253.542 150.669 254.204 150.649 254.906 150.79C255.608 150.93 256.23 151.191 256.752 151.573C257.273 151.955 257.634 152.437 257.875 152.999C258.096 153.582 258.156 154.204 258.015 154.887C257.855 155.691 257.514 156.313 256.972 156.735C256.431 157.157 255.749 157.398 254.906 157.398L255.107 155.992C255.588 155.992 255.989 155.851 256.29 155.63C256.591 155.389 256.792 155.068 256.872 154.626C256.952 154.184 256.912 153.782 256.752 153.441C256.571 153.099 256.31 152.818 255.949 152.597C255.588 152.376 255.147 152.216 254.645 152.115C254.144 152.015 253.682 152.015 253.281 152.075C252.88 152.135 252.519 152.316 252.238 152.577C251.957 152.838 251.777 153.18 251.676 153.642C251.596 154.084 251.656 154.485 251.877 154.827C252.098 155.168 252.459 155.43 252.94 155.63L252.599 156.996C251.797 156.695 251.215 156.233 250.834 155.61V155.65Z" fill="#DFB1F3"/>
<path d="M249.83 158.904C250.251 158.483 250.773 158.201 251.395 158.061C252.017 157.94 252.699 157.96 253.461 158.161C254.223 158.362 254.845 158.663 255.327 159.065C255.808 159.467 256.129 159.969 256.31 160.552C256.47 161.134 256.47 161.777 256.31 162.48C256.129 163.183 255.828 163.745 255.407 164.167C254.986 164.589 254.444 164.87 253.822 164.991C253.2 165.111 252.498 165.071 251.736 164.89C250.974 164.689 250.352 164.388 249.87 163.986C249.389 163.565 249.068 163.082 248.887 162.5C248.707 161.917 248.727 161.275 248.887 160.592C249.068 159.889 249.369 159.326 249.79 158.904H249.83ZM250.071 162.058C250.191 162.42 250.432 162.721 250.773 162.982C251.114 163.243 251.555 163.444 252.077 163.565C252.619 163.705 253.1 163.745 253.521 163.685C253.943 163.625 254.304 163.464 254.584 163.223C254.865 162.982 255.066 162.641 255.166 162.199C255.266 161.777 255.267 161.395 255.146 161.034C255.026 160.672 254.785 160.371 254.444 160.11C254.103 159.849 253.662 159.648 253.12 159.507C252.598 159.366 252.117 159.326 251.696 159.387C251.274 159.447 250.913 159.608 250.633 159.849C250.352 160.11 250.151 160.431 250.051 160.853C249.95 161.275 249.95 161.676 250.071 162.018V162.058Z" fill="#DFB1F3"/>
<path d="M254.284 169.048L248.286 169.169L253.02 172.845L252.438 174.572L245.517 172.262L245.939 170.976L250.693 172.563L246.52 169.229L246.922 168.004L252.238 167.843L247.483 166.256L247.905 164.991L254.825 167.301L254.264 169.008L254.284 169.048Z" fill="#DFB1F3"/>
<path d="M251.074 178.067L245.076 177.746L249.529 181.763L248.827 183.45L242.087 180.638L242.608 179.393L247.242 181.321L243.33 177.705L243.832 176.52L249.148 176.761L244.514 174.833L245.036 173.608L251.776 176.42L251.094 178.087L251.074 178.067Z" fill="#DFB1F3"/>
<path d="M247.423 186.363L240.843 183.229L241.425 182.024L248.005 185.158L247.423 186.363Z" fill="#DFB1F3"/>
<path d="M245.899 189.436L239.66 189.657L244.435 192.188L243.813 193.373L237.373 189.958L238.136 188.532L244.234 188.291L239.58 185.82L240.202 184.635L246.641 188.05L245.919 189.416L245.899 189.436Z" fill="#DFB1F3"/>
<path d="M233.822 195.844L235.206 196.547L235.026 196.607C234.805 196.386 234.645 196.125 234.544 195.803C234.444 195.482 234.444 195.161 234.504 194.819C234.564 194.478 234.685 194.136 234.885 193.815C235.246 193.232 235.688 192.811 236.229 192.549C236.771 192.288 237.373 192.188 238.015 192.248C238.657 192.308 239.279 192.529 239.9 192.911C240.522 193.293 241.004 193.755 241.345 194.297C241.686 194.839 241.866 195.422 241.886 196.024C241.886 196.647 241.726 197.25 241.365 197.852C240.944 198.535 240.402 198.997 239.76 199.218C239.098 199.439 238.396 199.419 237.654 199.158L238.316 197.933C238.757 198.073 239.158 198.093 239.519 197.973C239.88 197.852 240.181 197.611 240.402 197.23C240.643 196.828 240.743 196.446 240.703 196.065C240.663 195.683 240.502 195.321 240.242 194.98C239.981 194.638 239.62 194.337 239.198 194.076C238.777 193.815 238.336 193.634 237.935 193.554C237.513 193.473 237.132 193.514 236.771 193.654C236.41 193.795 236.109 194.056 235.888 194.458C235.708 194.759 235.608 195.04 235.608 195.321C235.608 195.603 235.668 195.884 235.808 196.145C235.949 196.406 236.149 196.647 236.41 196.848L237.333 195.341L238.235 195.904L236.611 198.555L233.401 196.587L233.842 195.864L233.822 195.844Z" fill="#DFB1F3"/>
<path d="M223.049 212.033C222.889 211.571 222.849 211.109 222.969 210.627C223.09 210.145 223.33 209.683 223.711 209.221C224.093 208.759 224.514 208.438 224.975 208.257C225.437 208.076 225.898 208.016 226.359 208.116C226.841 208.217 227.282 208.438 227.703 208.799L231.274 211.832L230.412 212.857L226.841 209.824C226.44 209.482 226.058 209.342 225.657 209.362C225.276 209.382 224.915 209.603 224.574 209.984C224.253 210.366 224.093 210.768 224.133 211.15C224.173 211.531 224.373 211.893 224.775 212.234L228.345 215.267L227.483 216.292L223.912 213.259C223.491 212.897 223.19 212.475 223.029 212.033H223.049Z" fill="#DFB1F3"/>
<path d="M223.13 220.55C222.709 220.711 222.307 220.771 221.886 220.671C221.465 220.57 221.104 220.389 220.763 220.068C220.422 219.726 220.181 219.365 220.081 218.963C219.98 218.561 220.001 218.14 220.141 217.718C220.281 217.296 220.562 216.874 220.943 216.472L221.966 215.408L220.061 213.6L220.983 212.636L226.259 217.678L224.314 219.726C223.932 220.128 223.531 220.429 223.11 220.59L223.13 220.55ZM221.325 218.2C221.304 218.521 221.425 218.802 221.706 219.064C221.986 219.325 222.267 219.445 222.588 219.405C222.889 219.365 223.21 219.184 223.531 218.843L224.514 217.818L222.809 216.211L221.826 217.236C221.505 217.577 221.345 217.899 221.325 218.2Z" fill="#DFB1F3"/>
<path d="M212.939 221.434C213 220.711 213.341 220.068 213.962 219.485C214.464 219.003 215.026 218.702 215.627 218.602C216.229 218.501 216.831 218.541 217.433 218.762C218.035 218.983 218.576 219.365 219.058 219.887C219.559 220.409 219.9 220.992 220.081 221.615C220.261 222.237 220.302 222.84 220.141 223.422C220.001 224.025 219.66 224.567 219.138 225.049C218.536 225.612 217.894 225.893 217.212 225.933C216.51 225.953 215.828 225.732 215.146 225.27L216.129 224.246C216.53 224.527 216.911 224.648 217.313 224.648C217.694 224.648 218.055 224.487 218.376 224.186C218.717 223.864 218.917 223.523 218.978 223.141C219.038 222.76 218.978 222.378 218.817 221.976C218.657 221.574 218.396 221.193 218.055 220.831C217.714 220.47 217.353 220.188 216.972 219.988C216.59 219.807 216.209 219.726 215.828 219.767C215.447 219.807 215.086 219.988 214.765 220.289C214.424 220.61 214.243 220.972 214.223 221.374C214.203 221.775 214.324 222.217 214.624 222.659L213.541 223.563C213.06 222.84 212.859 222.117 212.919 221.414L212.939 221.434Z" fill="#DFB1F3"/>
<path d="M210.23 223.463C210.832 223.362 211.414 223.463 211.996 223.704C212.577 223.965 213.119 224.387 213.621 224.989C214.122 225.592 214.443 226.214 214.603 226.837C214.764 227.46 214.724 228.042 214.523 228.625C214.323 229.207 213.941 229.709 213.38 230.171C212.818 230.633 212.256 230.915 211.655 231.015C211.053 231.116 210.471 231.015 209.889 230.754C209.307 230.493 208.766 230.051 208.264 229.448C207.763 228.846 207.442 228.243 207.281 227.62C207.121 226.998 207.161 226.415 207.362 225.853C207.562 225.29 207.943 224.768 208.505 224.306C209.067 223.844 209.628 223.563 210.23 223.463ZM208.565 226.154C208.465 226.516 208.465 226.897 208.585 227.319C208.706 227.721 208.946 228.143 209.307 228.565C209.669 228.986 210.03 229.308 210.411 229.509C210.792 229.709 211.173 229.79 211.554 229.75C211.935 229.709 212.297 229.549 212.617 229.268C212.959 228.986 213.179 228.665 213.279 228.303C213.38 227.942 213.38 227.54 213.239 227.138C213.119 226.717 212.878 226.315 212.517 225.873C212.176 225.451 211.795 225.13 211.414 224.929C211.033 224.728 210.652 224.648 210.27 224.688C209.889 224.728 209.548 224.889 209.207 225.17C208.866 225.451 208.646 225.773 208.545 226.134L208.565 226.154Z" fill="#DFB1F3"/>
<path d="M207.924 234.269L202.989 230.854L204.674 236.619L203.19 237.684L198.917 231.758L200 230.975L202.929 235.052L201.505 229.91L202.548 229.147L206.961 232.14L204.032 228.062L205.115 227.279L209.388 233.205L207.924 234.249V234.269Z" fill="#DFB1F3"/>
<path d="M200.041 239.692L195.367 235.936L196.61 241.802L195.066 242.746L191.254 236.519L192.398 235.816L195.026 240.094L193.962 234.872L195.046 234.209L199.218 237.523L196.59 233.245L197.734 232.542L201.545 238.768L200.021 239.713L200.041 239.692Z" fill="#DFB1F3"/>
<path d="M192.257 244.272L188.746 237.865L189.91 237.222L193.42 243.629L192.257 244.272Z" fill="#DFB1F3"/>
<path d="M189.167 245.899L183.971 242.424L186.379 247.285L185.175 247.888L181.945 241.34L183.39 240.616L188.465 243.991L186.138 239.271L187.342 238.688L190.571 245.236L189.187 245.919L189.167 245.899Z" fill="#DFB1F3"/>
<path d="M175.687 244.011L176.409 245.397L176.228 245.337C176.168 245.015 176.188 244.714 176.309 244.413C176.409 244.112 176.589 243.83 176.85 243.569C177.111 243.328 177.392 243.127 177.733 242.987C178.355 242.726 178.977 242.645 179.578 242.746C180.18 242.846 180.722 243.127 181.203 243.549C181.685 243.971 182.066 244.513 182.347 245.176C182.628 245.839 182.748 246.502 182.708 247.145C182.668 247.787 182.487 248.37 182.126 248.872C181.785 249.374 181.284 249.776 180.622 250.037C179.879 250.338 179.177 250.399 178.515 250.198C177.853 249.997 177.292 249.555 176.85 248.912L178.094 248.31C178.355 248.691 178.676 248.932 179.037 249.053C179.398 249.173 179.779 249.133 180.18 248.972C180.602 248.792 180.902 248.531 181.103 248.209C181.304 247.888 181.384 247.486 181.364 247.064C181.364 246.642 181.243 246.18 181.043 245.718C180.842 245.256 180.602 244.855 180.321 244.553C180.04 244.252 179.699 244.051 179.318 243.951C178.936 243.85 178.555 243.891 178.134 244.071C177.813 244.212 177.572 244.393 177.392 244.614C177.211 244.835 177.111 245.116 177.071 245.397C177.031 245.698 177.071 246 177.171 246.321L178.796 245.638L179.197 246.622L176.349 247.828L174.884 244.353L175.667 244.031L175.687 244.011Z" fill="#DFB1F3"/>
<path d="M157.451 250.82C157.592 250.358 157.832 249.957 158.214 249.635C158.595 249.314 159.056 249.093 159.638 248.952C160.22 248.812 160.741 248.792 161.223 248.912C161.704 249.033 162.105 249.254 162.426 249.615C162.767 249.977 162.988 250.419 163.128 250.961L164.252 255.521L162.948 255.842L161.824 251.282C161.704 250.78 161.463 250.419 161.142 250.218C160.821 250.017 160.4 249.977 159.899 250.097C159.397 250.218 159.056 250.439 158.856 250.78C158.655 251.122 158.615 251.544 158.735 252.046L159.859 256.605L158.555 256.927L157.431 252.367C157.291 251.825 157.291 251.323 157.431 250.84L157.451 250.82Z" fill="#DFB1F3"/>
<path d="M152.557 257.77C152.116 257.65 151.755 257.449 151.474 257.148C151.193 256.846 151.012 256.465 150.932 256.003C150.852 255.521 150.872 255.099 151.032 254.717C151.193 254.336 151.454 253.994 151.815 253.753C152.176 253.512 152.637 253.311 153.199 253.211L154.663 252.95L154.182 250.358L155.486 250.117L156.81 257.288L154.041 257.811C153.5 257.911 152.998 257.911 152.557 257.811V257.77ZM152.477 254.818C152.276 255.059 152.216 255.38 152.276 255.762C152.356 256.143 152.517 256.404 152.798 256.545C153.079 256.686 153.44 256.726 153.881 256.645L155.285 256.384L154.864 254.074L153.46 254.336C153.018 254.416 152.677 254.577 152.477 254.818Z" fill="#DFB1F3"/>
<path d="M143.81 252.488C144.272 251.945 144.934 251.624 145.776 251.503C146.478 251.423 147.1 251.503 147.662 251.764C148.224 252.026 148.665 252.427 149.026 252.97C149.367 253.512 149.608 254.135 149.688 254.838C149.768 255.561 149.728 256.224 149.507 256.826C149.287 257.429 148.966 257.931 148.484 258.333C148.003 258.734 147.421 258.976 146.719 259.056C145.917 259.156 145.214 259.016 144.633 258.634C144.051 258.252 143.63 257.67 143.349 256.887L144.733 256.645C144.893 257.107 145.134 257.449 145.455 257.67C145.776 257.891 146.157 257.971 146.579 257.911C147.04 257.851 147.401 257.69 147.662 257.429C147.943 257.168 148.123 256.806 148.224 256.404C148.324 256.003 148.344 255.521 148.264 255.018C148.203 254.516 148.063 254.074 147.883 253.693C147.702 253.311 147.421 253.03 147.08 252.849C146.739 252.668 146.358 252.588 145.897 252.648C145.435 252.709 145.094 252.889 144.833 253.211C144.573 253.532 144.432 253.954 144.412 254.476L143.008 254.577C143.048 253.713 143.309 253.01 143.77 252.467L143.81 252.488Z" fill="#DFB1F3"/>
<path d="M140.381 252.528C140.922 252.789 141.344 253.211 141.665 253.773C141.986 254.336 142.166 254.998 142.226 255.782C142.286 256.565 142.186 257.248 141.945 257.851C141.705 258.433 141.344 258.915 140.842 259.257C140.341 259.598 139.739 259.799 139.017 259.839C138.294 259.879 137.673 259.779 137.131 259.498C136.589 259.217 136.168 258.815 135.847 258.252C135.526 257.69 135.346 257.027 135.305 256.244C135.245 255.46 135.346 254.777 135.586 254.195C135.827 253.612 136.188 253.15 136.69 252.809C137.191 252.468 137.793 252.287 138.515 252.226C139.237 252.166 139.859 252.287 140.401 252.568L140.381 252.528ZM137.472 253.753C137.171 253.974 136.95 254.295 136.81 254.717C136.67 255.119 136.629 255.601 136.649 256.143C136.69 256.706 136.79 257.168 136.99 257.549C137.171 257.931 137.432 258.232 137.773 258.413C138.114 258.594 138.475 258.694 138.916 258.654C139.338 258.634 139.719 258.493 140.02 258.273C140.321 258.031 140.541 257.71 140.682 257.308C140.822 256.907 140.862 256.425 140.842 255.862C140.802 255.32 140.702 254.858 140.501 254.456C140.321 254.074 140.06 253.793 139.719 253.592C139.398 253.412 139.017 253.331 138.575 253.351C138.134 253.371 137.773 253.512 137.472 253.733V253.753Z" fill="#DFB1F3"/>
<path d="M132.155 259.96L130.23 254.275L128.143 259.9H126.318L126.438 252.568H127.782L127.702 257.61L129.628 252.628H130.912L132.657 257.69L132.737 252.668H134.081L133.961 260H132.155V259.96Z" fill="#DFB1F3"/>
<path d="M122.687 259.719L121.102 253.934L118.675 259.417L116.869 259.277L117.411 252.005L118.755 252.106L118.374 257.107L120.58 252.247L121.864 252.347L123.309 257.469L123.69 252.467L125.014 252.568L124.472 259.839L122.687 259.699V259.719Z" fill="#DFB1F3"/>
<path d="M113.62 258.855L114.523 251.604L115.847 251.764L114.944 259.016L113.62 258.855Z" fill="#DFB1F3"/>
<path d="M110.23 258.373L108.063 252.508L107.161 257.851L105.837 257.63L107.04 250.439L108.625 250.7L110.772 256.404L111.654 251.202L112.978 251.423L111.775 258.614L110.25 258.353L110.23 258.373Z" fill="#DFB1F3"/>
<path d="M100.38 248.932L100.159 250.479L100.059 250.318C100.199 250.037 100.4 249.796 100.661 249.615C100.921 249.434 101.242 249.314 101.583 249.254C101.924 249.193 102.286 249.213 102.647 249.294C103.309 249.455 103.85 249.736 104.272 250.178C104.693 250.62 104.974 251.142 105.114 251.764C105.254 252.387 105.254 253.05 105.094 253.753C104.933 254.456 104.653 255.059 104.251 255.561C103.85 256.063 103.349 256.425 102.767 256.625C102.185 256.826 101.563 256.866 100.861 256.706C100.079 256.525 99.477 256.163 99.0758 255.601C98.6546 255.039 98.454 254.376 98.474 253.572L99.8381 253.813C99.8381 254.275 99.9384 254.657 100.179 254.978C100.4 255.28 100.721 255.48 101.162 255.581C101.603 255.681 102.005 255.661 102.366 255.501C102.727 255.34 103.008 255.079 103.248 254.737C103.489 254.376 103.65 253.954 103.77 253.452C103.89 252.95 103.91 252.508 103.87 252.086C103.81 251.664 103.67 251.302 103.409 251.021C103.168 250.72 102.827 250.519 102.386 250.419C102.045 250.338 101.744 250.338 101.463 250.419C101.182 250.499 100.941 250.66 100.741 250.881C100.54 251.102 100.38 251.363 100.279 251.684L102.005 252.086L101.764 253.11L98.7348 252.407L99.5773 248.731L100.4 248.932H100.38Z" fill="#DFB1F3"/>
<path d="M81.6031 243.75C81.9842 243.449 82.4255 243.268 82.907 243.228C83.3884 243.188 83.91 243.288 84.4717 243.509C85.0334 243.73 85.4547 244.031 85.7756 244.413C86.0966 244.774 86.2972 245.216 86.3574 245.698C86.4176 246.18 86.3574 246.683 86.1367 247.205L84.3714 251.564L83.1277 251.061L84.893 246.703C85.0936 246.221 85.1136 245.799 84.9532 245.437C84.8127 245.076 84.4918 244.794 84.0304 244.614C83.569 244.433 83.1477 244.413 82.7866 244.553C82.4255 244.714 82.1447 245.035 81.9641 245.518L80.1988 249.876L78.9551 249.374L80.7204 245.015C80.9411 244.493 81.2219 244.091 81.6031 243.79V243.75Z" fill="#DFB1F3"/>
<path d="M73.5784 246.522C73.2775 246.18 73.117 245.799 73.0769 245.397C73.0368 244.995 73.097 244.574 73.2976 244.152C73.4982 243.71 73.779 243.388 74.1401 243.147C74.4811 242.926 74.8824 242.806 75.3437 242.826C75.7851 242.826 76.2665 242.967 76.7881 243.208L78.1322 243.85L79.2555 241.48L80.4592 242.063L77.3297 248.671L74.7821 247.466C74.2805 247.225 73.8793 246.924 73.5784 246.582V246.522ZM75.2635 244.071C74.9626 244.152 74.7219 244.353 74.5614 244.714C74.4009 245.056 74.3808 245.377 74.5213 245.658C74.6617 245.939 74.9425 246.18 75.3437 246.381L76.6276 246.984L77.6306 244.855L76.3468 244.252C75.9255 244.051 75.5644 243.991 75.2635 244.071Z" fill="#DFB1F3"/>
<path d="M69.5662 237.081C70.2683 236.921 70.9905 237.041 71.7327 237.443C72.3345 237.784 72.7959 238.206 73.0968 238.748C73.3977 239.291 73.5181 239.873 73.498 240.516C73.478 241.159 73.2774 241.802 72.9363 242.424C72.5953 243.067 72.154 243.569 71.6324 243.931C71.1108 244.312 70.5491 244.513 69.9273 244.553C69.3054 244.594 68.7036 244.453 68.0817 244.111C67.3595 243.73 66.8781 243.188 66.6373 242.545C66.3966 241.902 66.3966 241.179 66.6373 240.375L67.9011 240.978C67.7607 241.44 67.7607 241.862 67.9011 242.223C68.0416 242.585 68.2823 242.886 68.6634 243.087C69.0647 243.308 69.4659 243.388 69.8269 243.328C70.2081 243.268 70.5491 243.107 70.8701 242.826C71.1911 242.545 71.4719 242.183 71.7126 241.741C71.9534 241.299 72.1138 240.857 72.174 240.436C72.2342 240.014 72.174 239.632 72.0336 239.291C71.8932 238.949 71.5923 238.648 71.1911 238.447C70.7899 238.226 70.3886 238.166 70.0075 238.266C69.6063 238.367 69.2452 238.628 68.9242 239.05L67.7206 238.306C68.2622 237.624 68.8841 237.222 69.5662 237.041V237.081Z" fill="#DFB1F3"/>
<path d="M66.7984 235.133C67.0792 235.675 67.1796 236.258 67.1194 236.88C67.0592 237.523 66.8185 238.166 66.3972 238.829C65.9759 239.492 65.4945 239.994 64.9528 240.335C64.4112 240.677 63.8495 240.837 63.2276 240.817C62.6058 240.797 62.0039 240.596 61.4021 240.215C60.8003 239.833 60.359 239.371 60.0781 238.829C59.7973 238.286 59.697 237.704 59.7772 237.081C59.8374 236.438 60.0982 235.796 60.5195 235.133C60.9407 234.47 61.4021 233.968 61.9438 233.626C62.4854 233.285 63.0471 233.124 63.6489 233.144C64.2507 233.144 64.8525 233.365 65.4744 233.747C66.0762 234.128 66.5176 234.59 66.7984 235.133ZM63.7291 234.41C63.348 234.41 62.9869 234.55 62.6459 234.791C62.3049 235.032 61.9839 235.394 61.683 235.856C61.3821 236.318 61.2015 236.78 61.1413 237.202C61.0611 237.624 61.1012 238.005 61.2617 238.367C61.4222 238.708 61.683 239.01 62.0441 239.23C62.4052 239.472 62.7863 239.572 63.1675 239.552C63.5486 239.532 63.9097 239.411 64.2708 239.15C64.6319 238.889 64.9328 238.548 65.2337 238.065C65.5346 237.603 65.7151 237.162 65.7753 236.74C65.8556 236.318 65.7954 235.936 65.655 235.575C65.4945 235.233 65.2337 234.952 64.8726 234.711C64.5115 234.47 64.1304 234.37 63.7492 234.37L63.7291 234.41Z" fill="#DFB1F3"/>
<path d="M55.8451 236.338L57.5301 230.573L52.5953 233.968L51.1309 232.903L55.4238 226.998L56.5071 227.781L53.5582 231.839L57.9915 228.866L59.0347 229.629L57.5703 234.751L60.5192 230.694L61.6024 231.477L57.3095 237.383L55.8651 236.318L55.8451 236.338Z" fill="#DFB1F3"/>
<path d="M48.242 230.553L50.3483 224.929L45.1727 227.962L43.7886 226.797L48.5028 221.213L49.5259 222.077L46.2961 225.913L50.9301 223.282L51.9131 224.105L50.0876 229.107L53.3173 225.27L54.3404 226.134L49.6262 231.718L48.2621 230.553H48.242Z" fill="#DFB1F3"/>
<path d="M41.4221 224.527L46.3971 219.184L47.3801 220.088L42.4051 225.431L41.4221 224.507V224.527Z" fill="#DFB1F3"/>
<path d="M38.9543 222.157L40.6394 216.131L36.7878 219.927L35.845 218.963L41.0406 213.841L42.164 214.986L40.5592 220.871L44.3105 217.175L45.2533 218.12L40.0577 223.242L38.9744 222.137L38.9543 222.157Z" fill="#DFB1F3"/>
<path d="M36.4874 208.699L35.4041 209.804V209.603C35.6849 209.442 35.9859 209.382 36.3269 209.382C36.6478 209.382 36.9688 209.462 37.2898 209.623C37.6108 209.784 37.8916 210.005 38.1323 210.286C38.5737 210.788 38.8344 211.35 38.9347 211.953C39.015 212.556 38.9347 213.158 38.694 213.741C38.4533 214.323 38.0521 214.865 37.5104 215.327C36.9688 215.81 36.3871 216.131 35.7652 216.292C35.1433 216.452 34.5415 216.452 33.9397 216.292C33.3379 216.131 32.8163 215.769 32.3549 215.227C31.8333 214.624 31.5525 213.982 31.5525 213.279C31.5525 212.596 31.7732 211.913 32.2546 211.29L33.2175 212.294C32.9367 212.676 32.8163 213.058 32.8163 213.419C32.8163 213.801 32.9567 214.162 33.2576 214.484C33.5585 214.825 33.8996 215.046 34.2807 215.127C34.6619 215.207 35.043 215.167 35.4442 215.006C35.8454 214.845 36.2266 214.604 36.6077 214.283C36.9889 213.962 37.2898 213.6 37.4904 213.218C37.691 212.837 37.7712 212.475 37.7512 212.094C37.7311 211.712 37.5506 211.35 37.2697 211.009C37.0491 210.748 36.7883 210.567 36.5275 210.487C36.2466 210.386 35.9658 210.366 35.6849 210.426C35.384 210.487 35.1032 210.607 34.8424 210.808L36.0059 212.134L35.2035 212.837L33.1573 210.487L35.9859 208.016L36.5475 208.659L36.4874 208.699Z" fill="#DFB1F3"/>
<path d="M24.3108 193.493C24.7923 193.473 25.2537 193.594 25.6749 193.835C26.0962 194.096 26.4573 194.478 26.7783 194.98C27.0992 195.482 27.2798 195.984 27.3199 196.466C27.36 196.948 27.2798 197.41 27.039 197.832C26.7983 198.254 26.4573 198.615 25.9758 198.917L22.0039 201.408L21.3017 200.283L25.2737 197.792C25.7151 197.511 25.9758 197.189 26.0761 196.808C26.1564 196.426 26.0761 196.024 25.8154 195.603C25.5546 195.181 25.2135 194.92 24.8324 194.839C24.4512 194.759 24.05 194.839 23.6087 195.12L19.6367 197.611L18.9146 196.466L22.8865 193.976C23.368 193.674 23.8494 193.514 24.3309 193.493H24.3108Z" fill="#DFB1F3"/>
<path d="M16.166 191.003C16.1259 190.541 16.2062 190.139 16.4068 189.777C16.6074 189.416 16.9083 189.115 17.3295 188.894C17.7508 188.653 18.1721 188.552 18.5934 188.572C19.0146 188.572 19.3958 188.733 19.7569 189.014C20.118 189.275 20.4389 189.657 20.6997 190.159L21.4219 191.465L23.7288 190.199L24.3708 191.364L17.9915 194.879L16.6274 192.409C16.3466 191.907 16.2062 191.445 16.166 191.003ZM18.9544 189.998C18.6736 189.878 18.3526 189.918 18.0116 190.099C17.6706 190.28 17.49 190.521 17.4298 190.842C17.3697 191.143 17.47 191.505 17.6906 191.907L18.3727 193.152L20.4189 192.027L19.7368 190.782C19.5161 190.38 19.2553 190.119 18.9745 189.998H18.9544Z" fill="#DFB1F3"/>
<path d="M18.4529 181.08C19.1149 181.341 19.6365 181.883 19.9976 182.647C20.2985 183.269 20.4189 183.892 20.3386 184.515C20.2584 185.137 20.0377 185.68 19.6365 186.182C19.2353 186.684 18.7137 187.086 18.0718 187.407C17.4098 187.729 16.7679 187.869 16.1259 187.869C15.484 187.869 14.9022 187.709 14.3807 187.387C13.8591 187.066 13.4378 186.584 13.1369 185.941C12.7758 185.198 12.6956 184.495 12.8761 183.832C13.0567 183.169 13.4779 182.566 14.1399 182.064L14.8019 183.31C14.4208 183.611 14.1801 183.932 14.0597 184.314C13.9594 184.675 13.9795 185.077 14.1801 185.459C14.3807 185.881 14.6415 186.162 14.9825 186.343C15.3235 186.523 15.7047 186.584 16.1259 186.544C16.5472 186.503 16.9885 186.383 17.4499 186.162C17.9113 185.941 18.2925 185.68 18.5733 185.378C18.8742 185.077 19.0548 184.736 19.135 184.354C19.2152 183.972 19.135 183.591 18.9545 183.169C18.7538 182.747 18.473 182.486 18.0919 182.325C17.7107 182.165 17.2694 182.185 16.7478 182.325L16.2062 181.02C17.0286 180.779 17.7909 180.799 18.4529 181.08Z" fill="#DFB1F3"/>
<path d="M17.3094 177.826C17.2291 178.429 16.9683 178.951 16.5471 179.433C16.1258 179.915 15.544 180.297 14.8219 180.578C14.0997 180.879 13.4176 181 12.7757 180.959C12.1338 180.919 11.5921 180.718 11.1107 180.337C10.6292 179.975 10.2481 179.453 9.98728 178.79C9.7265 178.127 9.6262 177.484 9.7265 176.882C9.80674 176.279 10.0675 175.757 10.5089 175.275C10.9301 174.813 11.5119 174.411 12.2341 174.13C12.9562 173.829 13.6383 173.708 14.2602 173.748C14.9021 173.789 15.4437 173.989 15.9252 174.371C16.4066 174.753 16.7677 175.255 17.0486 175.918C17.3294 176.581 17.4097 177.223 17.3294 177.806L17.3094 177.826ZM15.2431 175.436C14.9222 175.215 14.5611 175.114 14.1398 175.114C13.7185 175.114 13.2371 175.215 12.7356 175.416C12.214 175.616 11.8128 175.878 11.5119 176.179C11.211 176.48 11.0104 176.822 10.9301 177.183C10.8499 177.545 10.89 177.946 11.0505 178.348C11.211 178.75 11.4517 179.051 11.7727 179.272C12.0936 179.493 12.4547 179.594 12.8961 179.594C13.3173 179.594 13.7988 179.493 14.3203 179.292C14.8219 179.091 15.2431 178.83 15.544 178.529C15.8449 178.228 16.0455 177.886 16.1258 177.525C16.206 177.163 16.1659 176.761 16.0054 176.36C15.8449 175.958 15.6042 175.637 15.2832 175.436H15.2431Z" fill="#DFB1F3"/>
<path d="M7.72003 172.342L12.4543 168.667L6.45622 168.526L5.89453 166.798L12.8355 164.529L13.2567 165.814L8.50239 167.381L13.8184 167.562L14.2196 168.787L10.027 172.081L14.7813 170.514L15.2026 171.78L8.26167 174.05L7.69997 172.342H7.72003Z" fill="#DFB1F3"/>
<path d="M4.95208 163.243L9.94714 159.929L3.98918 159.346L3.54785 157.579L10.6292 155.831L10.9502 157.137L6.07547 158.342L11.3714 158.925L11.6723 160.17L7.25904 163.143L12.1137 161.938L12.4346 163.243L5.35329 164.991L4.93202 163.243H4.95208Z" fill="#DFB1F3"/>
<path d="M2.94629 154.325L10.1079 152.919L10.3687 154.224L3.20708 155.63L2.94629 154.325Z" fill="#DFB1F3"/>
<path d="M2.3639 150.95L7.25866 147.053L1.90251 147.857L1.7019 146.531L8.90361 145.447L9.14434 147.033L4.39001 150.85L9.60573 150.066L9.80634 151.392L2.60463 152.477L2.3639 150.95Z" fill="#DFB1F3"/>
<path d="M8.26204 138.657L6.73744 138.918L6.85781 138.758C7.17877 138.798 7.45962 138.918 7.72041 139.119C7.98119 139.32 8.20186 139.581 8.34228 139.883C8.48271 140.184 8.60307 140.545 8.62313 140.907C8.68331 141.59 8.56295 142.192 8.2821 142.735C8.00125 143.277 7.57998 143.699 7.03835 144.04C6.49672 144.382 5.85478 144.563 5.13261 144.623C4.41043 144.683 3.74843 144.623 3.14662 144.382C2.5448 144.161 2.06335 143.799 1.6822 143.317C1.30105 142.835 1.08039 142.233 1.02021 141.53C0.939965 140.726 1.12051 140.043 1.50166 139.481C1.88281 138.918 2.48462 138.517 3.24692 138.276L3.44753 139.641C3.00619 139.782 2.68523 140.003 2.46456 140.324C2.2439 140.626 2.14359 141.007 2.18372 141.449C2.22384 141.911 2.36426 142.273 2.62505 142.554C2.88583 142.835 3.22686 143.036 3.62807 143.137C4.04934 143.257 4.49067 143.277 5.01224 143.237C5.51375 143.197 5.95508 143.076 6.33623 142.895C6.71738 142.715 7.01829 142.454 7.21889 142.132C7.4195 141.811 7.49974 141.409 7.45962 140.967C7.4195 140.626 7.33926 140.345 7.15871 140.103C6.99823 139.862 6.77756 139.682 6.49672 139.561C6.23593 139.441 5.91496 139.38 5.594 139.36L5.75448 141.128L4.69127 141.228L4.41043 138.135L8.16174 137.794L8.24198 138.637L8.26204 138.657Z" fill="#DFB1F3"/>
</g>
<defs>
<clipPath id="clip0_1241_1997">
<rect width="259.161" height="260" fill="white" transform="translate(0.919434)"/>
</clipPath>
</defs>
</svg>
