<svg width="187" height="189" viewBox="0 0 187 189" fill="none" xmlns="http://www.w3.org/2000/svg">
<path d="M31.6384 23.9686C48.1089 9.23958 69.7704 0.297974 93.4999 0.297974C145.057 0.297974 186.854 42.5099 186.854 94.5804C186.854 114.616 180.666 133.19 170.116 148.463L144.844 94.5804H168.183C168.183 52.9241 134.746 19.1546 93.4999 19.1546C72.5483 19.1546 53.612 27.8678 40.0495 41.9021L31.6384 23.9686ZM155.361 165.193C138.89 179.923 117.229 188.863 93.4999 188.863C41.9419 188.863 0.145996 146.652 0.145996 94.5804C0.145996 74.5462 6.33339 55.9712 16.8834 40.6983L42.1552 94.5804H18.8167C18.8167 136.237 52.2534 170.007 93.4999 170.007C114.451 170.007 133.387 161.294 146.95 147.259L155.361 165.193ZM60.8259 113.437H112.171C114.748 113.437 116.838 111.327 116.838 108.723C116.838 106.12 114.748 104.009 112.171 104.009H74.8291C61.9395 104.009 51.4905 93.4566 51.4905 80.438C51.4905 67.4206 61.9395 56.8677 74.8291 56.8677H84.1645V47.4394H102.835V56.8677H126.174V75.7238H74.8291C72.2511 75.7238 70.1613 77.8348 70.1613 80.438C70.1613 83.0421 72.2511 85.1521 74.8291 85.1521H112.171C125.06 85.1521 135.509 95.7052 135.509 108.723C135.509 121.741 125.06 132.294 112.171 132.294H102.835V141.722H84.1645V132.294H60.8259V113.437Z" fill="#240E32"/>
</svg>
