<svg width="261" height="260" viewBox="0 0 261 260" fill="none" xmlns="http://www.w3.org/2000/svg">
<g clip-path="url(#clip0_1241_1897)">
<path d="M7.53963 116.442C7.94084 116.723 8.22169 117.084 8.40223 117.546C8.58278 118.008 8.64296 118.531 8.60284 119.133C8.54266 119.736 8.40223 120.238 8.14145 120.64C7.88066 121.061 7.53963 121.363 7.0983 121.564C6.65697 121.764 6.15546 121.845 5.59377 121.785L0.919678 121.363L1.04004 120.037L5.71413 120.459C6.2357 120.499 6.63691 120.399 6.93782 120.158C7.23873 119.917 7.41927 119.535 7.45939 119.033C7.49951 118.531 7.39921 118.129 7.13842 117.828C6.8977 117.526 6.49649 117.366 5.97492 117.305L1.30083 116.883L1.42119 115.538L6.09528 115.959C6.65697 116 7.13842 116.18 7.53963 116.442Z" fill="#B3CF92"/>
<path d="M2.56438 109.532C2.80511 109.15 3.12608 108.869 3.48717 108.708C3.86831 108.548 4.28958 108.487 4.75098 108.568C5.23243 108.628 5.61358 108.809 5.93454 109.07C6.25551 109.331 6.47618 109.692 6.59654 110.114C6.7169 110.556 6.73696 111.038 6.65672 111.601L6.43605 113.067L9.04392 113.449L8.86337 114.774L1.6416 113.73L2.04281 110.938C2.12305 110.375 2.28354 109.913 2.52426 109.532H2.56438ZM5.37285 110.416C5.21237 110.154 4.93152 109.974 4.55037 109.933C4.16922 109.873 3.86831 109.954 3.64765 110.175C3.42698 110.395 3.2665 110.717 3.20632 111.179L3.00571 112.585L5.33273 112.926L5.53333 111.52C5.59351 111.058 5.53333 110.697 5.39291 110.436L5.37285 110.416Z" fill="#B3CF92"/>
<path d="M10.3683 102.963C10.7294 103.586 10.8297 104.309 10.6491 105.153C10.5087 105.836 10.2279 106.398 9.78655 106.84C9.36528 107.282 8.82364 107.583 8.22183 107.744C7.59995 107.905 6.93796 107.905 6.23584 107.764C5.53373 107.624 4.91185 107.342 4.41034 106.961C3.90883 106.579 3.52768 106.097 3.30701 105.514C3.08635 104.932 3.04623 104.309 3.18665 103.606C3.34713 102.803 3.70822 102.2 4.24985 101.758C4.79149 101.336 5.4936 101.116 6.31608 101.116L6.09542 102.502C5.61397 102.502 5.21276 102.622 4.89179 102.863C4.57082 103.084 4.39028 103.425 4.28998 103.847C4.18967 104.289 4.22979 104.691 4.41034 105.032C4.57082 105.374 4.83161 105.655 5.21276 105.896C5.57385 106.117 6.01518 106.278 6.49663 106.378C6.99814 106.479 7.45953 106.499 7.86074 106.438C8.28201 106.378 8.62304 106.218 8.92394 105.956C9.20479 105.695 9.4054 105.354 9.48564 104.912C9.56588 104.47 9.5057 104.068 9.30509 103.727C9.08443 103.385 8.7434 103.104 8.24189 102.903L8.60298 101.537C9.4054 101.859 9.98715 102.321 10.3482 102.943L10.3683 102.963Z" fill="#B3CF92"/>
<path d="M11.4111 99.7296C10.9898 100.151 10.4482 100.433 9.82633 100.553C9.20445 100.674 8.50234 100.633 7.7601 100.433C6.9978 100.232 6.37593 99.9104 5.89448 99.5086C5.41302 99.0868 5.09206 98.5847 4.93157 98.0021C4.77109 97.4196 4.79115 96.7769 4.97169 96.0738C5.15224 95.3708 5.47321 94.8285 5.89448 94.4067C6.33581 93.9848 6.85738 93.7036 7.47925 93.6032C8.10113 93.4827 8.80324 93.5228 9.56554 93.7237C10.3278 93.9246 10.9297 94.246 11.4111 94.6477C11.8926 95.0695 12.2135 95.5717 12.374 96.1542C12.5345 96.7367 12.5144 97.3795 12.3339 98.0624C12.1533 98.7654 11.8324 99.3078 11.4111 99.7497V99.7296ZM11.2105 96.576C11.0901 96.2144 10.8695 95.9131 10.5284 95.652C10.1874 95.3909 9.74609 95.19 9.22451 95.0494C8.68288 94.9088 8.20143 94.8686 7.78016 94.9088C7.35889 94.9691 6.9978 95.1097 6.71696 95.3708C6.43611 95.6118 6.2355 95.9533 6.11514 96.3751C5.99478 96.797 6.01484 97.1786 6.11514 97.5402C6.2355 97.9017 6.47623 98.203 6.81726 98.4641C7.15829 98.7253 7.59962 98.9261 8.14125 99.0667C8.66282 99.2073 9.14427 99.2475 9.56554 99.2073C9.98681 99.1471 10.3479 99.0065 10.6287 98.7453C10.9096 98.5043 11.1102 98.1628 11.2306 97.741C11.3509 97.3192 11.3509 96.9175 11.2306 96.576H11.2105Z" fill="#B3CF92"/>
<path d="M7.0774 89.5658L13.0755 89.5055L8.38133 85.7694L8.96309 84.042L15.8639 86.4122L15.4226 87.6777L10.6883 86.0506L14.8207 89.4252L14.3995 90.6505L9.08345 90.7509L13.8177 92.3779L13.3764 93.6433L6.47559 91.2731L7.05734 89.5658H7.0774Z" fill="#B3CF92"/>
<path d="M10.3678 80.6273L16.3459 81.0089L11.9526 76.9313L12.6748 75.2642L19.375 78.1365L18.8534 79.3819L14.2395 77.3933L18.1112 81.0692L17.6097 82.2543L12.2937 81.953L16.9076 83.9415L16.386 85.1668L9.68579 82.2944L10.3879 80.6473L10.3678 80.6273Z" fill="#B3CF92"/>
<path d="M14.1196 72.3315L20.6594 75.5454L20.0776 76.7506L13.5178 73.5367L14.0996 72.3315H14.1196Z" fill="#B3CF92"/>
<path d="M15.7046 69.2382L21.9434 69.0976L17.1891 66.5065L17.8311 65.3214L24.2303 68.8164L23.468 70.2425L17.3697 70.4032L22.0036 72.9341L21.3617 74.0992L14.9624 70.6041L15.7046 69.2382Z" fill="#B3CF92"/>
<path d="M27.8211 63.0114L26.4369 62.2883L26.6175 62.228C26.8381 62.449 26.9986 62.7101 27.0989 63.0315C27.1792 63.3529 27.1992 63.6742 27.1391 64.0358C27.0789 64.3773 26.9384 64.7187 26.7579 65.02C26.3968 65.6026 25.9354 66.0043 25.3938 66.2654C24.8522 66.5265 24.2503 66.6069 23.6084 66.5466C22.9665 66.4864 22.3446 66.2453 21.7428 65.8637C21.1209 65.482 20.6395 65.02 20.2984 64.4576C19.9574 63.8952 19.7769 63.3328 19.7769 62.7101C19.7769 62.0874 19.9574 61.4848 20.3185 60.8822C20.7398 60.1993 21.2814 59.7574 21.9434 59.5364C22.6054 59.3155 23.3075 59.3556 24.0497 59.6168L23.3677 60.8421C22.9263 60.6814 22.5251 60.6613 22.1641 60.7818C21.803 60.9023 21.5021 61.1434 21.2814 61.5049C21.0407 61.8866 20.9404 62.2883 20.9604 62.6699C21.0005 63.0516 21.141 63.4131 21.4018 63.7546C21.6625 64.0961 22.0036 64.3974 22.4449 64.6585C22.8662 64.9196 23.2874 65.1004 23.7087 65.2008C24.13 65.2812 24.5111 65.2611 24.8722 65.1205C25.2333 64.9799 25.5342 64.7187 25.7749 64.3371C25.9555 64.0559 26.0558 63.7546 26.0558 63.4734C26.0558 63.1922 25.9956 62.911 25.8552 62.6498C25.7148 62.3887 25.5142 62.1477 25.2534 61.9468L24.3105 63.4533L23.4078 62.8909L25.0528 60.2595L28.2424 62.2481L27.781 62.9712L27.8211 63.0114Z" fill="#B3CF92"/>
<path d="M38.7939 46.902C38.9544 47.364 38.9745 47.826 38.8541 48.308C38.7337 48.7901 38.473 49.2521 38.0918 49.694C37.6906 50.1359 37.2693 50.4573 36.828 50.6381C36.3666 50.8189 35.9052 50.859 35.4438 50.7586C34.9824 50.6582 34.521 50.4171 34.0998 50.0556L30.5491 46.9823L31.4317 45.978L34.9824 49.0713C35.3836 49.4128 35.7648 49.5735 36.1459 49.5534C36.5271 49.5333 36.8882 49.3325 37.2292 48.9508C37.5702 48.5692 37.7107 48.1875 37.6906 47.7858C37.6705 47.4041 37.4499 47.0225 37.0487 46.681L33.498 43.5877L34.3806 42.5633L37.9313 45.6365C38.3526 45.9981 38.6535 46.4199 38.814 46.8819L38.7939 46.902Z" fill="#B3CF92"/>
<path d="M38.7738 38.4054C39.1951 38.2448 39.6164 38.2046 40.0176 38.2849C40.4188 38.3653 40.8 38.5862 41.1209 38.9076C41.4619 39.2491 41.6826 39.6106 41.7829 40.0124C41.8832 40.4141 41.8632 40.8359 41.7027 41.2577C41.5422 41.6795 41.2814 42.1014 40.8802 42.5031L39.8571 43.5677L41.7428 45.3956L40.82 46.3597L35.5842 41.2778L37.5502 39.2491C37.9514 38.8473 38.3526 38.5661 38.7738 38.4054ZM40.5392 40.7957C40.5592 40.4744 40.4389 40.1931 40.158 39.9119C39.8772 39.6508 39.5963 39.5303 39.2754 39.5705C38.9744 39.6106 38.6535 39.7914 38.3325 40.1128L37.3495 41.1372L39.0346 42.7642L40.0176 41.7398C40.3386 41.4184 40.5191 41.097 40.5392 40.7757V40.7957Z" fill="#B3CF92"/>
<path d="M48.9643 37.6622C48.9042 38.3652 48.5431 39.0281 47.9212 39.5905C47.3996 40.0726 46.8379 40.3538 46.2361 40.4542C45.6343 40.5547 45.0325 40.4944 44.4307 40.2735C43.8289 40.0525 43.2872 39.6508 42.8058 39.1285C42.3043 38.5862 41.9833 38.0238 41.8027 37.4011C41.6222 36.7784 41.6021 36.1758 41.7626 35.5732C41.9231 34.9706 42.2641 34.4484 42.7857 33.9663C43.3875 33.424 44.0295 33.1227 44.7316 33.1026C45.4337 33.0825 46.1158 33.3034 46.7777 33.7855L45.7948 34.7898C45.3936 34.5086 45.0124 34.368 44.6313 34.368C44.2501 34.368 43.889 34.5287 43.5681 34.8099C43.227 35.1112 43.0264 35.4728 42.9663 35.8343C42.9061 36.216 42.9663 36.5976 43.1067 36.9994C43.2672 37.4011 43.5279 37.7827 43.869 38.1443C44.21 38.5259 44.5711 38.8071 44.9522 38.9879C45.3334 39.1888 45.7145 39.2491 46.0957 39.229C46.4768 39.2089 46.8379 39.008 47.1589 38.7067C47.4999 38.3853 47.6805 38.0439 47.7005 37.622C47.7206 37.2203 47.6002 36.7784 47.3194 36.3365L48.4026 35.4326C48.864 36.1557 49.0646 36.8788 49.0045 37.602L48.9643 37.6622Z" fill="#B3CF92"/>
<path d="M51.7329 35.6334C51.1311 35.7339 50.5493 35.6334 49.9676 35.3723C49.3858 35.1112 48.8442 34.6693 48.3627 34.0667C47.8612 33.4641 47.5403 32.8414 47.3998 32.2187C47.2594 31.596 47.2795 31.0135 47.5001 30.431C47.7208 29.8686 48.1019 29.3464 48.6636 28.9045C49.2253 28.4625 49.8071 28.1813 50.4089 28.101C51.0107 28.0206 51.5925 28.101 52.1742 28.3621C52.756 28.6232 53.2776 29.0651 53.7791 29.6878C54.2806 30.2904 54.5815 30.9131 54.742 31.5358C54.8824 32.1585 54.8423 32.741 54.6417 33.3034C54.421 33.8658 54.0399 34.3881 53.4782 34.83C52.9165 35.2719 52.3347 35.5531 51.753 35.6535L51.7329 35.6334ZM53.418 32.9619C53.5383 32.6004 53.5183 32.2187 53.418 31.7969C53.2976 31.3751 53.0569 30.9734 52.7159 30.5315C52.3748 30.1096 51.9937 29.7883 51.6326 29.5874C51.2514 29.3865 50.8703 29.2861 50.4891 29.3263C50.108 29.3664 49.7469 29.507 49.4059 29.7883C49.0649 30.0695 48.8442 30.3708 48.7439 30.7323C48.6235 31.0939 48.6436 31.4956 48.7439 31.8973C48.8642 32.3192 49.105 32.741 49.446 33.1628C49.787 33.5846 50.1481 33.906 50.5293 34.1069C50.9104 34.3077 51.2916 34.3881 51.6527 34.368C52.0338 34.3278 52.3748 34.1872 52.7159 33.906C53.0569 33.6248 53.2776 33.3034 53.3979 32.9418L53.418 32.9619Z" fill="#B3CF92"/>
<path d="M54.1607 24.847L59.0555 28.3019L57.4306 22.517L58.915 21.4725L63.1077 27.4382L62.0044 28.2215L59.1156 24.1239L60.4998 29.2861L59.4567 30.0293L55.0835 26.9963L57.9722 31.0939L56.8889 31.8572L52.6963 25.8915L54.1607 24.847Z" fill="#B3CF92"/>
<path d="M62.0637 19.5241L66.6976 23.3405L65.5141 17.4552L67.0788 16.5111L70.8301 22.7781L69.6666 23.4811L67.0788 19.1826L68.0818 24.4252L66.9785 25.0881L62.846 21.7336L65.4338 26.0321L64.2904 26.7151L60.5391 20.4481L62.0837 19.5241H62.0637Z" fill="#B3CF92"/>
<path d="M69.9682 15.0046L73.3986 21.4524L72.215 22.075L68.7847 15.6273L69.9682 15.0046Z" fill="#B3CF92"/>
<path d="M73.0172 13.4378L78.1728 16.9731L75.8257 12.092L77.0293 11.5095L80.1788 18.0979L78.7345 18.8009L73.6993 15.3661L75.9862 20.1266L74.7826 20.7092L71.6331 14.1208L73.0373 13.4579L73.0172 13.4378Z" fill="#B3CF92"/>
<path d="M86.498 15.4666L85.7959 14.0806L85.9765 14.1409C86.0366 14.4623 85.9965 14.7636 85.8962 15.0649C85.7959 15.3662 85.5953 15.6474 85.3546 15.8884C85.0938 16.1295 84.7929 16.3303 84.4519 16.4709C83.83 16.7321 83.2081 16.7923 82.6063 16.6919C82.0045 16.5915 81.4629 16.3102 81.0015 15.8683C80.52 15.4465 80.1589 14.8841 79.8781 14.2213C79.5972 13.5584 79.4969 12.8955 79.537 12.2528C79.5772 11.61 79.7778 11.0275 80.1389 10.5253C80.5 10.0232 81.0015 9.64152 81.6434 9.36031C82.3856 9.05901 83.0878 9.01884 83.7498 9.21971C84.4117 9.44066 84.9534 9.86247 85.4148 10.5253L84.151 11.1078C83.8902 10.7262 83.5692 10.4852 83.2081 10.3646C82.847 10.2441 82.4659 10.2642 82.0647 10.4249C81.6434 10.6057 81.3224 10.8467 81.1419 11.1882C80.9413 11.5096 80.861 11.8912 80.8811 12.3331C80.8811 12.7549 81.0015 13.2169 81.182 13.6789C81.3626 14.1409 81.6033 14.5426 81.9042 14.8439C82.185 15.1653 82.5261 15.3662 82.8872 15.4465C83.2482 15.5269 83.6494 15.5068 84.0707 15.326C84.3917 15.2055 84.6324 15.0247 84.813 14.7837C84.9935 14.5627 85.0938 14.3016 85.1339 14.0003C85.174 13.699 85.1339 13.3977 85.0537 13.0763L83.4087 13.7392L83.0075 12.7549L85.8762 11.5899L87.3005 15.085L86.5181 15.4064L86.498 15.4666Z" fill="#B3CF92"/>
<path d="M104.813 8.85807C104.673 9.32006 104.412 9.72179 104.051 10.0231C103.69 10.3244 103.188 10.5654 102.627 10.706C102.065 10.8466 101.523 10.8466 101.042 10.7261C100.56 10.6056 100.159 10.3646 99.8383 10.0231C99.5173 9.66153 99.2967 9.21963 99.1562 8.67729L98.093 4.09756L99.397 3.79626L100.46 8.37599C100.581 8.87815 100.801 9.23971 101.122 9.44058C101.443 9.64144 101.864 9.7017 102.366 9.58118C102.867 9.46066 103.208 9.23971 103.409 8.91833C103.61 8.57686 103.65 8.17513 103.529 7.65288L102.466 3.07315L103.77 2.77185L104.833 7.35158C104.954 7.89392 104.954 8.39608 104.833 8.87815L104.813 8.85807Z" fill="#B3CF92"/>
<path d="M109.808 1.96844C110.249 2.08896 110.61 2.28982 110.871 2.61121C111.152 2.91251 111.332 3.31424 111.413 3.77623C111.493 4.2583 111.453 4.68012 111.312 5.06177C111.152 5.44341 110.891 5.76479 110.51 6.02592C110.129 6.28704 109.667 6.44774 109.126 6.54817L107.661 6.80929L108.103 9.40045L106.779 9.62141L105.535 2.43043L108.303 1.94835C108.865 1.84792 109.346 1.86801 109.788 1.96844H109.808ZM109.828 4.92116C110.028 4.68012 110.109 4.37882 110.028 3.99718C109.968 3.61554 109.788 3.35441 109.527 3.19372C109.266 3.03303 108.885 3.01294 108.444 3.09329L107.039 3.33432L107.441 5.64427L108.845 5.40324C109.286 5.32289 109.627 5.1622 109.828 4.92116Z" fill="#B3CF92"/>
<path d="M118.454 7.35167C117.973 7.89401 117.331 8.21539 116.468 8.29574C115.766 8.37608 115.144 8.29574 114.603 8.01453C114.041 7.7534 113.6 7.33158 113.259 6.78925C112.918 6.24691 112.697 5.62423 112.617 4.90111C112.536 4.178 112.617 3.51514 112.817 2.91255C113.038 2.30995 113.379 1.80779 113.84 1.40606C114.322 1.02441 114.904 0.783376 115.606 0.70303C116.408 0.602598 117.11 0.76329 117.692 1.14493C118.274 1.52658 118.695 2.12917 118.956 2.91255L117.572 3.15359C117.411 2.6916 117.17 2.35013 116.87 2.12917C116.569 1.90822 116.187 1.80779 115.746 1.86805C115.285 1.92831 114.924 2.089 114.643 2.35013C114.362 2.61125 114.181 2.95272 114.081 3.37454C113.981 3.79635 113.961 4.25835 114.021 4.76051C114.081 5.26267 114.201 5.70458 114.402 6.08622C114.603 6.46786 114.863 6.74907 115.184 6.94994C115.525 7.1508 115.907 7.21106 116.348 7.17089C116.809 7.11063 117.17 6.92985 117.431 6.62856C117.692 6.30717 117.832 5.88535 117.873 5.3631L119.277 5.28276C119.217 6.14648 118.956 6.84951 118.494 7.37176L118.454 7.35167Z" fill="#B3CF92"/>
<path d="M121.884 7.35161C121.343 7.0704 120.921 6.66867 120.62 6.10624C120.32 5.54382 120.139 4.88097 120.099 4.09759C120.059 3.31422 120.159 2.63127 120.4 2.02868C120.641 1.42608 121.022 0.98418 121.523 0.642709C122.025 0.301238 122.647 0.120459 123.369 0.0802864C124.091 0.0401133 124.713 0.160632 125.254 0.441844C125.796 0.723055 126.217 1.14487 126.518 1.68721C126.819 2.22954 127 2.91249 127.04 3.69586C127.08 4.47924 126.98 5.16218 126.739 5.74469C126.498 6.3272 126.117 6.78919 125.616 7.13066C125.114 7.47213 124.512 7.65291 123.79 7.69308C123.068 7.73325 122.446 7.61273 121.904 7.33152L121.884 7.35161ZM124.813 6.1665C125.114 5.94555 125.335 5.62417 125.475 5.22244C125.616 4.82071 125.676 4.33863 125.636 3.79629C125.616 3.23387 125.495 2.77188 125.315 2.39024C125.134 2.00859 124.873 1.70729 124.552 1.50643C124.231 1.30556 123.85 1.22522 123.409 1.2453C122.988 1.26539 122.606 1.38591 122.306 1.62695C122.005 1.86799 121.784 2.16928 121.644 2.57102C121.503 2.97275 121.443 3.45482 121.483 4.01725C121.503 4.55958 121.624 5.04166 121.804 5.4233C121.985 5.80495 122.245 6.10624 122.566 6.28702C122.887 6.4678 123.268 6.56823 123.71 6.52806C124.151 6.50797 124.512 6.38745 124.813 6.14642V6.1665Z" fill="#B3CF92"/>
<path d="M130.15 0.0201535L132.076 5.70464L134.162 0.0804131H135.988L135.867 7.41199H134.523L134.603 2.37028L132.678 7.35174H131.394L129.648 2.28993L129.568 7.31156H128.224L128.344 -0.0200195H130.15V0.0201535Z" fill="#B3CF92"/>
<path d="M139.658 0.361553L141.183 6.16656L143.65 0.703024L145.456 0.863716L144.834 8.13504L143.49 8.01452L143.911 3.01297L141.644 7.85383L140.36 7.7534L138.956 2.61124L138.535 7.61279L137.211 7.49227L137.833 0.220947L139.618 0.381639L139.658 0.361553Z" fill="#B3CF92"/>
<path d="M148.705 1.32568L147.722 8.55683L146.398 8.37605L147.381 1.1449L148.705 1.32568Z" fill="#B3CF92"/>
<path d="M152.097 1.84792L154.203 7.73327L155.166 2.39026L156.49 2.6313L155.206 9.82227L153.621 9.54106L151.535 3.8164L150.612 8.99873L149.308 8.75769L150.592 1.56671L152.117 1.84792H152.097Z" fill="#B3CF92"/>
<path d="M161.866 11.389L162.106 9.84232L162.207 10.003C162.066 10.2842 161.866 10.5253 161.585 10.706C161.304 10.8868 161.003 11.0073 160.662 11.0475C160.321 11.0877 159.96 11.0676 159.599 10.9873C158.937 10.8266 158.395 10.5253 157.994 10.0834C157.593 9.64146 157.292 9.09912 157.172 8.47644C157.051 7.85376 157.051 7.1909 157.232 6.48787C157.392 5.78485 157.693 5.18225 158.094 4.68009C158.496 4.17792 158.997 3.83645 159.579 3.63559C160.161 3.43472 160.802 3.41464 161.485 3.57533C162.267 3.75611 162.849 4.13775 163.27 4.70017C163.671 5.2626 163.872 5.94554 163.852 6.72891L162.488 6.46779C162.488 6.0058 162.387 5.62415 162.167 5.30277C161.946 5.00147 161.625 4.78052 161.204 4.68009C160.762 4.57965 160.361 4.59974 160 4.74035C159.659 4.90104 159.358 5.14208 159.117 5.50364C158.877 5.86519 158.696 6.28701 158.576 6.76909C158.455 7.27125 158.415 7.71315 158.475 8.13497C158.516 8.55679 158.676 8.91834 158.917 9.21964C159.158 9.52094 159.499 9.72181 159.94 9.82224C160.281 9.90258 160.582 9.90258 160.863 9.82224C161.144 9.74189 161.384 9.60129 161.585 9.38033C161.785 9.15938 161.946 8.89826 162.066 8.57687L160.341 8.15506L160.582 7.13064L163.591 7.87385L162.708 11.5296L161.886 11.3287L161.866 11.389Z" fill="#B3CF92"/>
<path d="M180.541 16.7722C180.16 17.0735 179.718 17.2342 179.237 17.2744C178.736 17.3146 178.234 17.2141 177.672 16.9731C177.131 16.7521 176.689 16.4308 176.368 16.0692C176.047 15.6876 175.867 15.2657 175.807 14.7837C175.747 14.3016 175.827 13.7994 176.047 13.2772L177.853 8.93848L179.077 9.46073L177.271 13.7994C177.071 14.2815 177.05 14.7033 177.191 15.0649C177.331 15.4264 177.652 15.7076 178.114 15.9085C178.575 16.1094 178.996 16.1295 179.357 15.9688C179.718 15.8081 179.999 15.5068 180.2 15.0247L182.005 10.686L183.249 11.2083L181.444 15.5469C181.223 16.0692 180.922 16.4709 180.541 16.7722Z" fill="#B3CF92"/>
<path d="M188.647 14.1208C188.928 14.4623 189.108 14.8439 189.148 15.2657C189.188 15.6876 189.108 16.0893 188.907 16.5111C188.687 16.9329 188.406 17.2744 188.065 17.4953C187.704 17.7163 187.303 17.8167 186.861 17.8167C186.42 17.8167 185.938 17.6761 185.437 17.4351L184.113 16.7923L182.949 19.1625L181.746 18.58L184.935 12.0117L187.463 13.237C187.965 13.478 188.366 13.7793 188.647 14.1409V14.1208ZM186.942 16.5513C187.242 16.4709 187.483 16.2701 187.664 15.9085C187.824 15.567 187.844 15.2456 187.724 14.9644C187.604 14.6832 187.323 14.4422 186.901 14.2413L185.638 13.6186L184.614 15.7277L185.898 16.3504C186.32 16.5513 186.661 16.6115 186.982 16.5513H186.942Z" fill="#B3CF92"/>
<path d="M192.517 23.5816C191.815 23.7423 191.093 23.6017 190.35 23.1999C189.749 22.8585 189.287 22.4166 189.006 21.8742C188.705 21.3319 188.585 20.7293 188.625 20.1066C188.665 19.4638 188.866 18.8412 189.207 18.1984C189.568 17.5556 190.009 17.0735 190.531 16.6919C191.052 16.3303 191.634 16.1295 192.236 16.0893C192.858 16.0491 193.46 16.2098 194.082 16.5513C194.784 16.953 195.265 17.4753 195.506 18.1381C195.747 18.801 195.747 19.5241 195.506 20.3075L194.242 19.6848C194.383 19.2228 194.383 18.801 194.262 18.4394C194.142 18.0779 193.881 17.7766 193.5 17.5757C193.099 17.3547 192.717 17.2744 192.336 17.3146C191.955 17.3748 191.594 17.5355 191.273 17.8167C190.952 18.098 190.671 18.4595 190.411 18.9014C190.17 19.3433 190.009 19.7852 189.949 20.1869C189.889 20.6088 189.929 20.9904 190.09 21.352C190.25 21.7135 190.531 21.9947 190.912 22.2157C191.313 22.4366 191.714 22.4969 192.096 22.3965C192.497 22.296 192.858 22.0349 193.199 21.6332L194.383 22.3764C193.841 23.0392 193.219 23.4611 192.517 23.6217V23.5816Z" fill="#B3CF92"/>
<path d="M195.306 25.5701C195.025 25.0278 194.925 24.4453 195.005 23.8025C195.085 23.1597 195.326 22.517 195.747 21.8742C196.168 21.2113 196.65 20.7092 197.191 20.3878C197.733 20.0664 198.315 19.9057 198.917 19.9258C199.518 19.9459 200.12 20.1668 200.742 20.5485C201.344 20.9301 201.785 21.4122 202.046 21.9546C202.307 22.4969 202.407 23.0794 202.347 23.7222C202.287 24.3649 202.026 25.0077 201.585 25.6706C201.163 26.3334 200.682 26.8155 200.14 27.157C199.599 27.4783 199.017 27.639 198.415 27.6189C197.813 27.5989 197.211 27.3779 196.61 26.9963C196.008 26.6146 195.566 26.1526 195.286 25.6103L195.306 25.5701ZM198.355 26.3334C198.736 26.3334 199.097 26.2129 199.458 25.9518C199.819 25.7107 200.14 25.3492 200.441 24.8872C200.742 24.4252 200.923 23.9833 201.003 23.5414C201.083 23.0995 201.043 22.7379 200.903 22.3764C200.762 22.0349 200.501 21.7336 200.12 21.4926C199.759 21.2515 199.378 21.1511 198.997 21.1511C198.616 21.1511 198.255 21.2917 197.893 21.5327C197.532 21.7738 197.211 22.1353 196.911 22.5973C196.61 23.0593 196.429 23.5012 196.349 23.923C196.269 24.3448 196.309 24.7265 196.469 25.088C196.63 25.4295 196.87 25.7308 197.231 25.9518C197.593 26.1928 197.974 26.3133 198.355 26.2932V26.3334Z" fill="#B3CF92"/>
<path d="M206.259 24.4854L204.494 30.2302L209.469 26.8958L210.933 27.9805L206.58 33.8457L205.497 33.0423L208.486 29.025L204.032 31.9375L203.009 31.1742L204.534 26.0723L201.545 30.0896L200.481 29.2861L204.835 23.4208L206.279 24.5055L206.259 24.4854Z" fill="#B3CF92"/>
<path d="M213.781 30.3507L211.615 35.9548L216.831 32.982L218.215 34.1671L213.44 39.6909L212.417 38.8071L215.687 35.0108L211.033 37.6019L210.07 36.7583L211.956 31.7768L208.686 35.5732L207.683 34.6894L212.457 29.1656L213.822 30.3507H213.781Z" fill="#B3CF92"/>
<path d="M220.542 36.457L215.506 41.7398L214.543 40.8158L219.579 35.533L220.542 36.457Z" fill="#B3CF92"/>
<path d="M222.989 38.8674L221.244 44.8733L225.135 41.1171L226.078 42.0812L220.822 47.143L219.699 45.978L221.364 40.1128L217.572 43.7685L216.65 42.8044L221.906 37.7426L222.989 38.8674Z" fill="#B3CF92"/>
<path d="M225.257 52.3053L226.36 51.2005V51.4014C226.079 51.542 225.778 51.6223 225.437 51.6022C225.116 51.6022 224.795 51.5018 224.474 51.3411C224.153 51.1804 223.892 50.9595 223.652 50.6782C223.21 50.156 222.95 49.5936 222.869 48.991C222.789 48.3884 222.869 47.7858 223.13 47.2033C223.391 46.6208 223.792 46.0985 224.334 45.6164C224.895 45.1545 225.477 44.8331 226.099 44.6724C226.721 44.5117 227.323 44.5117 227.925 44.6925C228.506 44.8732 229.028 45.2348 229.489 45.7571C230.011 46.3596 230.272 47.0225 230.272 47.7054C230.272 48.4085 230.031 49.0713 229.55 49.694L228.587 48.6897C228.867 48.308 229.008 47.9465 229.008 47.5648C229.008 47.1832 228.867 46.8216 228.587 46.5003C228.286 46.1588 227.945 45.9378 227.584 45.8575C227.202 45.7771 226.821 45.8173 226.42 45.9579C226.019 46.0985 225.618 46.3396 225.237 46.681C224.855 47.0024 224.554 47.364 224.354 47.7255C224.153 48.0871 224.053 48.4687 224.073 48.8504C224.093 49.232 224.254 49.5936 224.554 49.9351C224.775 50.1962 225.016 50.377 225.297 50.4774C225.578 50.5778 225.858 50.5979 226.139 50.5376C226.42 50.4774 226.721 50.3569 226.982 50.1761L225.838 48.8303L226.641 48.1473L228.647 50.5176L225.778 52.9681L225.216 52.3253L225.257 52.3053Z" fill="#B3CF92"/>
<path d="M237.313 67.6916C236.832 67.6916 236.37 67.5911 235.969 67.33C235.548 67.0689 235.187 66.6872 234.866 66.1851C234.545 65.6829 234.384 65.1807 234.344 64.6786C234.304 64.1764 234.404 63.7345 234.645 63.3127C234.886 62.8909 235.247 62.5293 235.728 62.2481L239.74 59.7975L240.442 60.9425L236.43 63.393C235.989 63.6742 235.708 63.9956 235.628 64.3773C235.528 64.7589 235.628 65.1606 235.889 65.6026C236.149 66.0445 236.47 66.3056 236.852 66.3859C237.233 66.4663 237.634 66.3859 238.095 66.1047L242.107 63.6542L242.81 64.7991L238.797 67.2496C238.316 67.5509 237.835 67.6915 237.353 67.7116L237.313 67.6916Z" fill="#B3CF92"/>
<path d="M245.417 70.2426C245.437 70.6845 245.357 71.1063 245.156 71.4477C244.955 71.7892 244.635 72.0905 244.233 72.3316C243.812 72.5525 243.391 72.6529 242.97 72.6329C242.548 72.6128 242.167 72.4521 241.806 72.1909C241.445 71.9298 241.144 71.5281 240.863 71.0259L240.161 69.7203L237.854 70.9657L237.212 69.7806L243.632 66.3257L244.956 68.8164C245.216 69.3186 245.377 69.7806 245.397 70.2426H245.417ZM242.608 71.2067C242.889 71.3272 243.21 71.2871 243.551 71.1063C243.892 70.9255 244.093 70.6845 244.133 70.3631C244.173 70.0417 244.113 69.7002 243.892 69.2985L243.23 68.0531L241.164 69.1579L241.826 70.4032C242.047 70.805 242.287 71.0661 242.588 71.1866L242.608 71.2067Z" fill="#B3CF92"/>
<path d="M243.03 80.1653C242.368 79.8841 241.867 79.3618 241.505 78.5785C241.205 77.9357 241.104 77.313 241.184 76.7104C241.265 76.0877 241.505 75.5454 241.907 75.0432C242.308 74.5411 242.829 74.1393 243.491 73.838C244.153 73.5368 244.795 73.3761 245.437 73.3962C246.079 73.3962 246.661 73.5769 247.183 73.8983C247.704 74.2197 248.105 74.7219 248.406 75.3445C248.747 76.0877 248.828 76.7908 248.627 77.4536C248.426 78.1165 248.005 78.699 247.343 79.2012L246.681 77.9558C247.062 77.6545 247.323 77.3331 247.423 76.9515C247.544 76.5899 247.504 76.1882 247.323 75.8065C247.122 75.3847 246.862 75.0834 246.521 74.9227C246.18 74.7419 245.798 74.6817 245.377 74.7018C244.956 74.7419 244.515 74.8625 244.053 75.0834C243.592 75.3044 243.211 75.5454 242.91 75.8467C242.609 76.148 242.428 76.4895 242.348 76.8711C242.268 77.2528 242.328 77.6344 242.508 78.0562C242.709 78.478 242.99 78.7592 243.371 78.8999C243.752 79.0405 244.194 79.0606 244.715 78.9199L245.237 80.2256C244.394 80.4465 243.652 80.4264 242.99 80.1452L243.03 80.1653Z" fill="#B3CF92"/>
<path d="M244.113 83.3992C244.213 82.7966 244.474 82.2744 244.895 81.7923C245.317 81.3303 245.899 80.9486 246.621 80.6674C247.363 80.3862 248.045 80.2657 248.667 80.3059C249.309 80.346 249.85 80.567 250.332 80.9486C250.813 81.3303 251.174 81.8525 251.435 82.5154C251.696 83.1783 251.776 83.821 251.676 84.4236C251.576 85.0262 251.315 85.5485 250.894 86.0104C250.472 86.4724 249.87 86.8541 249.148 87.1353C248.426 87.4165 247.744 87.537 247.102 87.4969C246.46 87.4567 245.919 87.2357 245.437 86.8541C244.956 86.4724 244.595 85.9502 244.334 85.2873C244.073 84.6245 243.993 83.9817 244.073 83.3791L244.113 83.3992ZM246.159 85.8096C246.46 86.0305 246.841 86.1511 247.263 86.1511C247.684 86.1511 248.165 86.0707 248.667 85.8698C249.188 85.669 249.59 85.4079 249.911 85.1266C250.212 84.8253 250.412 84.4839 250.492 84.1223C250.573 83.7407 250.532 83.359 250.372 82.9573C250.212 82.5556 249.971 82.2543 249.67 82.0333C249.349 81.8124 248.988 81.7119 248.546 81.6918C248.105 81.6718 247.644 81.7722 247.122 81.9931C246.621 82.194 246.199 82.435 245.899 82.7363C245.598 83.0376 245.397 83.3791 245.317 83.7407C245.237 84.1022 245.277 84.504 245.437 84.9057C245.598 85.3074 245.838 85.6288 246.139 85.8498L246.159 85.8096Z" fill="#B3CF92"/>
<path d="M253.641 88.9632L248.866 92.5788L254.864 92.7997L255.406 94.5272L248.445 96.7166L248.044 95.4311L252.818 93.9246L247.502 93.6835L247.121 92.4583L251.334 89.2043L246.559 90.7107L246.158 89.4453L253.119 87.2559L253.661 88.9632H253.641Z" fill="#B3CF92"/>
<path d="M256.309 98.1427L251.274 101.397L257.232 102.06L257.653 103.827L250.551 105.494L250.251 104.189L255.125 103.044L249.829 102.401L249.528 101.156L253.982 98.2231L249.107 99.368L248.806 98.0624L255.908 96.3952L256.329 98.1427H256.309Z" fill="#B3CF92"/>
<path d="M258.215 107.061L251.033 108.387L250.793 107.081L257.974 105.755L258.215 107.061Z" fill="#B3CF92"/>
<path d="M258.777 110.436L253.842 114.272L259.198 113.529L259.379 114.875L252.157 115.879L251.936 114.272L256.731 110.516L251.515 111.239L251.334 109.913L258.556 108.909L258.777 110.456V110.436Z" fill="#B3CF92"/>
<path d="M252.739 122.688L254.284 122.447L254.164 122.608C253.843 122.568 253.562 122.447 253.301 122.247C253.04 122.046 252.84 121.785 252.679 121.463C252.519 121.142 252.438 120.8 252.398 120.439C252.338 119.756 252.459 119.153 252.759 118.631C253.06 118.089 253.482 117.667 254.023 117.345C254.585 117.024 255.207 116.823 255.929 116.763C256.651 116.703 257.313 116.803 257.915 117.024C258.517 117.245 258.998 117.627 259.379 118.109C259.74 118.591 259.961 119.193 260.021 119.896C260.082 120.7 259.921 121.383 259.52 121.945C259.119 122.508 258.537 122.909 257.775 123.13L257.594 121.744C258.035 121.604 258.376 121.383 258.597 121.082C258.818 120.78 258.918 120.399 258.878 119.957C258.838 119.495 258.697 119.133 258.437 118.832C258.176 118.551 257.855 118.35 257.434 118.229C257.012 118.109 256.571 118.069 256.069 118.109C255.568 118.149 255.127 118.249 254.725 118.43C254.344 118.611 254.043 118.852 253.843 119.193C253.642 119.515 253.562 119.917 253.582 120.358C253.602 120.7 253.702 120.981 253.863 121.222C254.023 121.463 254.244 121.644 254.505 121.764C254.765 121.885 255.066 121.965 255.407 121.965L255.267 120.198L256.33 120.117L256.571 123.211L252.82 123.512L252.759 122.668L252.739 122.688Z" fill="#B3CF92"/>
<path d="M253.502 142.172C253.1 141.891 252.8 141.53 252.619 141.088C252.438 140.626 252.358 140.103 252.398 139.521C252.438 138.938 252.599 138.416 252.84 137.994C253.1 137.573 253.441 137.251 253.883 137.05C254.324 136.849 254.826 136.769 255.387 136.809L260.061 137.171L259.961 138.497L255.287 138.135C254.765 138.095 254.364 138.195 254.063 138.456C253.762 138.697 253.602 139.079 253.562 139.601C253.522 140.103 253.622 140.505 253.883 140.807C254.144 141.108 254.525 141.269 255.046 141.309L259.72 141.67L259.62 143.016L254.946 142.654C254.384 142.614 253.903 142.454 253.502 142.192V142.172Z" fill="#B3CF92"/>
<path d="M258.576 148.982C258.336 149.363 258.035 149.645 257.654 149.805C257.272 149.966 256.851 150.026 256.39 149.966C255.908 149.906 255.507 149.745 255.186 149.464C254.865 149.203 254.645 148.841 254.504 148.419C254.364 147.997 254.344 147.495 254.424 146.933L254.624 145.467L252.017 145.125L252.197 143.799L259.419 144.764L259.038 147.556C258.958 148.118 258.797 148.58 258.556 148.962L258.576 148.982ZM255.748 148.118C255.908 148.379 256.189 148.54 256.57 148.6C256.951 148.66 257.252 148.56 257.473 148.359C257.694 148.138 257.834 147.817 257.894 147.355L258.075 145.949L255.748 145.627L255.567 147.033C255.507 147.495 255.567 147.857 255.728 148.118H255.748Z" fill="#B3CF92"/>
<path d="M250.833 155.65C250.472 155.048 250.352 154.305 250.512 153.461C250.653 152.778 250.913 152.216 251.355 151.754C251.796 151.292 252.298 150.99 252.919 150.83C253.541 150.669 254.203 150.649 254.905 150.789C255.607 150.93 256.229 151.191 256.751 151.573C257.273 151.955 257.634 152.437 257.874 152.999C258.095 153.582 258.155 154.204 258.015 154.887C257.854 155.691 257.513 156.313 256.972 156.735C256.43 157.157 255.748 157.398 254.905 157.398L255.106 155.992C255.587 155.992 255.989 155.851 256.29 155.63C256.59 155.389 256.791 155.068 256.871 154.626C256.952 154.184 256.911 153.782 256.751 153.441C256.57 153.099 256.31 152.818 255.949 152.597C255.587 152.376 255.146 152.216 254.645 152.115C254.143 152.015 253.682 152.015 253.28 152.075C252.879 152.135 252.518 152.316 252.237 152.577C251.956 152.838 251.776 153.18 251.676 153.642C251.595 154.084 251.656 154.485 251.876 154.827C252.097 155.168 252.458 155.429 252.939 155.63L252.598 156.996C251.796 156.695 251.214 156.233 250.833 155.61V155.65Z" fill="#B3CF92"/>
<path d="M249.83 158.904C250.252 158.483 250.773 158.201 251.395 158.061C252.017 157.94 252.699 157.96 253.461 158.161C254.224 158.362 254.845 158.663 255.327 159.065C255.808 159.467 256.129 159.969 256.31 160.552C256.47 161.134 256.47 161.777 256.31 162.48C256.129 163.183 255.828 163.745 255.407 164.167C254.986 164.589 254.444 164.87 253.822 164.991C253.201 165.111 252.498 165.071 251.736 164.89C250.974 164.689 250.352 164.388 249.87 163.986C249.389 163.565 249.068 163.082 248.888 162.5C248.707 161.917 248.727 161.275 248.888 160.592C249.068 159.889 249.369 159.326 249.79 158.904H249.83ZM250.071 162.058C250.191 162.42 250.432 162.721 250.773 162.982C251.114 163.243 251.556 163.444 252.077 163.565C252.619 163.705 253.1 163.745 253.521 163.685C253.943 163.625 254.304 163.464 254.585 163.223C254.866 162.982 255.066 162.641 255.166 162.199C255.267 161.777 255.267 161.395 255.146 161.034C255.026 160.672 254.785 160.371 254.444 160.11C254.103 159.849 253.662 159.648 253.12 159.507C252.599 159.366 252.117 159.326 251.696 159.387C251.275 159.447 250.914 159.608 250.633 159.849C250.352 160.11 250.151 160.431 250.051 160.853C249.951 161.275 249.951 161.676 250.071 162.018V162.058Z" fill="#B3CF92"/>
<path d="M254.284 169.048L248.285 169.169L253.02 172.845L252.438 174.572L245.517 172.262L245.938 170.976L250.693 172.563L246.52 169.229L246.921 168.004L252.237 167.843L247.483 166.256L247.904 164.991L254.825 167.301L254.263 169.008L254.284 169.048Z" fill="#B3CF92"/>
<path d="M251.074 178.067L245.076 177.746L249.529 181.763L248.827 183.45L242.087 180.638L242.608 179.393L247.242 181.321L243.331 177.705L243.832 176.52L249.148 176.761L244.514 174.833L245.036 173.608L251.776 176.42L251.094 178.087L251.074 178.067Z" fill="#B3CF92"/>
<path d="M247.423 186.363L240.843 183.229L241.425 182.024L248.004 185.158L247.423 186.363Z" fill="#B3CF92"/>
<path d="M245.898 189.436L239.659 189.657L244.434 192.188L243.812 193.373L237.373 189.958L238.135 188.532L244.233 188.291L239.579 185.82L240.201 184.635L246.64 188.05L245.918 189.416L245.898 189.436Z" fill="#B3CF92"/>
<path d="M233.822 195.844L235.206 196.547L235.026 196.607C234.805 196.386 234.644 196.125 234.544 195.803C234.444 195.482 234.444 195.161 234.504 194.819C234.564 194.478 234.685 194.136 234.885 193.815C235.246 193.232 235.688 192.811 236.229 192.549C236.771 192.288 237.373 192.188 238.015 192.248C238.656 192.308 239.278 192.529 239.9 192.911C240.522 193.293 241.004 193.755 241.345 194.297C241.686 194.839 241.866 195.422 241.886 196.024C241.886 196.647 241.726 197.25 241.365 197.852C240.943 198.535 240.402 198.997 239.76 199.218C239.098 199.439 238.396 199.419 237.653 199.158L238.315 197.933C238.757 198.073 239.158 198.093 239.519 197.973C239.88 197.852 240.181 197.611 240.402 197.23C240.642 196.828 240.743 196.446 240.703 196.065C240.663 195.683 240.502 195.321 240.241 194.98C239.98 194.638 239.619 194.337 239.198 194.076C238.777 193.815 238.336 193.634 237.934 193.554C237.513 193.473 237.132 193.514 236.771 193.654C236.41 193.795 236.109 194.056 235.888 194.458C235.708 194.759 235.607 195.04 235.607 195.321C235.607 195.603 235.667 195.884 235.808 196.145C235.948 196.406 236.149 196.647 236.41 196.848L237.332 195.341L238.235 195.904L236.61 198.555L233.401 196.587L233.842 195.864L233.822 195.844Z" fill="#B3CF92"/>
<path d="M223.049 212.033C222.889 211.571 222.849 211.109 222.969 210.627C223.089 210.145 223.33 209.683 223.711 209.221C224.092 208.759 224.514 208.438 224.975 208.257C225.436 208.076 225.898 208.016 226.359 208.116C226.841 208.217 227.282 208.438 227.703 208.799L231.274 211.832L230.411 212.857L226.841 209.824C226.439 209.482 226.058 209.342 225.657 209.362C225.276 209.382 224.915 209.603 224.574 209.984C224.253 210.366 224.092 210.768 224.132 211.15C224.173 211.531 224.373 211.893 224.774 212.234L228.345 215.267L227.483 216.292L223.912 213.259C223.49 212.897 223.19 212.475 223.029 212.033H223.049Z" fill="#B3CF92"/>
<path d="M223.13 220.55C222.709 220.711 222.308 220.771 221.887 220.671C221.465 220.57 221.104 220.389 220.763 220.068C220.422 219.726 220.182 219.365 220.081 218.963C219.981 218.561 220.001 218.14 220.141 217.718C220.282 217.296 220.563 216.874 220.944 216.472L221.967 215.408L220.061 213.6L220.984 212.636L226.26 217.678L224.314 219.726C223.933 220.128 223.532 220.429 223.11 220.59L223.13 220.55ZM221.325 218.2C221.305 218.521 221.425 218.802 221.706 219.064C221.987 219.325 222.268 219.445 222.589 219.405C222.89 219.365 223.211 219.184 223.532 218.843L224.515 217.818L222.809 216.211L221.827 217.236C221.506 217.577 221.345 217.899 221.325 218.2Z" fill="#B3CF92"/>
<path d="M212.94 221.434C213 220.711 213.341 220.068 213.963 219.485C214.464 219.003 215.026 218.702 215.628 218.602C216.23 218.501 216.831 218.541 217.433 218.762C218.035 218.983 218.577 219.365 219.058 219.887C219.56 220.409 219.901 220.992 220.081 221.615C220.262 222.237 220.302 222.84 220.141 223.422C220.001 224.025 219.66 224.567 219.138 225.049C218.536 225.612 217.895 225.893 217.213 225.933C216.51 225.953 215.828 225.732 215.146 225.27L216.129 224.246C216.53 224.527 216.912 224.648 217.313 224.648C217.694 224.648 218.055 224.487 218.376 224.186C218.717 223.864 218.918 223.523 218.978 223.141C219.038 222.76 218.978 222.378 218.817 221.976C218.657 221.574 218.396 221.193 218.055 220.831C217.714 220.47 217.353 220.188 216.972 219.988C216.591 219.807 216.209 219.726 215.828 219.767C215.447 219.807 215.086 219.988 214.765 220.289C214.424 220.61 214.244 220.972 214.223 221.374C214.203 221.775 214.324 222.217 214.625 222.659L213.541 223.563C213.06 222.84 212.859 222.117 212.92 221.414L212.94 221.434Z" fill="#B3CF92"/>
<path d="M210.23 223.463C210.832 223.362 211.414 223.463 211.995 223.704C212.577 223.965 213.119 224.387 213.62 224.989C214.122 225.592 214.443 226.214 214.603 226.837C214.764 227.46 214.724 228.042 214.523 228.625C214.322 229.207 213.941 229.709 213.38 230.171C212.818 230.633 212.256 230.915 211.654 231.015C211.053 231.116 210.471 231.015 209.889 230.754C209.307 230.493 208.766 230.051 208.264 229.448C207.763 228.846 207.442 228.243 207.281 227.62C207.121 226.998 207.161 226.415 207.361 225.853C207.562 225.29 207.943 224.768 208.505 224.306C209.067 223.844 209.628 223.563 210.23 223.463ZM208.565 226.154C208.465 226.516 208.465 226.897 208.585 227.319C208.705 227.721 208.946 228.143 209.307 228.565C209.668 228.986 210.029 229.308 210.411 229.509C210.792 229.709 211.173 229.79 211.554 229.75C211.935 229.709 212.296 229.549 212.617 229.268C212.958 228.986 213.179 228.665 213.279 228.303C213.38 227.942 213.38 227.54 213.239 227.138C213.119 226.717 212.878 226.315 212.517 225.873C212.176 225.451 211.795 225.13 211.414 224.929C211.032 224.728 210.651 224.648 210.27 224.688C209.889 224.728 209.548 224.889 209.207 225.17C208.866 225.451 208.645 225.773 208.545 226.134L208.565 226.154Z" fill="#B3CF92"/>
<path d="M207.924 234.269L202.989 230.854L204.674 236.619L203.19 237.684L198.917 231.758L200 230.975L202.929 235.052L201.505 229.91L202.548 229.147L206.961 232.14L204.032 228.062L205.116 227.279L209.389 233.205L207.924 234.249V234.269Z" fill="#B3CF92"/>
<path d="M200.041 239.692L195.367 235.936L196.61 241.802L195.066 242.746L191.254 236.519L192.398 235.816L195.026 240.094L193.962 234.872L195.046 234.209L199.218 237.523L196.59 233.245L197.734 232.542L201.545 238.768L200.021 239.713L200.041 239.692Z" fill="#B3CF92"/>
<path d="M192.257 244.272L188.746 237.865L189.91 237.222L193.42 243.629L192.257 244.272Z" fill="#B3CF92"/>
<path d="M189.167 245.899L183.971 242.424L186.379 247.285L185.175 247.888L181.945 241.34L183.39 240.616L188.465 243.991L186.138 239.271L187.342 238.688L190.571 245.236L189.187 245.919L189.167 245.899Z" fill="#B3CF92"/>
<path d="M175.687 244.011L176.409 245.397L176.229 245.337C176.168 245.015 176.188 244.714 176.309 244.413C176.409 244.112 176.59 243.83 176.85 243.569C177.111 243.328 177.392 243.127 177.733 242.987C178.355 242.726 178.977 242.645 179.579 242.746C180.18 242.846 180.722 243.127 181.204 243.549C181.685 243.971 182.066 244.513 182.347 245.176C182.628 245.839 182.748 246.502 182.708 247.145C182.668 247.787 182.487 248.37 182.126 248.872C181.785 249.374 181.284 249.776 180.622 250.037C179.88 250.338 179.177 250.399 178.515 250.198C177.853 249.997 177.292 249.555 176.85 248.912L178.094 248.31C178.355 248.691 178.676 248.932 179.037 249.053C179.398 249.173 179.779 249.133 180.18 248.972C180.602 248.792 180.903 248.531 181.103 248.209C181.304 247.888 181.384 247.486 181.364 247.064C181.364 246.642 181.244 246.18 181.043 245.718C180.842 245.256 180.602 244.855 180.321 244.553C180.04 244.252 179.699 244.051 179.318 243.951C178.937 243.85 178.556 243.891 178.134 244.071C177.813 244.212 177.573 244.393 177.392 244.614C177.212 244.835 177.111 245.116 177.071 245.397C177.031 245.698 177.071 246 177.171 246.321L178.796 245.638L179.198 246.622L176.349 247.828L174.885 244.353L175.667 244.031L175.687 244.011Z" fill="#B3CF92"/>
<path d="M157.451 250.82C157.592 250.358 157.832 249.957 158.214 249.635C158.595 249.314 159.056 249.093 159.638 248.952C160.22 248.812 160.741 248.792 161.223 248.912C161.704 249.033 162.105 249.254 162.426 249.615C162.767 249.977 162.988 250.419 163.128 250.961L164.252 255.521L162.948 255.842L161.824 251.282C161.704 250.78 161.463 250.419 161.142 250.218C160.821 250.017 160.4 249.977 159.899 250.097C159.397 250.218 159.056 250.439 158.856 250.78C158.655 251.122 158.615 251.544 158.735 252.046L159.859 256.605L158.555 256.927L157.431 252.367C157.291 251.825 157.291 251.323 157.431 250.84L157.451 250.82Z" fill="#B3CF92"/>
<path d="M152.557 257.77C152.115 257.65 151.754 257.449 151.473 257.148C151.193 256.846 151.012 256.465 150.932 256.003C150.852 255.521 150.872 255.099 151.032 254.717C151.193 254.336 151.453 253.994 151.814 253.753C152.176 253.512 152.637 253.311 153.199 253.211L154.663 252.95L154.182 250.358L155.486 250.117L156.81 257.288L154.041 257.811C153.5 257.911 152.998 257.911 152.557 257.811V257.77ZM152.476 254.818C152.276 255.059 152.216 255.38 152.276 255.762C152.356 256.143 152.517 256.404 152.797 256.545C153.078 256.686 153.439 256.726 153.881 256.645L155.285 256.384L154.864 254.074L153.459 254.336C153.018 254.416 152.677 254.577 152.476 254.818Z" fill="#B3CF92"/>
<path d="M143.81 252.488C144.272 251.945 144.934 251.624 145.776 251.503C146.479 251.423 147.1 251.503 147.662 251.764C148.224 252.026 148.665 252.427 149.026 252.97C149.367 253.512 149.608 254.135 149.688 254.838C149.768 255.561 149.728 256.224 149.508 256.826C149.287 257.429 148.966 257.931 148.485 258.333C148.003 258.734 147.421 258.976 146.719 259.056C145.917 259.156 145.215 259.016 144.633 258.634C144.051 258.252 143.63 257.67 143.349 256.887L144.733 256.645C144.894 257.107 145.134 257.449 145.455 257.67C145.776 257.891 146.158 257.971 146.579 257.911C147.04 257.851 147.401 257.69 147.662 257.429C147.943 257.168 148.123 256.806 148.224 256.404C148.324 256.003 148.344 255.521 148.264 255.018C148.204 254.516 148.063 254.074 147.883 253.693C147.702 253.311 147.421 253.03 147.08 252.849C146.739 252.668 146.358 252.588 145.897 252.648C145.435 252.709 145.094 252.889 144.834 253.211C144.573 253.532 144.432 253.954 144.412 254.476L143.008 254.577C143.048 253.713 143.309 253.01 143.77 252.467L143.81 252.488Z" fill="#B3CF92"/>
<path d="M140.381 252.528C140.923 252.789 141.344 253.211 141.665 253.773C141.986 254.336 142.167 254.998 142.227 255.782C142.287 256.565 142.187 257.248 141.946 257.851C141.705 258.433 141.344 258.915 140.843 259.257C140.341 259.598 139.739 259.799 139.017 259.839C138.295 259.879 137.673 259.779 137.131 259.498C136.59 259.217 136.168 258.815 135.848 258.252C135.527 257.69 135.346 257.027 135.306 256.244C135.246 255.46 135.346 254.777 135.587 254.195C135.827 253.612 136.189 253.15 136.69 252.809C137.192 252.468 137.793 252.287 138.516 252.226C139.238 252.166 139.86 252.287 140.401 252.568L140.381 252.528ZM137.472 253.753C137.172 253.974 136.951 254.295 136.81 254.717C136.67 255.119 136.63 255.601 136.65 256.143C136.69 256.706 136.79 257.168 136.991 257.549C137.172 257.931 137.432 258.232 137.773 258.413C138.114 258.594 138.475 258.694 138.917 258.654C139.338 258.634 139.719 258.493 140.02 258.273C140.321 258.031 140.542 257.71 140.682 257.308C140.823 256.907 140.863 256.425 140.843 255.862C140.802 255.32 140.702 254.858 140.502 254.456C140.321 254.074 140.06 253.793 139.719 253.592C139.398 253.412 139.017 253.331 138.576 253.351C138.134 253.371 137.773 253.512 137.472 253.733V253.753Z" fill="#B3CF92"/>
<path d="M132.155 259.96L130.229 254.275L128.143 259.9H126.317L126.438 252.568H127.782L127.702 257.61L129.627 252.628H130.911L132.656 257.69L132.737 252.668H134.081L133.96 260H132.155V259.96Z" fill="#B3CF92"/>
<path d="M122.687 259.719L121.102 253.934L118.675 259.417L116.869 259.277L117.411 252.005L118.755 252.106L118.374 257.107L120.581 252.247L121.864 252.347L123.309 257.469L123.69 252.467L125.014 252.568L124.472 259.839L122.687 259.699V259.719Z" fill="#B3CF92"/>
<path d="M113.62 258.855L114.523 251.604L115.847 251.764L114.944 259.016L113.62 258.855Z" fill="#B3CF92"/>
<path d="M110.23 258.373L108.063 252.508L107.161 257.851L105.837 257.63L107.04 250.439L108.625 250.7L110.772 256.404L111.654 251.202L112.978 251.423L111.775 258.614L110.25 258.353L110.23 258.373Z" fill="#B3CF92"/>
<path d="M100.38 248.932L100.159 250.479L100.059 250.318C100.199 250.037 100.4 249.796 100.66 249.615C100.921 249.434 101.242 249.314 101.583 249.254C101.924 249.193 102.285 249.213 102.646 249.294C103.308 249.454 103.85 249.736 104.271 250.178C104.693 250.62 104.973 251.142 105.114 251.764C105.254 252.387 105.254 253.05 105.094 253.753C104.933 254.456 104.652 255.059 104.251 255.561C103.85 256.063 103.348 256.425 102.767 256.625C102.185 256.826 101.563 256.866 100.861 256.706C100.079 256.525 99.4768 256.163 99.0756 255.601C98.6543 255.039 98.4537 254.376 98.4738 253.572L99.8379 253.813C99.8379 254.275 99.9382 254.657 100.179 254.978C100.4 255.28 100.721 255.48 101.162 255.581C101.603 255.681 102.004 255.661 102.366 255.501C102.727 255.34 103.007 255.079 103.248 254.737C103.489 254.376 103.649 253.954 103.77 253.452C103.89 252.95 103.91 252.508 103.87 252.086C103.81 251.664 103.669 251.302 103.409 251.021C103.168 250.72 102.827 250.519 102.386 250.419C102.045 250.338 101.744 250.338 101.463 250.419C101.182 250.499 100.941 250.66 100.741 250.881C100.54 251.102 100.38 251.363 100.279 251.684L102.004 252.086L101.764 253.11L98.7346 252.407L99.5771 248.731L100.4 248.932H100.38Z" fill="#B3CF92"/>
<path d="M81.6026 243.75C81.9837 243.449 82.425 243.268 82.9065 243.228C83.3879 243.188 83.9095 243.288 84.4712 243.509C85.0329 243.73 85.4542 244.031 85.7751 244.413C86.0961 244.774 86.2967 245.216 86.3569 245.698C86.4171 246.18 86.3569 246.683 86.1362 247.205L84.3709 251.564L83.1272 251.061L84.8925 246.703C85.0931 246.221 85.1132 245.799 84.9527 245.437C84.8122 245.076 84.4913 244.794 84.0299 244.614C83.5685 244.433 83.1472 244.413 82.7861 244.553C82.4251 244.714 82.1442 245.035 81.9637 245.518L80.1983 249.876L78.9546 249.374L80.7199 245.015C80.9406 244.493 81.2214 244.091 81.6026 243.79V243.75Z" fill="#B3CF92"/>
<path d="M73.5784 246.522C73.2775 246.18 73.117 245.799 73.0769 245.397C73.0368 244.995 73.097 244.573 73.2976 244.152C73.4982 243.71 73.779 243.388 74.1401 243.147C74.4811 242.926 74.8824 242.806 75.3437 242.826C75.7851 242.826 76.2665 242.967 76.7881 243.208L78.1322 243.85L79.2555 241.48L80.4592 242.063L77.3297 248.671L74.7821 247.466C74.2805 247.225 73.8793 246.924 73.5784 246.582V246.522ZM75.2635 244.071C74.9626 244.152 74.7219 244.353 74.5614 244.714C74.4009 245.056 74.3808 245.377 74.5213 245.658C74.6617 245.939 74.9425 246.18 75.3437 246.381L76.6276 246.984L77.6306 244.855L76.3468 244.252C75.9255 244.051 75.5644 243.991 75.2635 244.071Z" fill="#B3CF92"/>
<path d="M69.5662 237.081C70.2683 236.921 70.9905 237.041 71.7327 237.443C72.3345 237.784 72.7959 238.206 73.0968 238.748C73.3977 239.291 73.5181 239.873 73.498 240.516C73.478 241.159 73.2774 241.802 72.9363 242.424C72.5953 243.067 72.154 243.569 71.6324 243.931C71.1108 244.312 70.5491 244.513 69.9273 244.553C69.3054 244.594 68.7036 244.453 68.0817 244.111C67.3595 243.73 66.8781 243.188 66.6373 242.545C66.3966 241.902 66.3966 241.179 66.6373 240.375L67.9011 240.978C67.7607 241.44 67.7607 241.862 67.9011 242.223C68.0416 242.585 68.2823 242.886 68.6634 243.087C69.0647 243.308 69.4659 243.388 69.8269 243.328C70.2081 243.268 70.5491 243.107 70.8701 242.826C71.1911 242.545 71.4719 242.183 71.7126 241.741C71.9534 241.299 72.1138 240.857 72.174 240.436C72.2342 240.014 72.174 239.632 72.0336 239.291C71.8932 238.949 71.5923 238.648 71.1911 238.447C70.7899 238.226 70.3886 238.166 70.0075 238.266C69.6063 238.367 69.2452 238.628 68.9242 239.05L67.7206 238.306C68.2622 237.624 68.8841 237.222 69.5662 237.041V237.081Z" fill="#B3CF92"/>
<path d="M66.7982 235.133C67.079 235.675 67.1793 236.258 67.1191 236.88C67.0589 237.523 66.8182 238.166 66.3969 238.829C65.9757 239.492 65.4942 239.994 64.9526 240.335C64.411 240.677 63.8493 240.837 63.2274 240.817C62.6055 240.797 62.0037 240.596 61.4019 240.215C60.8001 239.833 60.3587 239.371 60.0779 238.829C59.7971 238.286 59.6967 237.704 59.777 237.081C59.8372 236.438 60.098 235.796 60.5192 235.133C60.9405 234.47 61.4019 233.968 61.9435 233.626C62.4852 233.285 63.0468 233.124 63.6487 233.144C64.2505 233.144 64.8523 233.365 65.4742 233.747C66.076 234.128 66.5173 234.59 66.7982 235.133ZM63.7289 234.41C63.3478 234.41 62.9867 234.55 62.6456 234.791C62.3046 235.032 61.9836 235.394 61.6827 235.856C61.3818 236.318 61.2013 236.78 61.1411 237.202C61.0609 237.624 61.101 238.005 61.2615 238.367C61.4219 238.708 61.6827 239.01 62.0438 239.23C62.4049 239.472 62.7861 239.572 63.1672 239.552C63.5484 239.532 63.9094 239.411 64.2705 239.15C64.6316 238.889 64.9325 238.548 65.2334 238.065C65.5344 237.603 65.7149 237.162 65.7751 236.74C65.8553 236.318 65.7951 235.936 65.6547 235.575C65.4942 235.233 65.2334 234.952 64.8724 234.711C64.5113 234.47 64.1301 234.37 63.749 234.37L63.7289 234.41Z" fill="#B3CF92"/>
<path d="M55.8451 236.338L57.5301 230.573L52.5953 233.968L51.1309 232.903L55.4238 226.998L56.5071 227.781L53.5582 231.839L57.9915 228.866L59.0347 229.629L57.5703 234.751L60.5192 230.694L61.6024 231.477L57.3095 237.383L55.8651 236.318L55.8451 236.338Z" fill="#B3CF92"/>
<path d="M48.2425 230.553L50.3488 224.929L45.1732 227.962L43.7891 226.797L48.5033 221.213L49.5264 222.077L46.2966 225.913L50.9306 223.282L51.9136 224.105L50.0881 229.107L53.3178 225.27L54.3409 226.134L49.6267 231.718L48.2625 230.553H48.2425Z" fill="#B3CF92"/>
<path d="M41.4221 224.527L46.3971 219.184L47.3801 220.088L42.4051 225.431L41.4221 224.507V224.527Z" fill="#B3CF92"/>
<path d="M38.9543 222.157L40.6394 216.131L36.7878 219.927L35.845 218.963L41.0406 213.841L42.164 214.986L40.5592 220.871L44.3105 217.175L45.2533 218.12L40.0577 223.242L38.9744 222.137L38.9543 222.157Z" fill="#B3CF92"/>
<path d="M36.4879 208.699L35.4046 209.804V209.603C35.6854 209.442 35.9863 209.382 36.3274 209.382C36.6483 209.382 36.9693 209.462 37.2903 209.623C37.6112 209.784 37.8921 210.005 38.1328 210.286C38.5741 210.788 38.8349 211.35 38.9352 211.953C39.0155 212.556 38.9352 213.158 38.6945 213.741C38.4538 214.323 38.0526 214.865 37.5109 215.327C36.9693 215.81 36.3876 216.131 35.7657 216.292C35.1438 216.452 34.542 216.452 33.9402 216.292C33.3384 216.131 32.8168 215.769 32.3554 215.227C31.8338 214.624 31.553 213.982 31.553 213.279C31.553 212.596 31.7736 211.913 32.2551 211.29L33.218 212.294C32.9372 212.676 32.8168 213.058 32.8168 213.419C32.8168 213.801 32.9572 214.162 33.2581 214.484C33.559 214.825 33.9001 215.046 34.2812 215.127C34.6623 215.207 35.0435 215.167 35.4447 215.006C35.8459 214.845 36.2271 214.604 36.6082 214.283C36.9894 213.962 37.2903 213.6 37.4909 213.218C37.6915 212.837 37.7717 212.475 37.7517 212.094C37.7316 211.712 37.5511 211.35 37.2702 211.009C37.0495 210.748 36.7888 210.567 36.528 210.487C36.2471 210.386 35.9663 210.366 35.6854 210.426C35.3845 210.487 35.1037 210.607 34.8429 210.808L36.0064 212.134L35.204 212.837L33.1578 210.487L35.9863 208.016L36.548 208.659L36.4879 208.699Z" fill="#B3CF92"/>
<path d="M24.3103 193.493C24.7918 193.473 25.2532 193.594 25.6744 193.835C26.0957 194.096 26.4568 194.478 26.7778 194.98C27.0987 195.482 27.2793 195.984 27.3194 196.466C27.3595 196.948 27.2793 197.41 27.0386 197.832C26.7978 198.254 26.4568 198.615 25.9753 198.917L22.0034 201.408L21.3013 200.283L25.2732 197.792C25.7146 197.511 25.9753 197.189 26.0757 196.808C26.1559 196.426 26.0757 196.024 25.8149 195.603C25.5541 195.181 25.2131 194.92 24.8319 194.839C24.4508 194.759 24.0495 194.839 23.6082 195.12L19.6362 197.611L18.9141 196.466L22.886 193.976C23.3675 193.674 23.8489 193.514 24.3304 193.493H24.3103Z" fill="#B3CF92"/>
<path d="M16.166 191.003C16.1259 190.541 16.2062 190.139 16.4068 189.777C16.6074 189.416 16.9083 189.115 17.3295 188.894C17.7508 188.653 18.1721 188.552 18.5934 188.572C19.0146 188.572 19.3958 188.733 19.7569 189.014C20.118 189.275 20.4389 189.657 20.6997 190.159L21.4219 191.465L23.7288 190.199L24.3708 191.364L17.9915 194.879L16.6274 192.409C16.3466 191.907 16.2062 191.445 16.166 191.003ZM18.9544 189.998C18.6736 189.878 18.3526 189.918 18.0116 190.099C17.6706 190.28 17.49 190.521 17.4298 190.842C17.3697 191.143 17.47 191.505 17.6906 191.907L18.3727 193.152L20.4189 192.027L19.7368 190.782C19.5161 190.38 19.2553 190.119 18.9745 189.998H18.9544Z" fill="#B3CF92"/>
<path d="M18.4529 181.08C19.1149 181.341 19.6365 181.883 19.9976 182.647C20.2985 183.269 20.4189 183.892 20.3386 184.515C20.2584 185.137 20.0377 185.68 19.6365 186.182C19.2353 186.684 18.7137 187.086 18.0718 187.407C17.4098 187.729 16.7679 187.869 16.1259 187.869C15.484 187.869 14.9022 187.709 14.3807 187.387C13.8591 187.066 13.4378 186.584 13.1369 185.941C12.7758 185.198 12.6956 184.495 12.8761 183.832C13.0567 183.169 13.4779 182.566 14.1399 182.064L14.8019 183.31C14.4208 183.611 14.1801 183.932 14.0597 184.314C13.9594 184.675 13.9795 185.077 14.1801 185.459C14.3807 185.881 14.6415 186.162 14.9825 186.343C15.3235 186.523 15.7047 186.584 16.1259 186.544C16.5472 186.503 16.9885 186.383 17.4499 186.162C17.9113 185.941 18.2925 185.68 18.5733 185.378C18.8742 185.077 19.0548 184.736 19.135 184.354C19.2152 183.972 19.135 183.591 18.9545 183.169C18.7538 182.747 18.473 182.486 18.0919 182.325C17.7107 182.165 17.2694 182.185 16.7478 182.325L16.2062 181.02C17.0286 180.779 17.7909 180.799 18.4529 181.08Z" fill="#B3CF92"/>
<path d="M17.3089 177.826C17.2286 178.429 16.9678 178.951 16.5466 179.433C16.1253 179.915 15.5435 180.297 14.8214 180.578C14.0992 180.879 13.4171 181 12.7752 180.959C12.1333 180.919 11.5916 180.718 11.1102 180.337C10.6287 179.975 10.2476 179.453 9.9868 178.79C9.72601 178.127 9.62571 177.484 9.72601 176.882C9.80625 176.279 10.067 175.757 10.5084 175.275C10.9296 174.813 11.5114 174.411 12.2336 174.13C12.9557 173.829 13.6378 173.708 14.2597 173.748C14.9016 173.789 15.4432 173.989 15.9247 174.371C16.4061 174.753 16.7672 175.255 17.0481 175.918C17.3289 176.581 17.4092 177.223 17.3289 177.806L17.3089 177.826ZM15.2426 175.436C14.9217 175.215 14.5606 175.114 14.1393 175.114C13.718 175.114 13.2366 175.215 12.7351 175.416C12.2135 175.616 11.8123 175.878 11.5114 176.179C11.2105 176.48 11.0099 176.822 10.9296 177.183C10.8494 177.545 10.8895 177.946 11.05 178.348C11.2105 178.75 11.4512 179.051 11.7722 179.272C12.0931 179.493 12.4542 179.594 12.8956 179.594C13.3168 179.594 13.7983 179.493 14.3199 179.292C14.8214 179.091 15.2426 178.83 15.5435 178.529C15.8445 178.228 16.0451 177.886 16.1253 177.525C16.2055 177.163 16.1654 176.761 16.0049 176.36C15.8445 175.958 15.6037 175.637 15.2828 175.436H15.2426Z" fill="#B3CF92"/>
<path d="M7.72028 172.342L12.4546 168.667L6.45647 168.526L5.89478 166.798L12.8357 164.529L13.257 165.814L8.50264 167.381L13.8187 167.562L14.2199 168.787L10.0272 172.081L14.7816 170.514L15.2028 171.78L8.26191 174.05L7.70022 172.342H7.72028Z" fill="#B3CF92"/>
<path d="M4.9516 163.243L9.94665 159.929L3.98869 159.346L3.54736 157.579L10.6287 155.831L10.9497 157.137L6.07498 158.342L11.3709 158.925L11.6719 160.17L7.25855 163.143L12.1132 161.938L12.4342 163.243L5.35281 164.991L4.93154 163.243H4.9516Z" fill="#B3CF92"/>
<path d="M2.94604 154.325L10.1076 152.919L10.3684 154.224L3.20683 155.63L2.94604 154.325Z" fill="#B3CF92"/>
<path d="M2.3639 150.95L7.25866 147.053L1.90251 147.857L1.7019 146.531L8.90361 145.447L9.14434 147.033L4.39001 150.85L9.60573 150.066L9.80634 151.392L2.60463 152.477L2.3639 150.95Z" fill="#B3CF92"/>
<path d="M8.26204 138.657L6.73744 138.918L6.85781 138.758C7.17877 138.798 7.45962 138.918 7.72041 139.119C7.98119 139.32 8.20186 139.581 8.34228 139.883C8.48271 140.184 8.60307 140.545 8.62313 140.907C8.68331 141.59 8.56295 142.192 8.2821 142.735C8.00125 143.277 7.57998 143.699 7.03835 144.04C6.49672 144.382 5.85478 144.563 5.13261 144.623C4.41043 144.683 3.74843 144.623 3.14662 144.382C2.5448 144.161 2.06335 143.799 1.6822 143.317C1.30105 142.835 1.08039 142.233 1.02021 141.53C0.939965 140.726 1.12051 140.043 1.50166 139.481C1.88281 138.918 2.48462 138.517 3.24692 138.276L3.44753 139.641C3.00619 139.782 2.68523 140.003 2.46456 140.324C2.2439 140.626 2.14359 141.007 2.18372 141.449C2.22384 141.911 2.36426 142.273 2.62505 142.554C2.88583 142.835 3.22686 143.036 3.62807 143.137C4.04934 143.257 4.49067 143.277 5.01224 143.237C5.51375 143.197 5.95508 143.076 6.33623 142.895C6.71738 142.715 7.01829 142.454 7.21889 142.132C7.4195 141.811 7.49974 141.409 7.45962 140.967C7.4195 140.626 7.33926 140.345 7.15871 140.103C6.99823 139.862 6.77756 139.682 6.49672 139.561C6.23593 139.441 5.91496 139.38 5.594 139.36L5.75448 141.128L4.69127 141.228L4.41043 138.135L8.16174 137.794L8.24198 138.637L8.26204 138.657Z" fill="#B3CF92"/>
</g>
<defs>
<clipPath id="clip0_1241_1897">
<rect width="259.161" height="260" fill="white" transform="translate(0.919434)"/>
</clipPath>
</defs>
</svg>
