<svg width="135" height="117" viewBox="0 0 135 117" fill="none" xmlns="http://www.w3.org/2000/svg">
<path d="M131.963 8.88076H134.47V0.52478H84.877V8.88076H87.3838C92.9071 8.88076 95.9988 9.40718 97.3943 10.6021C98.514 11.5547 98.9485 13.4598 98.9485 17.3788L98.9234 49.4407H35.677V17.3788C35.677 10.8528 35.677 8.88076 47.0996 8.88076H49.6064V0.52478H0.155762V8.88076H2.66255C14.9208 8.88076 14.9208 10.8528 14.9208 17.3788V46.9339C14.9208 48.3183 13.7984 49.4407 12.414 49.4407H2.66255V55.6074H12.414C13.7984 55.6074 14.9208 56.7297 14.9208 58.1142V61.9161H2.66255V68.0828H12.414C13.7984 68.0828 14.9208 69.2052 14.9208 70.5896V100.145C14.9208 106.671 14.9208 108.643 2.66255 108.643H0.155762V116.999H49.6064V108.643H47.0996C35.677 108.643 35.677 106.671 35.677 100.145V70.5896C35.677 69.2052 36.7993 68.0828 38.1838 68.0828H96.4417C97.8261 68.0828 98.9485 69.2052 98.9485 70.5896V100.145C98.9485 104.072 98.514 105.969 97.3943 106.921C95.9988 108.108 92.9071 108.643 87.3838 108.643H84.877V116.999H134.47V108.643H131.963C119.563 108.643 119.563 106.504 119.563 100.145V70.5896C119.563 69.2052 120.685 68.0828 122.069 68.0828H131.963V61.9161H119.563V58.1142C119.563 56.7297 120.685 55.6074 122.069 55.6074H131.963V49.4407H122.069C120.685 49.4407 119.563 48.3183 119.563 46.9339V17.3788C119.563 11.0199 119.563 8.88076 131.963 8.88076ZM98.9485 61.9078H35.677V55.599H98.9234V58.6155L98.9568 61.1223V61.8994C98.9568 61.904 98.9531 61.9078 98.9485 61.9078Z" fill="#111A15"/>
</svg>
