<svg width="32" height="36" viewBox="0 0 32 36" fill="none" xmlns="http://www.w3.org/2000/svg">
<path d="M26.3333 12H29.7778C30.729 12 31.5 12.7675 31.5 13.7143V34.2857C31.5 35.2325 30.729 36 29.7778 36H2.22222C1.27107 36 0.5 35.2325 0.5 34.2857V13.7143C0.5 12.7675 1.27107 12 2.22222 12H5.66667V10.2857C5.66667 4.60507 10.2931 0 16 0C21.7069 0 26.3333 4.60507 26.3333 10.2857V12ZM22.8889 12V10.2857C22.8889 6.49862 19.8046 3.42857 16 3.42857C12.1954 3.42857 9.11111 6.49862 9.11111 10.2857V12H22.8889ZM14.2778 22.2857V25.7143H17.7222V22.2857H14.2778ZM7.38889 22.2857V25.7143H10.8333V22.2857H7.38889ZM21.1667 22.2857V25.7143H24.6111V22.2857H21.1667Z" fill="currentColor"/>
</svg>
