<svg width="56" height="56" viewBox="0 0 56 56" fill="none" xmlns="http://www.w3.org/2000/svg">
<rect x="0.5" y="0.5" width="55" height="55" rx="27.5" stroke="#B17FC7"/>
<path d="M26.6667 32.0001H29.3333C30.0406 32.0001 30.7189 31.7191 31.219 31.219C31.719 30.7189 32 30.0407 32 29.3334C32 28.6262 31.719 27.9479 31.219 27.4478C30.7189 26.9477 30.0406 26.6667 29.3333 26.6667H25.3333C24.5333 26.6667 23.8667 26.9334 23.4667 27.4667L16 34.6667" stroke="#240E32" stroke-width="2" stroke-linecap="round" stroke-linejoin="round"/>
<path d="M21.3333 40.0001L23.4666 38.1335C23.8666 37.6001 24.5333 37.3335 25.3333 37.3335H30.6666C32.1333 37.3335 33.4666 36.8001 34.3999 35.7335L40.5333 29.8668C41.0478 29.3806 41.3481 28.7098 41.3681 28.0022C41.3881 27.2946 41.1261 26.608 40.6399 26.0935C40.1537 25.5789 39.483 25.2786 38.7753 25.2586C38.0677 25.2386 37.3811 25.5006 36.8666 25.9868L31.2666 31.1868" stroke="#240E32" stroke-width="2" stroke-linecap="round" stroke-linejoin="round"/>
<path d="M14.6667 33.3333L22.6667 41.3333" stroke="#240E32" stroke-width="2" stroke-linecap="round" stroke-linejoin="round"/>
<path d="M33.3332 27.8666C35.4687 27.8666 37.1999 26.1355 37.1999 24C37.1999 21.8645 35.4687 20.1333 33.3332 20.1333C31.1977 20.1333 29.4666 21.8645 29.4666 24C29.4666 26.1355 31.1977 27.8666 33.3332 27.8666Z" stroke="#240E32" stroke-width="2" stroke-linecap="round" stroke-linejoin="round"/>
<path d="M20 22.6667C22.2091 22.6667 24 20.8759 24 18.6667C24 16.4576 22.2091 14.6667 20 14.6667C17.7909 14.6667 16 16.4576 16 18.6667C16 20.8759 17.7909 22.6667 20 22.6667Z" stroke="#240E32" stroke-width="2" stroke-linecap="round" stroke-linejoin="round"/>
</svg>
