<?xml version="1.0" standalone="no"?>
<!DOCTYPE svg PUBLIC "-//W3C//DTD SVG 20010904//EN"
 "http://www.w3.org/TR/2001/REC-SVG-20010904/DTD/svg10.dtd">
<svg version="1.0" xmlns="http://www.w3.org/2000/svg"
 width="512.000000pt" height="512.000000pt" viewBox="0 0 512.000000 512.000000"
 preserveAspectRatio="xMidYMid meet">
<metadata>
Created by potrace 1.14, written by Peter Selinger 2001-2017
</metadata>
<g transform="translate(0.000000,512.000000) scale(0.100000,-0.100000)"
fill="#000000" stroke="none">
<path d="M2325 5109 c-679 -65 -1307 -399 -1742 -926 -394 -478 -603 -1094
-579 -1708 31 -836 450 -1585 1148 -2052 427 -285 974 -439 1493 -419 836 31
1585 450 2052 1148 285 427 439 974 419 1493 -31 836 -450 1585 -1148 2052
-467 312 -1078 465 -1643 412z m420 -748 c65 -31 101 -65 497 -460 499 -498
483 -476 483 -651 0 -99 -2 -110 -32 -171 -45 -91 -102 -140 -236 -204 -191
-91 -361 -137 -583 -156 -121 -11 -346 -1 -412 17 -44 12 101 -51 167 -72 391
-128 827 -84 1183 118 94 53 208 136 273 199 l41 39 81 -83 c102 -102 133
-162 133 -259 0 -134 -39 -193 -264 -400 -276 -254 -578 -407 -924 -470 -158
-28 -450 -30 -597 -4 -133 24 -281 67 -384 110 -47 20 -86 34 -88 32 -7 -7
151 -133 232 -185 149 -98 328 -169 520 -208 68 -13 135 -18 275 -17 205 0
312 17 472 73 45 17 84 29 85 27 1 -1 -192 -196 -430 -432 -510 -508 -484
-489 -677 -489 -110 0 -118 1 -185 34 -64 31 -104 67 -497 460 -499 498 -483
476 -483 651 0 99 2 110 32 171 42 85 98 136 211 193 263 132 576 192 871 166
75 -7 140 -14 146 -17 7 -4 7 -2 0 5 -32 35 -304 113 -455 132 -415 50 -872
-99 -1165 -381 l-41 -39 -81 83 c-102 103 -127 149 -131 244 -8 140 30 201
255 408 324 300 660 453 1083 496 264 26 585 -22 829 -125 47 -20 86 -34 88
-32 6 5 -144 127 -215 175 -92 62 -243 135 -352 169 -168 54 -256 66 -455 66
-203 0 -293 -13 -459 -69 -56 -19 -102 -33 -103 -31 -1 1 190 194 425 428 505
503 501 500 697 495 89 -3 107 -6 170 -36z"/>
</g>
</svg>
