<svg width="28" height="28" viewBox="0 0 28 28" fill="none" xmlns="http://www.w3.org/2000/svg">
<g clip-path="url(#clip0_1241_1812)">
<path d="M23.1775 6.59111C21.5591 5.84771 19.8287 5.30742 18.0197 5C17.7975 5.39425 17.5378 5.92472 17.3591 6.34689C15.4359 6.06309 13.5306 6.06309 11.6428 6.34689C11.4637 5.92503 11.1984 5.39455 10.9744 5C9.16341 5.30773 7.4309 5.84986 5.81278 6.59509C2.54839 11.4377 1.6637 16.1601 2.1062 20.8156C4.27121 22.4028 6.36934 23.3671 8.43184 23.9982C8.94122 23.31 9.39528 22.5786 9.78654 21.8076C9.04122 21.5296 8.32747 21.1866 7.65309 20.788C7.83216 20.6579 8.00716 20.5217 8.17622 20.3818C12.2897 22.2708 16.7594 22.2708 20.8238 20.3818C20.9947 20.5217 21.1697 20.6579 21.3469 20.788C20.6703 21.1884 19.9547 21.5314 19.2094 21.8094C19.6006 22.5783 20.0528 23.3118 20.5641 24C22.6288 23.3689 24.7288 22.4049 26.8938 20.8156C27.4128 15.4189 26.0069 10.7401 23.1775 6.59141V6.59111ZM10.3472 17.9525C9.11216 17.9525 8.09966 16.8207 8.09966 15.4425C8.09966 14.0643 9.0906 12.9304 10.3472 12.9304C11.6037 12.9304 12.6162 14.0622 12.5947 15.4425C12.5965 16.8207 11.6037 17.9525 10.3472 17.9525ZM18.6528 17.9525C17.4178 17.9525 16.4053 16.8207 16.4053 15.4425C16.4053 14.0643 17.3962 12.9304 18.6528 12.9304C19.9094 12.9304 20.9219 14.0622 20.9003 15.4425C20.9003 16.8207 19.9094 17.9525 18.6528 17.9525Z" fill="#240E32"/>
</g>
<defs>
<clipPath id="clip0_1241_1812">
<rect width="28" height="28" fill="white"/>
</clipPath>
</defs>
</svg>
