<svg width="28" height="28" viewBox="0 0 28 28" fill="none" xmlns="http://www.w3.org/2000/svg">
<path d="M13.665 2C7.223 2 2 7.30479 2 13.8477C2 19.3993 5.76391 24.0445 10.8382 25.33C10.7837 25.1701 10.7487 24.9844 10.7487 24.7544V22.7294C10.2753 22.7294 9.48212 22.7294 9.28285 22.7294C8.48477 22.7294 7.77515 22.3809 7.43103 21.7333C7.049 21.0135 6.9829 19.9127 6.03609 19.2393C5.75516 19.0152 5.96902 18.7595 6.29272 18.794C6.89055 18.9658 7.38631 19.3825 7.85291 20.0005C8.31757 20.6196 8.53629 20.7598 9.40436 20.7598C9.82527 20.7598 10.4552 20.7351 11.0482 20.6403C11.367 19.8179 11.9182 19.0606 12.5918 18.7032C8.70738 18.2974 6.85361 16.3347 6.85361 13.6699C6.85361 12.5227 7.33479 11.413 8.15232 10.478C7.88402 9.54992 7.54671 7.65725 8.25536 6.93652C10.0032 6.93652 11.0598 8.08772 11.3135 8.39872C12.1845 8.09562 13.141 7.92383 14.1462 7.92383C15.1533 7.92383 16.1137 8.09562 16.9866 8.40069C17.2374 8.09167 18.295 6.93652 20.0467 6.93652C20.7583 7.65824 20.4171 9.5588 20.1459 10.4849C20.9585 11.4179 21.4368 12.5247 21.4368 13.6699C21.4368 16.3327 19.586 18.2945 15.7073 18.7022C16.7747 19.268 17.5533 20.8575 17.5533 22.0551V24.7544C17.5533 24.8571 17.531 24.9311 17.5193 25.019C22.0648 23.4008 25.33 19.0172 25.33 13.8477C25.33 7.30479 20.107 2 13.665 2Z" fill="#240E32"/>
</svg>
