<svg width="28" height="28" viewBox="0 0 28 28" fill="none" xmlns="http://www.w3.org/2000/svg">
<path d="M15.7979 14C15.7979 18.367 12.2694 21.913 7.89822 21.913C3.52706 21.913 -0.00146484 18.367 -0.00146484 14C-0.00146484 9.63294 3.52706 6.08691 7.89822 6.08691C12.2694 6.08691 15.7979 9.63294 15.7979 14Z" fill="#240E32"/>
<path d="M24.4502 14C24.4502 18.105 22.6772 21.4414 20.5004 21.4414C18.3236 21.4414 16.5505 18.105 16.5505 14C16.5505 9.895 18.3236 6.55859 20.5004 6.55859C22.6772 6.55859 24.4502 9.87753 24.4502 14Z" fill="#240E32"/>
<path d="M28.0015 13.9997C28.0015 17.6855 27.387 20.6725 26.6146 20.6725C25.8422 20.6725 25.2278 17.6855 25.2278 13.9997C25.2278 10.3139 25.8422 7.3269 26.6146 7.3269C27.387 7.3269 28.0015 10.3139 28.0015 13.9997Z" fill="#240E32"/>
</svg>
