<svg width="96" height="22" viewBox="0 0 96 22" fill="none" xmlns="http://www.w3.org/2000/svg">
<g clip-path="url(#clip0_1241_1700)">
<path d="M29.8129 3.79639C28.6894 3.79639 27.6061 3.93688 27.1646 4.05729C26.5227 4.23782 26.3621 4.51867 26.2417 5.10045L23.6939 16.8572C23.6537 17.098 23.6135 17.2987 23.6135 17.4993C23.6135 18.0817 23.9948 18.4622 24.6166 18.4622C25.2989 18.4622 25.5797 18.0209 25.7202 17.3389L26.4424 13.9884C26.9439 14.0485 27.6061 14.1086 28.5491 14.1086C32.7021 14.1086 35.2899 11.8617 35.2899 8.47103C35.2899 5.5017 33.2236 3.79639 29.8129 3.79639ZM28.4488 12.1824C27.8067 12.1824 27.3051 12.1625 26.8436 12.1022L28.1879 5.86276C28.6092 5.80249 29.2312 5.72227 29.8732 5.72227C32.0801 5.72227 33.2036 6.76558 33.2036 8.49098C33.2036 10.698 31.5986 12.1826 28.4482 12.1826H28.4488V12.1824Z" fill="#240E32"/>
<path d="M95.1784 14.5904C94.8375 14.5904 94.6168 14.791 94.1954 15.2524C93.4529 16.0149 92.9917 16.4361 92.4099 16.4361C91.8882 16.4361 91.6072 16.0149 91.6072 15.3326C91.6072 14.9515 91.6876 14.4901 91.7879 13.9885L92.5304 10.4975H94.758C95.4602 10.4975 95.8815 10.0963 95.8815 9.374C95.8815 8.97275 95.6207 8.67181 95.0189 8.67181H92.9314L93.2926 7.04672C93.3326 6.80606 93.3728 6.58534 93.3728 6.38472C93.3728 5.82288 92.9917 5.42163 92.3697 5.42163C91.7075 5.42163 91.4066 5.86306 91.2663 6.54516L90.8047 8.67181H89.8619C89.1396 8.67181 88.7183 9.07306 88.7183 9.79534C88.7183 10.1966 88.9991 10.4975 89.601 10.4975H90.4236L89.6811 13.948C89.6008 14.3292 89.5005 14.9512 89.5005 15.5932C89.5005 17.2183 90.3432 18.402 92.1488 18.402C93.1921 18.402 94.115 17.8803 94.8172 17.2584C95.4993 16.6565 96.0009 15.9143 96.0009 15.4326C96.001 14.9715 95.6403 14.5904 95.1784 14.5904Z" fill="#240E32"/>
<path d="M49.0338 4.98042C49.0338 4.39806 48.6326 4.01733 48.0106 4.01733C47.3486 4.01733 47.0477 4.45877 46.9072 5.14086L44.3994 16.7973C44.3391 17.0381 44.2991 17.2388 44.2991 17.4394C44.2991 18.0218 44.7003 18.4023 45.3022 18.4023C45.9843 18.4023 46.2852 17.9609 46.4257 17.2788L48.934 5.62233C48.9737 5.38167 49.0338 5.18105 49.0338 4.98042Z" fill="#240E32"/>
<path d="M84.8454 8.47126C81.6354 8.47126 79.4485 11.6613 79.4485 14.6908C79.4485 14.7476 79.4499 14.8036 79.4517 14.8595C78.9482 15.6239 78.305 16.4162 77.8636 16.4162C77.5425 16.4162 77.4221 16.1152 77.4221 15.6537C77.4221 15.092 77.5823 14.149 77.7632 13.3264L79.4285 5.62233C79.4685 5.38167 79.5087 5.18105 79.5087 4.98042C79.5087 4.39806 79.1276 4.01733 78.5056 4.01733C77.8235 4.01733 77.5425 4.45877 77.4022 5.14086L76.4995 9.31395C76.0177 8.81238 75.315 8.47126 74.2522 8.47126C72.1203 8.47126 69.9761 10.1125 69.1405 12.6293C68.2202 15.0086 67.3977 16.4162 66.7488 16.4162C66.5082 16.4162 66.3677 16.2156 66.3677 15.8744C66.3677 14.8713 66.9294 12.4239 67.1702 11.24C67.2504 10.7985 67.2906 10.618 67.2906 10.3571C67.2906 9.47439 65.8259 8.43108 63.92 8.43108C61.7162 8.43108 59.72 9.82672 58.7189 11.9012C57.2325 14.528 55.8683 16.4166 55.1929 16.4166C54.892 16.4166 54.7917 16.0353 54.7115 15.6741L54.2099 12.9054L57.2796 10.3976C57.5604 10.1568 57.9215 9.81522 57.9215 9.37437C57.9215 8.83277 57.5604 8.4717 57.0188 8.4717C56.6176 8.4717 56.2763 8.71251 55.9355 8.99335L51.3215 12.8048L52.8664 5.62233C52.9066 5.38167 52.9667 5.18105 52.9667 4.98042C52.9667 4.39806 52.5655 4.01733 51.9435 4.01733C51.2815 4.01733 50.9806 4.45877 50.8401 5.14086L48.3322 16.7973C48.2721 17.0381 48.2319 17.2388 48.2319 17.4394C48.2319 18.0218 48.6332 18.4023 49.2351 18.4023C49.9172 18.4023 50.2181 17.9609 50.3586 17.2788L50.6796 15.7741L52.5655 14.2493L53.027 16.5766C53.2075 17.4995 53.689 18.4023 54.9329 18.4023C56.1769 18.4023 57.1439 17.2721 58.1192 15.745C58.4152 17.3445 59.553 18.4023 61.1322 18.4023C62.7114 18.4023 63.8004 17.4593 64.5026 16.1955V16.2355C64.5026 17.5397 65.1648 18.4023 66.3284 18.4023C67.3804 18.4023 68.2544 17.768 69.035 16.4192C69.4778 17.5946 70.4674 18.4023 71.845 18.4023C73.47 18.4023 74.6336 17.4193 75.376 16.055V16.1754C75.376 17.6199 76.0983 18.4029 77.2819 18.4029C78.327 18.4029 79.2157 17.7964 79.9733 16.8083C80.55 17.7954 81.5834 18.4029 82.9798 18.4029C86.1898 18.4029 88.3766 15.213 88.3766 12.1635C88.3764 10.0161 87.0723 8.47126 84.8454 8.47126ZM64.843 12.5439C64.2607 15.0517 63.0173 16.4762 61.6129 16.4762C60.6699 16.4762 60.1483 15.7539 60.1483 14.6708C60.1483 12.5442 61.6932 10.2569 63.759 10.2569C64.3808 10.2569 64.8624 10.4376 65.2837 10.6984L64.843 12.5439ZM76.0177 11.4811C75.3758 14.4303 73.9112 16.4767 72.3062 16.4767C71.4235 16.4767 70.9018 15.7947 70.9018 14.6714C70.9018 12.5247 72.3868 10.2977 74.3727 10.2977C75.135 10.2977 75.7168 10.5585 76.1381 10.8996L76.0177 11.4811ZM83.2206 16.4763C82.057 16.4763 81.5754 15.6336 81.5754 14.5704C81.5754 12.6243 82.9195 10.3973 84.6049 10.3973C85.7684 10.3973 86.25 11.24 86.25 12.3032C86.2498 14.2694 84.9057 16.4763 83.2206 16.4763Z" fill="#240E32"/>
<path d="M40.2863 8.47119C37.0762 8.47119 34.8894 11.6612 34.8894 14.6907C34.8894 16.8574 36.1935 18.4023 38.4204 18.4023C41.6304 18.4023 43.8174 15.2124 43.8174 12.1628C43.8174 10.0161 42.513 8.47119 40.2863 8.47119ZM38.6612 16.4762C37.4975 16.4762 37.0161 15.6336 37.0161 14.5703C37.0161 12.6242 38.3603 10.3972 40.0455 10.3972C41.2092 10.3972 41.6907 11.2399 41.6907 12.3032C41.6907 14.2694 40.3465 16.4762 38.6612 16.4762Z" fill="#240E32"/>
<path d="M9.65263 5.04193C11.6972 5.04193 13.3546 4.07754 13.3546 2.88791C13.3546 1.69828 11.6972 0.733887 9.65263 0.733887C7.6081 0.733887 5.95068 1.69828 5.95068 2.88791C5.95068 4.07754 7.6081 5.04193 9.65263 5.04193Z" fill="#E6007A"/>
<path d="M9.65263 21.2663C11.6972 21.2663 13.3546 20.3019 13.3546 19.1123C13.3546 17.9226 11.6972 16.9583 9.65263 16.9583C7.6081 16.9583 5.95068 17.9226 5.95068 19.1123C5.95068 20.3019 7.6081 21.2663 9.65263 21.2663Z" fill="#E6007A"/>
<path d="M4.49274 8.02079C5.51501 6.25018 5.50853 4.33262 4.47828 3.7378C3.44802 3.14298 1.78413 4.09616 0.761864 5.86677C-0.260402 7.63739 -0.253926 9.55495 0.776328 10.1498C1.80658 10.7446 3.47048 9.79141 4.49274 8.02079Z" fill="#E6007A"/>
<path d="M18.543 16.1331C19.5653 14.3625 19.5588 12.4449 18.5286 11.8501C17.4983 11.2553 15.8344 12.2085 14.8122 13.9791C13.7899 15.7497 13.7964 17.6673 14.8266 18.2621C15.8569 18.8569 17.5208 17.9037 18.543 16.1331Z" fill="#E6007A"/>
<path d="M4.47828 18.262C5.50853 17.6671 5.51501 15.7496 4.49274 13.979C3.47048 12.2083 1.80658 11.2552 0.776328 11.85C-0.253926 12.4448 -0.260402 14.3624 0.761863 16.133C1.78413 17.9036 3.44802 18.8568 4.47828 18.262Z" fill="#E6007A"/>
<path d="M18.5286 10.1501C19.5588 9.55532 19.5653 7.63776 18.543 5.86714C17.5208 4.09653 15.8569 3.14336 14.8266 3.73817C13.7964 4.33299 13.7899 6.25055 14.8122 8.02117C15.8344 9.79178 17.4983 10.745 18.5286 10.1501Z" fill="#E6007A"/>
</g>
<defs>
<clipPath id="clip0_1241_1700">
<rect width="96" height="20.5323" fill="white" transform="translate(0 0.733887)"/>
</clipPath>
</defs>
</svg>
