<svg width="28" height="28" viewBox="0 0 28 28" fill="none" xmlns="http://www.w3.org/2000/svg">
<g clip-path="url(#clip0_1241_1815)">
<path fill-rule="evenodd" clip-rule="evenodd" d="M13.665 25.33C20.1074 25.33 25.33 20.1074 25.33 13.665C25.33 7.2226 20.1074 2 13.665 2C7.2226 2 2 7.2226 2 13.665C2 20.1074 7.2226 25.33 13.665 25.33ZM15.198 9.66431L6.85872 13.2263L6.85825 13.2268C5.39082 13.8204 6.24992 14.3769 6.24992 14.3769C6.24992 14.3769 7.50281 14.8217 8.57644 15.1558C9.65008 15.4899 10.2227 15.1188 10.2227 15.1188L15.269 11.5938C17.0587 10.332 16.6292 11.3709 16.1996 11.8162C15.2695 12.781 13.7306 14.3023 12.4419 15.5265C11.8693 16.046 12.1559 16.4913 12.4062 16.7137C13.1347 17.3528 14.85 18.5148 15.6294 19.0427C15.8456 19.1891 15.9898 19.2868 16.0209 19.3109C16.2001 19.4592 17.2022 20.1269 17.8106 19.9787C18.4189 19.8304 18.4904 18.9768 18.4904 18.9768L19.3853 13.1517C19.4657 12.5986 19.5462 12.0572 19.6212 11.5532C19.8127 10.2652 19.9679 9.22117 19.9936 8.84783C20.1013 7.58651 18.8127 8.10596 18.8127 8.10596C18.8127 8.10596 16.0213 9.29314 15.198 9.66431Z" fill="#240E32"/>
</g>
<defs>
<clipPath id="clip0_1241_1815">
<rect width="28" height="28" fill="white"/>
</clipPath>
</defs>
</svg>
