<svg width="1440" height="1056" viewBox="0 0 1440 1056" fill="none" xmlns="http://www.w3.org/2000/svg">
<path d="M71 1056L71.0001 -1.21593e-05" stroke="url(#paint0_linear_1241_1470)" stroke-width="1.22585"/>
<path d="M215 1056L215 -1.21593e-05" stroke="url(#paint1_linear_1241_1470)" stroke-width="1.22585"/>
<path d="M359 1056L359 -1.21593e-05" stroke="url(#paint2_linear_1241_1470)" stroke-width="1.22585"/>
<path d="M503 1056L503 -1.21593e-05" stroke="url(#paint3_linear_1241_1470)" stroke-width="1.22585"/>
<path d="M647 1056L647.001 -1.21593e-05" stroke="url(#paint4_linear_1241_1470)" stroke-width="1.22585"/>
<path d="M791 1056L791.001 -1.21593e-05" stroke="url(#paint5_linear_1241_1470)" stroke-width="1.22585"/>
<path d="M935 1056L935.001 -1.21593e-05" stroke="url(#paint6_linear_1241_1470)" stroke-width="1.22585"/>
<path d="M1079 1056L1079 -1.21593e-05" stroke="url(#paint7_linear_1241_1470)" stroke-width="1.22585"/>
<path d="M1223 1056L1223 -1.21593e-05" stroke="url(#paint8_linear_1241_1470)" stroke-width="1.22585"/>
<path d="M1367 1056L1367 -1.21593e-05" stroke="url(#paint9_linear_1241_1470)" stroke-width="1.22585"/>
<path d="M1440 22.1271L-6.4373e-05 22.127" stroke="white" stroke-width="1.22585"/>
<path d="M1440 167.127L-6.4373e-05 167.127" stroke="white" stroke-width="1.22585"/>
<path d="M1440 312.127L-6.4373e-05 312.127" stroke="white" stroke-width="1.22585"/>
<path d="M1440 457.127L-6.4373e-05 457.127" stroke="white" stroke-width="1.22585"/>
<path d="M1440 602.127L-6.4373e-05 602.127" stroke="white" stroke-width="1.22585"/>
<path d="M1440 747.127L-6.4373e-05 747.127" stroke="white" stroke-width="1.22585"/>
<path d="M1440 892.127L-6.4373e-05 892.127" stroke="white" stroke-width="1.22585"/>
<defs>
<linearGradient id="paint0_linear_1241_1470" x1="70.5001" y1="-4.37114e-08" x2="70.5" y2="1056" gradientUnits="userSpaceOnUse">
<stop stop-color="white"/>
<stop offset="0.695" stop-color="white"/>
<stop offset="1" stop-color="white" stop-opacity="0.28"/>
</linearGradient>
<linearGradient id="paint1_linear_1241_1470" x1="214.5" y1="-4.37114e-08" x2="214.5" y2="1056" gradientUnits="userSpaceOnUse">
<stop stop-color="white"/>
<stop offset="0.695" stop-color="white"/>
<stop offset="1" stop-color="white" stop-opacity="0.28"/>
</linearGradient>
<linearGradient id="paint2_linear_1241_1470" x1="358.5" y1="-4.37114e-08" x2="358.5" y2="1056" gradientUnits="userSpaceOnUse">
<stop stop-color="white"/>
<stop offset="0.695" stop-color="white"/>
<stop offset="1" stop-color="white" stop-opacity="0.28"/>
</linearGradient>
<linearGradient id="paint3_linear_1241_1470" x1="502.5" y1="-4.37114e-08" x2="502.5" y2="1056" gradientUnits="userSpaceOnUse">
<stop stop-color="white"/>
<stop offset="0.695" stop-color="white"/>
<stop offset="1" stop-color="white" stop-opacity="0.28"/>
</linearGradient>
<linearGradient id="paint4_linear_1241_1470" x1="646.501" y1="-4.37114e-08" x2="646.5" y2="1056" gradientUnits="userSpaceOnUse">
<stop stop-color="white"/>
<stop offset="0.695" stop-color="white"/>
<stop offset="1" stop-color="white" stop-opacity="0.28"/>
</linearGradient>
<linearGradient id="paint5_linear_1241_1470" x1="790.501" y1="-4.37114e-08" x2="790.5" y2="1056" gradientUnits="userSpaceOnUse">
<stop stop-color="white"/>
<stop offset="0.695" stop-color="white"/>
<stop offset="1" stop-color="white" stop-opacity="0.28"/>
</linearGradient>
<linearGradient id="paint6_linear_1241_1470" x1="934.501" y1="-4.37114e-08" x2="934.5" y2="1056" gradientUnits="userSpaceOnUse">
<stop stop-color="white"/>
<stop offset="0.695" stop-color="white"/>
<stop offset="1" stop-color="white" stop-opacity="0.28"/>
</linearGradient>
<linearGradient id="paint7_linear_1241_1470" x1="1078.5" y1="-4.37114e-08" x2="1078.5" y2="1056" gradientUnits="userSpaceOnUse">
<stop stop-color="white"/>
<stop offset="0.695" stop-color="white"/>
<stop offset="1" stop-color="white" stop-opacity="0.28"/>
</linearGradient>
<linearGradient id="paint8_linear_1241_1470" x1="1222.5" y1="-4.37114e-08" x2="1222.5" y2="1056" gradientUnits="userSpaceOnUse">
<stop stop-color="white"/>
<stop offset="0.695" stop-color="white"/>
<stop offset="1" stop-color="white" stop-opacity="0.28"/>
</linearGradient>
<linearGradient id="paint9_linear_1241_1470" x1="1366.5" y1="-4.37114e-08" x2="1366.5" y2="1056" gradientUnits="userSpaceOnUse">
<stop stop-color="white"/>
<stop offset="0.695" stop-color="white"/>
<stop offset="1" stop-color="white" stop-opacity="0.28"/>
</linearGradient>
</defs>
</svg>
