<svg width="100" height="600" xmlns="http://www.w3.org/2000/svg">

 <g>
  <title>Layer 1</title>
  <path d="m607,132.5c0,1 0,2 0,3c0,1 -1.57971,9.15688 -4,15c-0.85571,2.06586 -3.78986,11.07843 -5,14c-0.85571,2.06586 -1.69122,5.07179 -3,10c-1.62329,6.11269 -3.11584,7.96384 -4,11c-1.15277,3.95868 -1.4588,4.69344 -2,6c-0.76538,1.84776 -0.23462,3.15224 -1,5c-0.5412,1.30656 -1,2 -2,4c-1,2 -2,4 -4,8c-1,2 -2.41589,3.76108 -4,7c-1.38934,2.84073 -2.87769,5.06601 -4,7c-1.80969,3.11848 -3.1731,4.85274 -4,6c-1.30743,1.814 -1.61731,2.07613 -2,3c-0.5412,1.30656 -2,2 -3,3c-1,1 -2.18604,2.69255 -4,4c-2.29456,1.65381 -4.55817,5.51929 -8,8c-3.62799,2.6149 -8.77625,5.29694 -14,9c-7.69635,5.45587 -12.65942,7.56531 -19,11c-6.69641,3.62744 -14.0517,6.85651 -17,8c-9.1824,3.56137 -14,7 -19,9c-5,2 -10.0769,3.73145 -14,5c-5.12396,1.65686 -7.88495,2.27432 -10,3c-4.82303,1.65482 -10.00974,1.80292 -12,2c-5.07422,0.50244 -8,2 -12,2c-4,0 -6.90778,0.49622 -11,1c-1.98502,0.24435 -6,0 -10,0c-1,0 -6,0 -9,0c-4,0 -5,0 -8,0c-2,0 -4,0 -6,0c-1,0 -4,-1 -6,-1c-2,0 -3,0 -6,0c-2,0 -3.0535,0.4595 -5,0c-2.17624,-0.51373 -2.07611,-0.61731 -3,-1c-1.30655,-0.5412 -2.69345,-2.4588 -4,-3c-0.92389,-0.38269 -2,-1 -2,-1c-1,0 -2,0 -2,0c-1,-1 -1,-1 -1,-1c-1,0 -1,0 -2,0c0,0 -1,-1 -1,-1c-1,0 -1,0 -2,-1c0,0 0,0 -1,0c-1,0 -1,-1 -1,-1c-1,0 -1,0 -1,0c-1,0 -1,-1 -2,-1c0,0 0,0 -1,0c0,0 -1,0 -1,-1c0,0 0,0 -1,0c0,0 0.70709,-0.29291 0,-1c-0.70709,-0.70709 -1,0 -1,0c0,0 0,0 0,0l0,-1" id="svg_1" stroke="#000" fill="none"/>
 </g>
</svg>