<svg width="368" height="367" viewBox="0 0 368 367" fill="none" xmlns="http://www.w3.org/2000/svg">
<path d="M183.832 0L197.898 94.692L240.537 8.98112L224.653 103.385L291.691 35.0454L247.412 119.921L332.287 75.6414L263.947 142.679L358.351 126.795L272.64 169.434L367.332 183.5L272.64 197.566L358.351 240.205L263.947 224.321L332.287 291.359L247.412 247.079L291.691 331.955L224.653 263.615L240.537 358.019L197.898 272.308L183.832 367L169.766 272.308L127.127 358.019L143.011 263.615L75.9734 331.955L120.253 247.079L35.3774 291.359L103.717 224.321L9.31316 240.205L95.024 197.566L0.332031 183.5L95.024 169.434L9.31316 126.795L103.717 142.679L35.3774 75.6414L120.253 119.921L75.9734 35.0454L143.011 103.385L127.127 8.98112L169.766 94.692L183.832 0Z" fill="white"/>
</svg>
