<svg width="800" height="600" xmlns="http://www.w3.org/2000/svg">
 <g id="Layer_1">
  <title>Layer 1</title>
  <path d="m414.5,213.5c0,0 0,1 0,2c0,0 0,1 0,2c0,0 -0.29291,0.29289 -1,1c-0.70709,0.70711 0,2 0,3c0,1 -1,2 -1,3c0,1 0,1 -1,2c0,0 -1,1 -1,1c0,0 -1,1 -1,2c0,1 0.38269,1.07613 0,2c-0.5412,1.30656 -1,1 -1,1c0,2 -0.61731,3.07613 -1,4c-0.5412,1.30656 -1.4588,1.69344 -2,3c-0.38269,0.92387 -1,2 -1,3c0,1 -0.4588,1.69344 -1,3c-0.38269,0.92387 -0.23462,2.15224 -1,4c-0.5412,1.30656 -2.4588,0.69344 -3,2c-0.38269,0.92387 -1.4588,2.69344 -2,4c-0.38269,0.92389 -0.29291,1.29291 -1,2c-0.70709,0.70709 -1,2 -1,2c-1,0 -1,1 -1,1c-1,0 -1,1 -2,1c-1,0 -1,1 -1,1c-1,1 -2.07611,1.61731 -3,2c-1.30655,0.5412 -3,2 -3,2c-1,1 -2,1 -3,2c0,0 -0.29291,0.29291 -1,1c-0.70709,0.70709 -2,1 -2,1c-1,0 -2,1 -3,1c-1,0 -1,1 -2,1c0,0 -2,1 -2,1c-1,0 -2,0 -3,1c0,0 -1,0 -1,0c0,1 -1.07611,0.61731 -2,1c-1.30655,0.5412 -2,1 -3,2c0,0 -1,0 -2,0c-1,0 -2.29291,-0.70709 -3,0c-0.70709,0.70709 -1,1 -1,1c-1,0 -1,0 -2,1c0,0 -1,0 -2,0c0,0 -1,1 -1,1c-1,0 -2,0 -3,0c0,0 -1.07611,-0.38269 -2,0c-1.30655,0.5412 -1,1 -2,1c-1,0 -1,0 -3,0c0,0 -1,0 -1,0c-1,0 -2,0 -2,0c-1,1 -2,1 -3,1c-1,0 -1,0 -2,0c0,0 0,0 -2,0c0,0 0,0 -1,0c-1,0 -2,0 -3,0c-1,0 -2,0 -2,0c-1,0 -2,0 -3,0c-1,0 -2.07611,0.38269 -3,0c-1.30655,-0.5412 -1,-1 -2,-1c0,0 -1,0 -2,0c0,0 -1,0 -2,0c0,0 -1,-1 -2,-1c0,0 -1,0 -1,0c0,0 0,0 -1,0c0,0 0,0 0,0c-1,0 -1,0 -1,0c0,0 -1,0 -1,0c0,-1 -1,-1 -1,-1c0,0 -1,0 -1,0c0,0 0,0 0,0c-1,0 -1,0 -1,0c-1,-1 -1,-1 -1,-1c0,0 -1,0 -1,0c-1,0 -1,-1 -1,-1c0,0 -1,0 -1,0c-1,0 -0.29291,-0.29291 -1,-1c-0.70709,-0.70709 -1,0 -1,0c0,0 0,0 -1,0l0,0" id="svg_2" stroke="#000" fill="none"/>
  <path d="m74.5,156.5c1,0 1.29289,0.29289 2,1c1.41422,1.41422 2.69344,0.4588 4,1c1.84776,0.76537 3.07612,0.61731 4,1c1.30656,0.5412 2.07612,0.61731 3,1c1.30656,0.5412 1.69344,1.4588 3,2c0.92388,0.38269 2.15224,0.23463 4,1c1.30656,0.5412 2.69344,1.4588 4,2c0.92388,0.38269 3.07612,0.61731 4,1c1.30656,0.5412 2.82375,1.48625 5,2c0.97325,0.22975 2.82375,1.48625 5,2c0.97325,0.22975 3.02675,0.77025 4,1c2.17625,0.51375 4.0535,1.5405 6,2c2.17625,0.51375 3.186,0.69255 5,2c1.14726,0.8269 2.82375,1.48625 5,2c0.97325,0.22975 3.02675,0.77025 4,1c2.17625,0.51375 3,1 4,1c1,0 2.69344,0.4588 4,1c0.92387,0.38269 1.82375,0.48625 4,1c1.9465,0.4595 4,1 5,1c2,0 3,0 4,0c2,0 3,0 4,0c2,0 2,0 3,0c0,0 1,0 1,0c0,0 1,0 1,0c1,0 2,0 3,0c1,0 1,0 3,0c0,0 1,0 2,0c0,0 1,0 1,0c0,-1 1,-1 1,-1c1,0 2,-1 3,-1c0,0 1.29289,0.70711 2,0c0.70711,-0.70711 1,-1 1,-1c1,-1 2,-1 2,-1c1,-1 1.29289,-0.29289 2,-1c0.70711,-0.70711 1,-1 1,-1c0,0 0,-1 1,-1c0,0 0,0 1,0c0,0 0.29289,-0.29289 1,-1c0.70711,-0.70711 1,0 1,0c1,0 1,-1 1,-1c1,0 1,0 1,0c1,0 1,0 2,0c0,0 0,-1 0,-1c0,0 0.29289,0.70711 1,0c0.70711,-0.70711 1,-1 1,-1c0,0 1,-1 1,-1l0,0" id="svg_4" stroke="#000" fill="none"/>
 </g>
</svg>